G04*
G04 #@! TF.GenerationSoftware,Altium Limited,Altium Designer,24.10.1 (45)*
G04*
G04 Layer_Color=65535*
%FSLAX25Y25*%
%MOIN*%
G70*
G04*
G04 #@! TF.SameCoordinates,6C24F43B-20B5-45B7-A738-425B0D0EF839*
G04*
G04*
G04 #@! TF.FilePolarity,Positive*
G04*
G01*
G75*
%ADD10C,0.00787*%
%ADD11C,0.01575*%
%ADD12C,0.00984*%
%ADD13C,0.01181*%
%ADD14C,0.00500*%
%ADD15C,0.00606*%
%ADD16C,0.01000*%
%ADD17C,0.00591*%
G36*
X157795Y1020D02*
X157897Y1013D01*
X158021Y998D01*
X158159Y976D01*
X158305Y947D01*
X158458Y903D01*
X158327Y225D01*
X158320D01*
X158290Y233D01*
X158239Y247D01*
X158181Y255D01*
X158115Y269D01*
X158043Y277D01*
X157882Y284D01*
X157846D01*
X157809Y277D01*
X157766Y269D01*
X157664Y240D01*
X157620Y218D01*
X157576Y182D01*
Y174D01*
X157561Y160D01*
X157547Y138D01*
X157532Y94D01*
X157518Y43D01*
X157503Y-22D01*
X157496Y-103D01*
X157489Y-197D01*
Y-453D01*
X158210D01*
Y-1211D01*
X157489D01*
Y-4112D01*
X156519D01*
Y-1211D01*
X155980D01*
Y-453D01*
X156519D01*
Y-183D01*
Y-175D01*
Y-161D01*
Y-139D01*
Y-103D01*
X156526Y-22D01*
X156534Y80D01*
X156541Y189D01*
X156563Y306D01*
X156585Y415D01*
X156614Y510D01*
X156621Y517D01*
X156636Y546D01*
X156658Y590D01*
X156694Y641D01*
X156745Y699D01*
X156803Y765D01*
X156884Y823D01*
X156971Y881D01*
X156985Y889D01*
X157022Y903D01*
X157080Y925D01*
X157153Y954D01*
X157255Y984D01*
X157365Y1005D01*
X157496Y1020D01*
X157642Y1027D01*
X157714D01*
X157795Y1020D01*
D02*
G37*
G36*
X192233Y36D02*
X191263D01*
Y933D01*
X192233D01*
Y36D01*
D02*
G37*
G36*
X104067Y36D02*
X103098D01*
Y933D01*
X104067D01*
Y36D01*
D02*
G37*
G36*
X153136Y21D02*
X152305D01*
Y852D01*
X153136D01*
Y21D01*
D02*
G37*
G36*
X151649D02*
X150818D01*
Y852D01*
X151649D01*
Y21D01*
D02*
G37*
G36*
X177405Y-380D02*
X177485Y-394D01*
X177587Y-416D01*
X177696Y-453D01*
X177806Y-496D01*
X177922Y-562D01*
X177616Y-1400D01*
X177609Y-1393D01*
X177573Y-1378D01*
X177529Y-1349D01*
X177470Y-1320D01*
X177398Y-1291D01*
X177325Y-1262D01*
X177244Y-1247D01*
X177164Y-1240D01*
X177135D01*
X177091Y-1247D01*
X177048Y-1254D01*
X176997Y-1269D01*
X176938Y-1291D01*
X176880Y-1320D01*
X176822Y-1357D01*
X176814Y-1364D01*
X176800Y-1378D01*
X176771Y-1407D01*
X176741Y-1451D01*
X176705Y-1502D01*
X176669Y-1575D01*
X176632Y-1663D01*
X176603Y-1765D01*
Y-1779D01*
X176596Y-1801D01*
X176588Y-1823D01*
Y-1860D01*
X176581Y-1903D01*
X176574Y-1962D01*
X176567Y-2027D01*
X176559Y-2100D01*
X176552Y-2195D01*
X176545Y-2290D01*
Y-2406D01*
X176537Y-2530D01*
X176530Y-2669D01*
Y-2822D01*
Y-2990D01*
Y-4112D01*
X175560D01*
Y-453D01*
X176457D01*
Y-970D01*
X176464Y-963D01*
X176494Y-919D01*
X176537Y-853D01*
X176596Y-773D01*
X176654Y-693D01*
X176727Y-613D01*
X176793Y-540D01*
X176865Y-489D01*
X176873Y-482D01*
X176894Y-467D01*
X176938Y-453D01*
X176989Y-431D01*
X177048Y-409D01*
X177120Y-387D01*
X177193Y-380D01*
X177281Y-372D01*
X177339D01*
X177405Y-380D01*
D02*
G37*
G36*
X102165Y-380D02*
X102245Y-394D01*
X102347Y-416D01*
X102456Y-453D01*
X102566Y-496D01*
X102682Y-562D01*
X102376Y-1400D01*
X102369Y-1393D01*
X102332Y-1378D01*
X102289Y-1349D01*
X102230Y-1320D01*
X102157Y-1291D01*
X102085Y-1262D01*
X102004Y-1247D01*
X101924Y-1240D01*
X101895D01*
X101851Y-1247D01*
X101807Y-1254D01*
X101757Y-1269D01*
X101698Y-1291D01*
X101640Y-1320D01*
X101582Y-1357D01*
X101574Y-1364D01*
X101560Y-1378D01*
X101531Y-1407D01*
X101501Y-1451D01*
X101465Y-1502D01*
X101428Y-1575D01*
X101392Y-1663D01*
X101363Y-1765D01*
Y-1779D01*
X101356Y-1801D01*
X101348Y-1823D01*
Y-1860D01*
X101341Y-1903D01*
X101334Y-1962D01*
X101326Y-2027D01*
X101319Y-2100D01*
X101312Y-2195D01*
X101304Y-2290D01*
Y-2406D01*
X101297Y-2530D01*
X101290Y-2669D01*
Y-2822D01*
Y-2990D01*
Y-4112D01*
X100320D01*
Y-453D01*
X101217D01*
Y-970D01*
X101224Y-963D01*
X101253Y-919D01*
X101297Y-853D01*
X101356Y-773D01*
X101414Y-693D01*
X101487Y-613D01*
X101552Y-540D01*
X101625Y-489D01*
X101633Y-482D01*
X101654Y-467D01*
X101698Y-453D01*
X101749Y-431D01*
X101807Y-409D01*
X101880Y-387D01*
X101953Y-380D01*
X102041Y-372D01*
X102099D01*
X102165Y-380D01*
D02*
G37*
G36*
X189164Y-380D02*
X189244Y-387D01*
X189331Y-402D01*
X189426Y-423D01*
X189528Y-453D01*
X189630Y-489D01*
X189645Y-496D01*
X189674Y-511D01*
X189725Y-533D01*
X189783Y-569D01*
X189849Y-613D01*
X189915Y-664D01*
X189980Y-722D01*
X190038Y-788D01*
X190046Y-795D01*
X190060Y-817D01*
X190082Y-853D01*
X190111Y-905D01*
X190148Y-963D01*
X190177Y-1036D01*
X190206Y-1109D01*
X190228Y-1196D01*
Y-1203D01*
X190235Y-1240D01*
X190250Y-1291D01*
X190257Y-1364D01*
X190272Y-1451D01*
X190279Y-1568D01*
X190286Y-1692D01*
Y-1845D01*
Y-4112D01*
X189317D01*
Y-2253D01*
Y-2246D01*
Y-2224D01*
Y-2195D01*
Y-2158D01*
Y-2107D01*
Y-2056D01*
X189309Y-1932D01*
X189302Y-1808D01*
X189287Y-1677D01*
X189273Y-1568D01*
X189266Y-1524D01*
X189251Y-1488D01*
Y-1480D01*
X189236Y-1459D01*
X189222Y-1429D01*
X189200Y-1386D01*
X189134Y-1298D01*
X189098Y-1254D01*
X189047Y-1218D01*
X189040Y-1211D01*
X189025Y-1203D01*
X188996Y-1189D01*
X188952Y-1167D01*
X188901Y-1145D01*
X188850Y-1130D01*
X188785Y-1123D01*
X188712Y-1116D01*
X188668D01*
X188624Y-1123D01*
X188566Y-1130D01*
X188493Y-1152D01*
X188420Y-1174D01*
X188340Y-1211D01*
X188260Y-1254D01*
X188252Y-1262D01*
X188231Y-1276D01*
X188194Y-1313D01*
X188150Y-1349D01*
X188107Y-1407D01*
X188063Y-1466D01*
X188019Y-1546D01*
X187990Y-1626D01*
Y-1633D01*
X187975Y-1670D01*
X187968Y-1728D01*
X187953Y-1816D01*
X187946Y-1867D01*
X187939Y-1932D01*
X187932Y-1998D01*
Y-2078D01*
X187924Y-2158D01*
X187917Y-2253D01*
Y-2355D01*
Y-2465D01*
Y-4112D01*
X186947D01*
Y-453D01*
X187844D01*
Y-992D01*
X187851Y-985D01*
X187866Y-963D01*
X187895Y-934D01*
X187932Y-897D01*
X187975Y-846D01*
X188034Y-795D01*
X188099Y-737D01*
X188172Y-679D01*
X188252Y-628D01*
X188347Y-569D01*
X188442Y-518D01*
X188551Y-467D01*
X188668Y-431D01*
X188785Y-402D01*
X188916Y-380D01*
X189047Y-372D01*
X189098D01*
X189164Y-380D01*
D02*
G37*
G36*
X184855D02*
X184935Y-387D01*
X185023Y-402D01*
X185118Y-423D01*
X185220Y-453D01*
X185322Y-489D01*
X185336Y-496D01*
X185365Y-511D01*
X185416Y-533D01*
X185475Y-569D01*
X185540Y-613D01*
X185606Y-664D01*
X185672Y-722D01*
X185730Y-788D01*
X185737Y-795D01*
X185752Y-817D01*
X185774Y-853D01*
X185803Y-905D01*
X185839Y-963D01*
X185869Y-1036D01*
X185898Y-1109D01*
X185919Y-1196D01*
Y-1203D01*
X185927Y-1240D01*
X185941Y-1291D01*
X185949Y-1364D01*
X185963Y-1451D01*
X185971Y-1568D01*
X185978Y-1692D01*
Y-1845D01*
Y-4112D01*
X185008D01*
Y-2253D01*
Y-2246D01*
Y-2224D01*
Y-2195D01*
Y-2158D01*
Y-2107D01*
Y-2056D01*
X185001Y-1932D01*
X184994Y-1808D01*
X184979Y-1677D01*
X184965Y-1568D01*
X184957Y-1524D01*
X184943Y-1488D01*
Y-1480D01*
X184928Y-1459D01*
X184914Y-1429D01*
X184892Y-1386D01*
X184826Y-1298D01*
X184790Y-1254D01*
X184739Y-1218D01*
X184731Y-1211D01*
X184717Y-1203D01*
X184687Y-1189D01*
X184644Y-1167D01*
X184593Y-1145D01*
X184542Y-1130D01*
X184476Y-1123D01*
X184403Y-1116D01*
X184360D01*
X184316Y-1123D01*
X184257Y-1130D01*
X184185Y-1152D01*
X184112Y-1174D01*
X184031Y-1211D01*
X183951Y-1254D01*
X183944Y-1262D01*
X183922Y-1276D01*
X183886Y-1313D01*
X183842Y-1349D01*
X183798Y-1407D01*
X183754Y-1466D01*
X183711Y-1546D01*
X183681Y-1626D01*
Y-1633D01*
X183667Y-1670D01*
X183660Y-1728D01*
X183645Y-1816D01*
X183638Y-1867D01*
X183631Y-1932D01*
X183623Y-1998D01*
Y-2078D01*
X183616Y-2158D01*
X183609Y-2253D01*
Y-2355D01*
Y-2465D01*
Y-4112D01*
X182639D01*
Y-453D01*
X183536D01*
Y-992D01*
X183543Y-985D01*
X183558Y-963D01*
X183587Y-934D01*
X183623Y-897D01*
X183667Y-846D01*
X183725Y-795D01*
X183791Y-737D01*
X183864Y-679D01*
X183944Y-628D01*
X184039Y-569D01*
X184134Y-518D01*
X184243Y-467D01*
X184360Y-431D01*
X184476Y-402D01*
X184607Y-380D01*
X184739Y-372D01*
X184790D01*
X184855Y-380D01*
D02*
G37*
G36*
X167228Y-380D02*
X167308Y-387D01*
X167396Y-402D01*
X167490Y-423D01*
X167593Y-453D01*
X167694Y-489D01*
X167709Y-496D01*
X167738Y-511D01*
X167789Y-533D01*
X167848Y-569D01*
X167913Y-613D01*
X167979Y-664D01*
X168044Y-722D01*
X168103Y-788D01*
X168110Y-795D01*
X168125Y-817D01*
X168147Y-853D01*
X168176Y-905D01*
X168212Y-963D01*
X168241Y-1036D01*
X168270Y-1109D01*
X168292Y-1196D01*
Y-1203D01*
X168300Y-1240D01*
X168314Y-1291D01*
X168322Y-1364D01*
X168336Y-1451D01*
X168343Y-1568D01*
X168351Y-1692D01*
Y-1845D01*
Y-4112D01*
X167381D01*
Y-2253D01*
Y-2246D01*
Y-2224D01*
Y-2195D01*
Y-2158D01*
Y-2107D01*
Y-2056D01*
X167374Y-1932D01*
X167367Y-1808D01*
X167352Y-1677D01*
X167337Y-1568D01*
X167330Y-1524D01*
X167315Y-1488D01*
Y-1480D01*
X167301Y-1459D01*
X167286Y-1429D01*
X167264Y-1386D01*
X167199Y-1298D01*
X167162Y-1254D01*
X167111Y-1218D01*
X167104Y-1211D01*
X167089Y-1203D01*
X167060Y-1189D01*
X167017Y-1167D01*
X166965Y-1145D01*
X166914Y-1130D01*
X166849Y-1123D01*
X166776Y-1116D01*
X166732D01*
X166689Y-1123D01*
X166630Y-1130D01*
X166557Y-1152D01*
X166484Y-1174D01*
X166404Y-1211D01*
X166324Y-1254D01*
X166317Y-1262D01*
X166295Y-1276D01*
X166258Y-1313D01*
X166215Y-1349D01*
X166171Y-1407D01*
X166127Y-1466D01*
X166083Y-1546D01*
X166054Y-1626D01*
Y-1633D01*
X166040Y-1670D01*
X166032Y-1728D01*
X166018Y-1816D01*
X166010Y-1867D01*
X166003Y-1932D01*
X165996Y-1998D01*
Y-2078D01*
X165989Y-2158D01*
X165981Y-2253D01*
Y-2355D01*
Y-2465D01*
Y-4112D01*
X165012D01*
Y-453D01*
X165909D01*
Y-992D01*
X165916Y-985D01*
X165930Y-963D01*
X165960Y-934D01*
X165996Y-897D01*
X166040Y-846D01*
X166098Y-795D01*
X166164Y-737D01*
X166236Y-679D01*
X166317Y-628D01*
X166411Y-569D01*
X166506Y-518D01*
X166616Y-467D01*
X166732Y-431D01*
X166849Y-402D01*
X166980Y-380D01*
X167111Y-372D01*
X167162D01*
X167228Y-380D01*
D02*
G37*
G36*
X131879D02*
X131930Y-387D01*
X131995Y-402D01*
X132068Y-416D01*
X132141Y-438D01*
X132229Y-460D01*
X132309Y-496D01*
X132404Y-533D01*
X132491Y-584D01*
X132586Y-642D01*
X132673Y-708D01*
X132761Y-788D01*
X132848Y-875D01*
X132856Y-883D01*
X132870Y-897D01*
X132892Y-926D01*
X132921Y-970D01*
X132950Y-1014D01*
X132987Y-1080D01*
X133031Y-1152D01*
X133074Y-1233D01*
X133111Y-1327D01*
X133154Y-1429D01*
X133191Y-1546D01*
X133227Y-1670D01*
X133249Y-1808D01*
X133271Y-1947D01*
X133286Y-2107D01*
X133293Y-2268D01*
Y-2275D01*
Y-2304D01*
Y-2355D01*
X133286Y-2421D01*
X133278Y-2494D01*
X133271Y-2581D01*
X133257Y-2683D01*
X133235Y-2785D01*
X133184Y-3019D01*
X133147Y-3135D01*
X133104Y-3252D01*
X133052Y-3368D01*
X132987Y-3478D01*
X132921Y-3587D01*
X132841Y-3689D01*
X132834Y-3697D01*
X132819Y-3711D01*
X132797Y-3733D01*
X132761Y-3770D01*
X132717Y-3806D01*
X132666Y-3850D01*
X132608Y-3893D01*
X132542Y-3937D01*
X132462Y-3988D01*
X132382Y-4032D01*
X132200Y-4112D01*
X132097Y-4149D01*
X131988Y-4170D01*
X131879Y-4185D01*
X131762Y-4192D01*
X131711D01*
X131653Y-4185D01*
X131580Y-4178D01*
X131492Y-4163D01*
X131398Y-4141D01*
X131303Y-4112D01*
X131208Y-4076D01*
X131201Y-4068D01*
X131164Y-4054D01*
X131121Y-4017D01*
X131055Y-3974D01*
X130975Y-3923D01*
X130895Y-3850D01*
X130800Y-3762D01*
X130698Y-3660D01*
Y-5512D01*
X129728D01*
Y-453D01*
X130632D01*
Y-992D01*
X130640Y-977D01*
X130661Y-948D01*
X130705Y-897D01*
X130756Y-832D01*
X130822Y-759D01*
X130909Y-686D01*
X130997Y-613D01*
X131106Y-547D01*
X131121Y-540D01*
X131157Y-518D01*
X131223Y-489D01*
X131303Y-460D01*
X131398Y-431D01*
X131514Y-402D01*
X131638Y-380D01*
X131769Y-372D01*
X131828D01*
X131879Y-380D01*
D02*
G37*
G36*
X127570D02*
X127621Y-387D01*
X127687Y-402D01*
X127760Y-416D01*
X127833Y-438D01*
X127920Y-460D01*
X128000Y-496D01*
X128095Y-533D01*
X128183Y-584D01*
X128278Y-642D01*
X128365Y-708D01*
X128453Y-788D01*
X128540Y-875D01*
X128547Y-883D01*
X128562Y-897D01*
X128584Y-926D01*
X128613Y-970D01*
X128642Y-1014D01*
X128678Y-1080D01*
X128722Y-1152D01*
X128766Y-1233D01*
X128802Y-1327D01*
X128846Y-1429D01*
X128883Y-1546D01*
X128919Y-1670D01*
X128941Y-1808D01*
X128963Y-1947D01*
X128977Y-2107D01*
X128985Y-2268D01*
Y-2275D01*
Y-2304D01*
Y-2355D01*
X128977Y-2421D01*
X128970Y-2494D01*
X128963Y-2581D01*
X128948Y-2683D01*
X128926Y-2785D01*
X128875Y-3019D01*
X128839Y-3135D01*
X128795Y-3252D01*
X128744Y-3368D01*
X128678Y-3478D01*
X128613Y-3587D01*
X128533Y-3689D01*
X128525Y-3697D01*
X128511Y-3711D01*
X128489Y-3733D01*
X128453Y-3770D01*
X128409Y-3806D01*
X128358Y-3850D01*
X128299Y-3893D01*
X128234Y-3937D01*
X128154Y-3988D01*
X128073Y-4032D01*
X127891Y-4112D01*
X127789Y-4149D01*
X127680Y-4170D01*
X127570Y-4185D01*
X127454Y-4192D01*
X127403D01*
X127344Y-4185D01*
X127271Y-4178D01*
X127184Y-4163D01*
X127089Y-4141D01*
X126995Y-4112D01*
X126900Y-4076D01*
X126892Y-4068D01*
X126856Y-4054D01*
X126812Y-4017D01*
X126747Y-3974D01*
X126666Y-3923D01*
X126586Y-3850D01*
X126491Y-3762D01*
X126389Y-3660D01*
Y-5512D01*
X125420D01*
Y-453D01*
X126324D01*
Y-992D01*
X126331Y-977D01*
X126353Y-948D01*
X126397Y-897D01*
X126448Y-832D01*
X126513Y-759D01*
X126601Y-686D01*
X126688Y-613D01*
X126798Y-547D01*
X126812Y-540D01*
X126849Y-518D01*
X126914Y-489D01*
X126995Y-460D01*
X127089Y-431D01*
X127206Y-402D01*
X127330Y-380D01*
X127461Y-372D01*
X127519D01*
X127570Y-380D01*
D02*
G37*
G36*
X106575Y-380D02*
X106648Y-387D01*
X106728Y-394D01*
X106816Y-402D01*
X106998Y-431D01*
X107180Y-474D01*
X107355Y-540D01*
X107435Y-576D01*
X107508Y-620D01*
X107516D01*
X107523Y-635D01*
X107567Y-664D01*
X107632Y-722D01*
X107705Y-802D01*
X107793Y-897D01*
X107873Y-1021D01*
X107953Y-1167D01*
X108011Y-1335D01*
X107100Y-1502D01*
Y-1495D01*
X107086Y-1466D01*
X107071Y-1429D01*
X107049Y-1386D01*
X107020Y-1327D01*
X106976Y-1276D01*
X106932Y-1225D01*
X106874Y-1182D01*
X106867Y-1174D01*
X106845Y-1160D01*
X106808Y-1145D01*
X106757Y-1123D01*
X106692Y-1101D01*
X106612Y-1080D01*
X106517Y-1072D01*
X106407Y-1065D01*
X106342D01*
X106276Y-1072D01*
X106196Y-1080D01*
X106101Y-1094D01*
X106014Y-1109D01*
X105934Y-1138D01*
X105861Y-1174D01*
X105853D01*
X105846Y-1189D01*
X105810Y-1225D01*
X105766Y-1291D01*
X105759Y-1327D01*
X105751Y-1371D01*
Y-1378D01*
Y-1386D01*
X105766Y-1429D01*
X105795Y-1488D01*
X105817Y-1517D01*
X105846Y-1546D01*
X105853Y-1553D01*
X105883Y-1561D01*
X105897Y-1575D01*
X105926Y-1582D01*
X105963Y-1597D01*
X106007Y-1619D01*
X106065Y-1633D01*
X106123Y-1655D01*
X106196Y-1677D01*
X106284Y-1699D01*
X106378Y-1728D01*
X106488Y-1757D01*
X106612Y-1787D01*
X106750Y-1823D01*
X106757D01*
X106787Y-1830D01*
X106823Y-1838D01*
X106874Y-1852D01*
X106940Y-1874D01*
X107013Y-1889D01*
X107173Y-1940D01*
X107355Y-2005D01*
X107530Y-2078D01*
X107618Y-2122D01*
X107698Y-2158D01*
X107763Y-2209D01*
X107829Y-2253D01*
X107844Y-2268D01*
X107880Y-2297D01*
X107924Y-2355D01*
X107982Y-2435D01*
X108040Y-2537D01*
X108084Y-2661D01*
X108121Y-2807D01*
X108135Y-2968D01*
Y-2975D01*
Y-2990D01*
Y-3019D01*
X108128Y-3055D01*
X108121Y-3091D01*
X108113Y-3143D01*
X108084Y-3266D01*
X108033Y-3398D01*
X107997Y-3471D01*
X107960Y-3543D01*
X107909Y-3616D01*
X107851Y-3689D01*
X107785Y-3762D01*
X107712Y-3835D01*
X107705Y-3842D01*
X107691Y-3850D01*
X107669Y-3864D01*
X107632Y-3893D01*
X107589Y-3915D01*
X107537Y-3945D01*
X107472Y-3981D01*
X107399Y-4010D01*
X107319Y-4047D01*
X107224Y-4076D01*
X107122Y-4112D01*
X107013Y-4134D01*
X106889Y-4156D01*
X106757Y-4178D01*
X106619Y-4185D01*
X106473Y-4192D01*
X106400D01*
X106349Y-4185D01*
X106284D01*
X106211Y-4178D01*
X106131Y-4171D01*
X106043Y-4156D01*
X105853Y-4119D01*
X105657Y-4068D01*
X105460Y-3996D01*
X105372Y-3945D01*
X105285Y-3893D01*
X105278Y-3886D01*
X105263Y-3879D01*
X105241Y-3864D01*
X105219Y-3835D01*
X105139Y-3770D01*
X105052Y-3675D01*
X104957Y-3558D01*
X104869Y-3420D01*
X104789Y-3252D01*
X104724Y-3070D01*
X105693Y-2924D01*
Y-2938D01*
X105708Y-2968D01*
X105722Y-3019D01*
X105744Y-3084D01*
X105781Y-3157D01*
X105824Y-3223D01*
X105875Y-3296D01*
X105941Y-3354D01*
X105948Y-3361D01*
X105977Y-3376D01*
X106021Y-3398D01*
X106079Y-3420D01*
X106152Y-3449D01*
X106247Y-3471D01*
X106349Y-3485D01*
X106473Y-3492D01*
X106531D01*
X106604Y-3485D01*
X106685Y-3478D01*
X106772Y-3463D01*
X106867Y-3434D01*
X106954Y-3405D01*
X107034Y-3361D01*
X107042Y-3354D01*
X107056Y-3339D01*
X107078Y-3317D01*
X107100Y-3288D01*
X107122Y-3252D01*
X107144Y-3208D01*
X107158Y-3157D01*
X107166Y-3099D01*
Y-3091D01*
Y-3077D01*
X107158Y-3033D01*
X107136Y-2975D01*
X107093Y-2917D01*
X107078Y-2902D01*
X107056Y-2895D01*
X107027Y-2873D01*
X106983Y-2858D01*
X106925Y-2836D01*
X106860Y-2815D01*
X106772Y-2793D01*
X106757D01*
X106721Y-2778D01*
X106663Y-2764D01*
X106582Y-2749D01*
X106488Y-2727D01*
X106386Y-2698D01*
X106269Y-2669D01*
X106145Y-2632D01*
X105890Y-2559D01*
X105766Y-2523D01*
X105649Y-2479D01*
X105540Y-2443D01*
X105438Y-2399D01*
X105350Y-2355D01*
X105285Y-2319D01*
X105278Y-2311D01*
X105263Y-2304D01*
X105248Y-2290D01*
X105219Y-2261D01*
X105146Y-2195D01*
X105073Y-2100D01*
X104993Y-1983D01*
X104920Y-1845D01*
X104891Y-1765D01*
X104877Y-1677D01*
X104862Y-1590D01*
X104855Y-1495D01*
Y-1488D01*
Y-1473D01*
Y-1451D01*
X104862Y-1415D01*
X104869Y-1378D01*
X104877Y-1327D01*
X104899Y-1218D01*
X104942Y-1094D01*
X105015Y-963D01*
X105052Y-890D01*
X105103Y-824D01*
X105161Y-759D01*
X105227Y-700D01*
X105234Y-693D01*
X105241Y-686D01*
X105263Y-671D01*
X105299Y-649D01*
X105336Y-628D01*
X105387Y-598D01*
X105445Y-569D01*
X105511Y-533D01*
X105591Y-504D01*
X105678Y-474D01*
X105773Y-445D01*
X105875Y-423D01*
X105992Y-402D01*
X106116Y-387D01*
X106247Y-372D01*
X106517D01*
X106575Y-380D01*
D02*
G37*
G36*
X181655Y-4112D02*
X180758D01*
Y-3565D01*
X180751Y-3580D01*
X180722Y-3616D01*
X180678Y-3667D01*
X180612Y-3733D01*
X180540Y-3813D01*
X180445Y-3886D01*
X180343Y-3966D01*
X180226Y-4032D01*
X180211Y-4039D01*
X180168Y-4054D01*
X180102Y-4083D01*
X180015Y-4112D01*
X179913Y-4141D01*
X179796Y-4170D01*
X179672Y-4185D01*
X179541Y-4192D01*
X179475D01*
X179410Y-4185D01*
X179322Y-4170D01*
X179213Y-4156D01*
X179103Y-4127D01*
X178987Y-4083D01*
X178877Y-4032D01*
X178863Y-4025D01*
X178834Y-4003D01*
X178775Y-3966D01*
X178717Y-3915D01*
X178644Y-3850D01*
X178578Y-3777D01*
X178513Y-3682D01*
X178455Y-3580D01*
X178447Y-3565D01*
X178433Y-3529D01*
X178411Y-3463D01*
X178389Y-3368D01*
X178367Y-3252D01*
X178345Y-3113D01*
X178331Y-2953D01*
X178323Y-2771D01*
Y-453D01*
X179293D01*
Y-2136D01*
Y-2144D01*
Y-2173D01*
Y-2209D01*
Y-2261D01*
Y-2319D01*
Y-2384D01*
X179300Y-2537D01*
X179307Y-2705D01*
X179315Y-2858D01*
X179322Y-2924D01*
X179329Y-2990D01*
X179337Y-3040D01*
X179344Y-3077D01*
Y-3084D01*
X179351Y-3106D01*
X179366Y-3135D01*
X179388Y-3179D01*
X179410Y-3223D01*
X179446Y-3266D01*
X179482Y-3310D01*
X179534Y-3354D01*
X179541Y-3361D01*
X179563Y-3368D01*
X179592Y-3383D01*
X179636Y-3398D01*
X179687Y-3420D01*
X179752Y-3434D01*
X179818Y-3441D01*
X179898Y-3449D01*
X179942D01*
X179985Y-3441D01*
X180044Y-3434D01*
X180117Y-3420D01*
X180190Y-3390D01*
X180270Y-3361D01*
X180343Y-3317D01*
X180350Y-3310D01*
X180372Y-3296D01*
X180408Y-3266D01*
X180452Y-3223D01*
X180496Y-3172D01*
X180540Y-3121D01*
X180583Y-3055D01*
X180612Y-2982D01*
Y-2975D01*
X180627Y-2938D01*
Y-2909D01*
X180634Y-2873D01*
X180642Y-2836D01*
X180649Y-2785D01*
X180656Y-2720D01*
X180663Y-2654D01*
X180671Y-2574D01*
Y-2479D01*
X180678Y-2377D01*
X180685Y-2261D01*
Y-2136D01*
Y-1998D01*
Y-453D01*
X181655D01*
Y-4112D01*
D02*
G37*
G36*
X192233Y-4112D02*
X191263D01*
Y-453D01*
X192233D01*
Y-4112D01*
D02*
G37*
G36*
X155411Y-4112D02*
X154441D01*
Y933D01*
X155411D01*
Y-4112D01*
D02*
G37*
G36*
X152109Y-380D02*
X152167D01*
X152313Y-394D01*
X152466Y-409D01*
X152626Y-438D01*
X152779Y-482D01*
X152845Y-504D01*
X152910Y-533D01*
X152918D01*
X152925Y-540D01*
X152961Y-562D01*
X153020Y-591D01*
X153085Y-635D01*
X153166Y-693D01*
X153238Y-759D01*
X153304Y-839D01*
X153362Y-919D01*
X153370Y-934D01*
X153384Y-963D01*
X153406Y-1028D01*
X153413Y-1065D01*
X153428Y-1116D01*
X153443Y-1167D01*
X153450Y-1233D01*
X153464Y-1306D01*
X153472Y-1386D01*
X153479Y-1473D01*
X153486Y-1568D01*
X153494Y-1670D01*
Y-1787D01*
X153479Y-2917D01*
Y-2924D01*
Y-2938D01*
Y-2960D01*
Y-2997D01*
Y-3084D01*
X153486Y-3186D01*
Y-3303D01*
X153501Y-3420D01*
X153508Y-3536D01*
X153523Y-3631D01*
Y-3638D01*
X153530Y-3667D01*
X153545Y-3718D01*
X153559Y-3777D01*
X153588Y-3850D01*
X153618Y-3930D01*
X153654Y-4017D01*
X153698Y-4112D01*
X152743D01*
Y-4105D01*
X152735Y-4098D01*
X152728Y-4068D01*
X152714Y-4039D01*
X152699Y-4003D01*
X152684Y-3952D01*
X152670Y-3893D01*
X152648Y-3828D01*
Y-3821D01*
X152641Y-3813D01*
X152633Y-3784D01*
X152619Y-3748D01*
X152611Y-3718D01*
X152597Y-3726D01*
X152568Y-3755D01*
X152517Y-3799D01*
X152451Y-3850D01*
X152371Y-3908D01*
X152284Y-3974D01*
X152181Y-4025D01*
X152079Y-4076D01*
X152065Y-4083D01*
X152028Y-4090D01*
X151970Y-4112D01*
X151897Y-4134D01*
X151810Y-4156D01*
X151708Y-4170D01*
X151591Y-4185D01*
X151474Y-4192D01*
X151423D01*
X151380Y-4185D01*
X151336D01*
X151277Y-4178D01*
X151154Y-4156D01*
X151008Y-4119D01*
X150862Y-4068D01*
X150716Y-3996D01*
X150585Y-3893D01*
Y-3886D01*
X150570Y-3879D01*
X150534Y-3835D01*
X150483Y-3770D01*
X150425Y-3682D01*
X150366Y-3573D01*
X150315Y-3441D01*
X150279Y-3288D01*
X150271Y-3208D01*
X150264Y-3121D01*
Y-3106D01*
Y-3070D01*
X150271Y-3011D01*
X150286Y-2938D01*
X150301Y-2851D01*
X150322Y-2764D01*
X150359Y-2669D01*
X150410Y-2574D01*
X150417Y-2559D01*
X150439Y-2530D01*
X150468Y-2486D01*
X150519Y-2435D01*
X150570Y-2377D01*
X150643Y-2311D01*
X150723Y-2253D01*
X150818Y-2202D01*
X150833Y-2195D01*
X150869Y-2180D01*
X150927Y-2158D01*
X151015Y-2122D01*
X151124Y-2086D01*
X151256Y-2049D01*
X151416Y-2013D01*
X151591Y-1976D01*
X151598D01*
X151620Y-1969D01*
X151656Y-1962D01*
X151700Y-1954D01*
X151759Y-1947D01*
X151824Y-1932D01*
X151970Y-1896D01*
X152123Y-1860D01*
X152284Y-1823D01*
X152422Y-1779D01*
X152488Y-1757D01*
X152539Y-1736D01*
Y-1641D01*
Y-1626D01*
Y-1597D01*
X152531Y-1546D01*
X152524Y-1480D01*
X152502Y-1415D01*
X152480Y-1349D01*
X152444Y-1291D01*
X152393Y-1240D01*
X152385Y-1233D01*
X152364Y-1218D01*
X152327Y-1203D01*
X152276Y-1174D01*
X152203Y-1152D01*
X152116Y-1138D01*
X152006Y-1123D01*
X151875Y-1116D01*
X151831D01*
X151788Y-1123D01*
X151729Y-1130D01*
X151664Y-1145D01*
X151591Y-1160D01*
X151525Y-1189D01*
X151467Y-1225D01*
X151460Y-1233D01*
X151445Y-1247D01*
X151416Y-1269D01*
X151387Y-1306D01*
X151343Y-1357D01*
X151307Y-1422D01*
X151270Y-1495D01*
X151234Y-1582D01*
X150366Y-1422D01*
Y-1415D01*
X150373Y-1400D01*
X150381Y-1371D01*
X150395Y-1335D01*
X150410Y-1291D01*
X150432Y-1240D01*
X150483Y-1123D01*
X150556Y-999D01*
X150643Y-868D01*
X150745Y-744D01*
X150869Y-635D01*
X150876D01*
X150884Y-620D01*
X150906Y-613D01*
X150935Y-591D01*
X150979Y-576D01*
X151022Y-555D01*
X151081Y-525D01*
X151139Y-504D01*
X151212Y-482D01*
X151292Y-453D01*
X151380Y-431D01*
X151482Y-416D01*
X151584Y-394D01*
X151700Y-387D01*
X151817Y-372D01*
X152058D01*
X152109Y-380D01*
D02*
G37*
G36*
X147173Y-934D02*
X147180Y-926D01*
X147195Y-912D01*
X147224Y-883D01*
X147253Y-846D01*
X147304Y-802D01*
X147355Y-759D01*
X147421Y-708D01*
X147487Y-649D01*
X147567Y-598D01*
X147654Y-547D01*
X147844Y-460D01*
X147946Y-423D01*
X148055Y-394D01*
X148172Y-380D01*
X148289Y-372D01*
X148347D01*
X148413Y-380D01*
X148493Y-387D01*
X148587Y-402D01*
X148682Y-431D01*
X148792Y-460D01*
X148894Y-504D01*
X148908Y-511D01*
X148937Y-525D01*
X148988Y-555D01*
X149047Y-591D01*
X149112Y-635D01*
X149178Y-686D01*
X149243Y-751D01*
X149302Y-817D01*
X149309Y-824D01*
X149324Y-853D01*
X149346Y-890D01*
X149375Y-941D01*
X149411Y-1007D01*
X149440Y-1080D01*
X149469Y-1160D01*
X149491Y-1247D01*
Y-1254D01*
X149499Y-1291D01*
X149506Y-1349D01*
X149521Y-1422D01*
X149528Y-1524D01*
X149535Y-1648D01*
X149542Y-1794D01*
Y-1969D01*
Y-4112D01*
X148573D01*
Y-2188D01*
Y-2180D01*
Y-2166D01*
Y-2136D01*
Y-2093D01*
Y-2049D01*
Y-1998D01*
X148566Y-1881D01*
X148558Y-1757D01*
X148551Y-1633D01*
X148536Y-1531D01*
X148522Y-1495D01*
X148514Y-1459D01*
Y-1451D01*
X148500Y-1429D01*
X148485Y-1407D01*
X148471Y-1371D01*
X148405Y-1291D01*
X148369Y-1247D01*
X148318Y-1211D01*
X148310Y-1203D01*
X148296Y-1196D01*
X148259Y-1182D01*
X148223Y-1160D01*
X148172Y-1145D01*
X148114Y-1130D01*
X148041Y-1123D01*
X147968Y-1116D01*
X147924D01*
X147880Y-1123D01*
X147822Y-1130D01*
X147756Y-1145D01*
X147684Y-1167D01*
X147611Y-1196D01*
X147538Y-1240D01*
X147530Y-1247D01*
X147509Y-1262D01*
X147472Y-1291D01*
X147436Y-1327D01*
X147385Y-1378D01*
X147341Y-1437D01*
X147297Y-1510D01*
X147261Y-1590D01*
Y-1597D01*
X147246Y-1633D01*
X147231Y-1685D01*
X147217Y-1765D01*
X147202Y-1860D01*
X147188Y-1983D01*
X147180Y-2122D01*
X147173Y-2282D01*
Y-4112D01*
X146204D01*
Y933D01*
X147173D01*
Y-934D01*
D02*
G37*
G36*
X137609Y-380D02*
X137667D01*
X137813Y-394D01*
X137966Y-409D01*
X138126Y-438D01*
X138279Y-482D01*
X138345Y-504D01*
X138411Y-533D01*
X138418D01*
X138425Y-540D01*
X138462Y-562D01*
X138520Y-591D01*
X138586Y-635D01*
X138666Y-693D01*
X138739Y-759D01*
X138804Y-839D01*
X138863Y-919D01*
X138870Y-934D01*
X138884Y-963D01*
X138906Y-1028D01*
X138914Y-1065D01*
X138928Y-1116D01*
X138943Y-1167D01*
X138950Y-1233D01*
X138965Y-1306D01*
X138972Y-1386D01*
X138979Y-1473D01*
X138987Y-1568D01*
X138994Y-1670D01*
Y-1787D01*
X138979Y-2917D01*
Y-2924D01*
Y-2938D01*
Y-2960D01*
Y-2997D01*
Y-3084D01*
X138987Y-3186D01*
Y-3303D01*
X139001Y-3420D01*
X139008Y-3536D01*
X139023Y-3631D01*
Y-3638D01*
X139030Y-3667D01*
X139045Y-3718D01*
X139059Y-3777D01*
X139089Y-3850D01*
X139118Y-3930D01*
X139154Y-4017D01*
X139198Y-4112D01*
X138243D01*
Y-4105D01*
X138236Y-4098D01*
X138228Y-4068D01*
X138214Y-4039D01*
X138199Y-4003D01*
X138185Y-3952D01*
X138170Y-3893D01*
X138148Y-3828D01*
Y-3821D01*
X138141Y-3813D01*
X138134Y-3784D01*
X138119Y-3748D01*
X138112Y-3718D01*
X138097Y-3726D01*
X138068Y-3755D01*
X138017Y-3799D01*
X137951Y-3850D01*
X137871Y-3908D01*
X137784Y-3974D01*
X137682Y-4025D01*
X137580Y-4076D01*
X137565Y-4083D01*
X137529Y-4090D01*
X137470Y-4112D01*
X137397Y-4134D01*
X137310Y-4156D01*
X137208Y-4170D01*
X137091Y-4185D01*
X136975Y-4192D01*
X136923D01*
X136880Y-4185D01*
X136836D01*
X136778Y-4178D01*
X136654Y-4156D01*
X136508Y-4119D01*
X136362Y-4068D01*
X136216Y-3996D01*
X136085Y-3893D01*
Y-3886D01*
X136071Y-3879D01*
X136034Y-3835D01*
X135983Y-3770D01*
X135925Y-3682D01*
X135866Y-3573D01*
X135815Y-3441D01*
X135779Y-3288D01*
X135772Y-3208D01*
X135764Y-3121D01*
Y-3106D01*
Y-3070D01*
X135772Y-3011D01*
X135786Y-2938D01*
X135801Y-2851D01*
X135823Y-2764D01*
X135859Y-2669D01*
X135910Y-2574D01*
X135917Y-2559D01*
X135939Y-2530D01*
X135968Y-2486D01*
X136020Y-2435D01*
X136071Y-2377D01*
X136143Y-2311D01*
X136224Y-2253D01*
X136318Y-2202D01*
X136333Y-2195D01*
X136369Y-2180D01*
X136428Y-2158D01*
X136515Y-2122D01*
X136625Y-2086D01*
X136756Y-2049D01*
X136916Y-2013D01*
X137091Y-1976D01*
X137098D01*
X137120Y-1969D01*
X137157Y-1962D01*
X137200Y-1954D01*
X137259Y-1947D01*
X137324Y-1932D01*
X137470Y-1896D01*
X137623Y-1860D01*
X137784Y-1823D01*
X137922Y-1779D01*
X137988Y-1757D01*
X138039Y-1736D01*
Y-1641D01*
Y-1626D01*
Y-1597D01*
X138031Y-1546D01*
X138024Y-1480D01*
X138002Y-1415D01*
X137980Y-1349D01*
X137944Y-1291D01*
X137893Y-1240D01*
X137886Y-1233D01*
X137864Y-1218D01*
X137827Y-1203D01*
X137776Y-1174D01*
X137704Y-1152D01*
X137616Y-1138D01*
X137507Y-1123D01*
X137375Y-1116D01*
X137332D01*
X137288Y-1123D01*
X137230Y-1130D01*
X137164Y-1145D01*
X137091Y-1160D01*
X137025Y-1189D01*
X136967Y-1225D01*
X136960Y-1233D01*
X136945Y-1247D01*
X136916Y-1269D01*
X136887Y-1306D01*
X136843Y-1357D01*
X136807Y-1422D01*
X136770Y-1495D01*
X136734Y-1582D01*
X135866Y-1422D01*
Y-1415D01*
X135874Y-1400D01*
X135881Y-1371D01*
X135896Y-1335D01*
X135910Y-1291D01*
X135932Y-1240D01*
X135983Y-1123D01*
X136056Y-999D01*
X136143Y-868D01*
X136246Y-744D01*
X136369Y-635D01*
X136377D01*
X136384Y-620D01*
X136406Y-613D01*
X136435Y-591D01*
X136479Y-576D01*
X136522Y-555D01*
X136581Y-525D01*
X136639Y-504D01*
X136712Y-482D01*
X136792Y-453D01*
X136880Y-431D01*
X136982Y-416D01*
X137084Y-394D01*
X137200Y-387D01*
X137317Y-372D01*
X137558D01*
X137609Y-380D01*
D02*
G37*
G36*
X135028Y-4112D02*
X134058D01*
Y933D01*
X135028D01*
Y-4112D01*
D02*
G37*
G36*
X118152Y-1743D02*
X119282Y-453D01*
X120470D01*
X119216Y-1794D01*
X120557Y-4112D01*
X119515D01*
X118589Y-2472D01*
X118152Y-2946D01*
Y-4112D01*
X117182D01*
Y933D01*
X118152D01*
Y-1743D01*
D02*
G37*
G36*
X109921D02*
X111051Y-453D01*
X112240D01*
X110986Y-1794D01*
X112327Y-4112D01*
X111284D01*
X110359Y-2472D01*
X109921Y-2946D01*
Y-4112D01*
X108952D01*
Y933D01*
X109921D01*
Y-1743D01*
D02*
G37*
G36*
X104067Y-4112D02*
X103098D01*
Y-453D01*
X104067D01*
Y-4112D01*
D02*
G37*
G36*
X99526Y80D02*
X97084D01*
Y-1116D01*
X99190D01*
Y-1969D01*
X97084D01*
Y-4112D01*
X96063D01*
Y933D01*
X99526D01*
Y80D01*
D02*
G37*
G36*
X194245Y-453D02*
X194908D01*
Y-1225D01*
X194245D01*
Y-2705D01*
Y-2712D01*
Y-2727D01*
Y-2749D01*
Y-2778D01*
Y-2851D01*
Y-2938D01*
X194252Y-3026D01*
Y-3113D01*
Y-3179D01*
X194259Y-3208D01*
Y-3223D01*
X194267Y-3237D01*
X194281Y-3266D01*
X194303Y-3303D01*
X194347Y-3347D01*
X194361Y-3354D01*
X194390Y-3368D01*
X194441Y-3383D01*
X194507Y-3390D01*
X194536D01*
X194565Y-3383D01*
X194609Y-3376D01*
X194667Y-3368D01*
X194733Y-3354D01*
X194813Y-3332D01*
X194901Y-3303D01*
X194988Y-4054D01*
X194981D01*
X194974Y-4061D01*
X194930Y-4076D01*
X194857Y-4098D01*
X194762Y-4119D01*
X194653Y-4149D01*
X194522Y-4170D01*
X194376Y-4185D01*
X194223Y-4192D01*
X194179D01*
X194128Y-4185D01*
X194062Y-4178D01*
X193990Y-4170D01*
X193909Y-4156D01*
X193829Y-4134D01*
X193749Y-4105D01*
X193742Y-4098D01*
X193712Y-4090D01*
X193676Y-4068D01*
X193632Y-4047D01*
X193530Y-3974D01*
X193479Y-3930D01*
X193436Y-3879D01*
X193428Y-3872D01*
X193421Y-3850D01*
X193406Y-3821D01*
X193385Y-3777D01*
X193363Y-3726D01*
X193341Y-3660D01*
X193319Y-3587D01*
X193304Y-3507D01*
Y-3500D01*
X193297Y-3471D01*
Y-3427D01*
X193290Y-3354D01*
X193282Y-3259D01*
Y-3142D01*
X193275Y-3077D01*
Y-2997D01*
Y-2917D01*
Y-2822D01*
Y-1225D01*
X192830D01*
Y-453D01*
X193275D01*
Y277D01*
X194245Y845D01*
Y-453D01*
D02*
G37*
G36*
X172222Y-883D02*
X172229Y-875D01*
X172243Y-861D01*
X172265Y-839D01*
X172302Y-802D01*
X172346Y-766D01*
X172397Y-722D01*
X172455Y-671D01*
X172520Y-628D01*
X172674Y-533D01*
X172856Y-453D01*
X172951Y-416D01*
X173060Y-394D01*
X173169Y-380D01*
X173279Y-372D01*
X173344D01*
X173388Y-380D01*
X173446Y-387D01*
X173512Y-402D01*
X173585Y-416D01*
X173672Y-431D01*
X173847Y-489D01*
X173935Y-533D01*
X174030Y-576D01*
X174124Y-635D01*
X174212Y-700D01*
X174299Y-773D01*
X174387Y-861D01*
X174394Y-868D01*
X174409Y-883D01*
X174431Y-912D01*
X174460Y-948D01*
X174489Y-999D01*
X174525Y-1058D01*
X174569Y-1130D01*
X174613Y-1211D01*
X174649Y-1306D01*
X174693Y-1407D01*
X174729Y-1524D01*
X174766Y-1648D01*
X174788Y-1779D01*
X174810Y-1925D01*
X174824Y-2078D01*
X174831Y-2246D01*
Y-2253D01*
Y-2290D01*
Y-2333D01*
X174824Y-2399D01*
X174817Y-2479D01*
X174810Y-2567D01*
X174795Y-2669D01*
X174773Y-2778D01*
X174722Y-3011D01*
X174686Y-3128D01*
X174642Y-3252D01*
X174591Y-3368D01*
X174525Y-3485D01*
X174460Y-3587D01*
X174380Y-3689D01*
X174372Y-3697D01*
X174358Y-3711D01*
X174336Y-3733D01*
X174299Y-3770D01*
X174256Y-3806D01*
X174205Y-3850D01*
X174146Y-3893D01*
X174081Y-3937D01*
X174000Y-3988D01*
X173920Y-4032D01*
X173731Y-4112D01*
X173629Y-4149D01*
X173527Y-4170D01*
X173410Y-4185D01*
X173293Y-4192D01*
X173242D01*
X173177Y-4185D01*
X173096Y-4170D01*
X173002Y-4156D01*
X172900Y-4127D01*
X172790Y-4090D01*
X172674Y-4039D01*
X172659Y-4032D01*
X172623Y-4010D01*
X172564Y-3974D01*
X172491Y-3923D01*
X172411Y-3857D01*
X172324Y-3784D01*
X172236Y-3689D01*
X172149Y-3580D01*
Y-4112D01*
X171252D01*
Y933D01*
X172222D01*
Y-883D01*
D02*
G37*
G36*
X162628Y-380D02*
X162694Y-387D01*
X162774Y-402D01*
X162861Y-416D01*
X162956Y-438D01*
X163058Y-467D01*
X163160Y-504D01*
X163269Y-547D01*
X163379Y-606D01*
X163481Y-664D01*
X163583Y-737D01*
X163685Y-824D01*
X163772Y-919D01*
X163780Y-926D01*
X163794Y-941D01*
X163816Y-977D01*
X163845Y-1021D01*
X163882Y-1080D01*
X163918Y-1145D01*
X163962Y-1233D01*
X164006Y-1327D01*
X164049Y-1437D01*
X164093Y-1561D01*
X164130Y-1692D01*
X164166Y-1845D01*
X164195Y-2005D01*
X164217Y-2180D01*
X164232Y-2362D01*
Y-2567D01*
X161811D01*
Y-2574D01*
Y-2589D01*
Y-2610D01*
X161819Y-2640D01*
X161826Y-2712D01*
X161841Y-2815D01*
X161870Y-2917D01*
X161914Y-3033D01*
X161965Y-3142D01*
X162038Y-3237D01*
X162045Y-3245D01*
X162081Y-3274D01*
X162125Y-3310D01*
X162191Y-3354D01*
X162271Y-3398D01*
X162373Y-3434D01*
X162482Y-3463D01*
X162599Y-3471D01*
X162635D01*
X162679Y-3463D01*
X162730Y-3456D01*
X162788Y-3441D01*
X162854Y-3420D01*
X162920Y-3390D01*
X162978Y-3347D01*
X162985Y-3339D01*
X163007Y-3325D01*
X163036Y-3296D01*
X163065Y-3252D01*
X163109Y-3194D01*
X163146Y-3128D01*
X163182Y-3040D01*
X163218Y-2946D01*
X164181Y-3106D01*
Y-3113D01*
X164173Y-3128D01*
X164159Y-3157D01*
X164144Y-3194D01*
X164122Y-3237D01*
X164101Y-3288D01*
X164035Y-3405D01*
X163955Y-3536D01*
X163853Y-3675D01*
X163729Y-3799D01*
X163590Y-3915D01*
X163583D01*
X163576Y-3930D01*
X163547Y-3937D01*
X163517Y-3959D01*
X163481Y-3981D01*
X163430Y-4003D01*
X163379Y-4025D01*
X163313Y-4054D01*
X163167Y-4105D01*
X163000Y-4149D01*
X162803Y-4178D01*
X162592Y-4192D01*
X162548D01*
X162504Y-4185D01*
X162438D01*
X162358Y-4170D01*
X162264Y-4156D01*
X162161Y-4141D01*
X162059Y-4112D01*
X161943Y-4083D01*
X161826Y-4039D01*
X161709Y-3988D01*
X161593Y-3930D01*
X161476Y-3857D01*
X161367Y-3777D01*
X161272Y-3682D01*
X161177Y-3573D01*
X161170Y-3565D01*
X161163Y-3551D01*
X161148Y-3522D01*
X161119Y-3485D01*
X161097Y-3434D01*
X161068Y-3376D01*
X161031Y-3310D01*
X161002Y-3230D01*
X160966Y-3142D01*
X160937Y-3048D01*
X160900Y-2946D01*
X160878Y-2829D01*
X160856Y-2712D01*
X160835Y-2589D01*
X160827Y-2450D01*
X160820Y-2311D01*
Y-2304D01*
Y-2275D01*
Y-2224D01*
X160827Y-2158D01*
X160835Y-2086D01*
X160842Y-1998D01*
X160856Y-1903D01*
X160878Y-1794D01*
X160937Y-1568D01*
X160973Y-1451D01*
X161017Y-1327D01*
X161075Y-1211D01*
X161141Y-1101D01*
X161214Y-992D01*
X161294Y-890D01*
X161301Y-883D01*
X161316Y-868D01*
X161345Y-839D01*
X161381Y-810D01*
X161425Y-773D01*
X161483Y-730D01*
X161549Y-679D01*
X161622Y-628D01*
X161702Y-584D01*
X161797Y-533D01*
X161892Y-489D01*
X162001Y-453D01*
X162110Y-423D01*
X162234Y-394D01*
X162358Y-380D01*
X162489Y-372D01*
X162570D01*
X162628Y-380D01*
D02*
G37*
G36*
X159770Y-453D02*
X160434D01*
Y-1225D01*
X159770D01*
Y-2705D01*
Y-2712D01*
Y-2727D01*
Y-2749D01*
Y-2778D01*
Y-2851D01*
Y-2938D01*
X159778Y-3026D01*
Y-3113D01*
Y-3179D01*
X159785Y-3208D01*
Y-3223D01*
X159792Y-3237D01*
X159807Y-3266D01*
X159829Y-3303D01*
X159872Y-3347D01*
X159887Y-3354D01*
X159916Y-3368D01*
X159967Y-3383D01*
X160033Y-3390D01*
X160062D01*
X160091Y-3383D01*
X160135Y-3376D01*
X160193Y-3368D01*
X160259Y-3354D01*
X160339Y-3332D01*
X160426Y-3303D01*
X160514Y-4054D01*
X160507D01*
X160499Y-4061D01*
X160456Y-4076D01*
X160383Y-4098D01*
X160288Y-4119D01*
X160178Y-4149D01*
X160047Y-4170D01*
X159901Y-4185D01*
X159748Y-4192D01*
X159705D01*
X159654Y-4185D01*
X159588Y-4178D01*
X159515Y-4170D01*
X159435Y-4156D01*
X159355Y-4134D01*
X159275Y-4105D01*
X159267Y-4098D01*
X159238Y-4090D01*
X159202Y-4068D01*
X159158Y-4047D01*
X159056Y-3974D01*
X159005Y-3930D01*
X158961Y-3879D01*
X158954Y-3872D01*
X158947Y-3850D01*
X158932Y-3821D01*
X158910Y-3777D01*
X158888Y-3726D01*
X158866Y-3660D01*
X158844Y-3587D01*
X158830Y-3507D01*
Y-3500D01*
X158823Y-3471D01*
Y-3427D01*
X158815Y-3354D01*
X158808Y-3259D01*
Y-3142D01*
X158801Y-3077D01*
Y-2997D01*
Y-2917D01*
Y-2822D01*
Y-1225D01*
X158356D01*
Y-453D01*
X158801D01*
Y277D01*
X159770Y845D01*
Y-453D01*
D02*
G37*
G36*
X140962D02*
X141625D01*
Y-1225D01*
X140962D01*
Y-2705D01*
Y-2712D01*
Y-2727D01*
Y-2749D01*
Y-2778D01*
Y-2851D01*
Y-2938D01*
X140969Y-3026D01*
Y-3113D01*
Y-3179D01*
X140977Y-3208D01*
Y-3223D01*
X140984Y-3237D01*
X140999Y-3266D01*
X141020Y-3303D01*
X141064Y-3347D01*
X141079Y-3354D01*
X141108Y-3368D01*
X141159Y-3383D01*
X141225Y-3390D01*
X141254D01*
X141283Y-3383D01*
X141327Y-3376D01*
X141385Y-3368D01*
X141451Y-3354D01*
X141531Y-3332D01*
X141618Y-3303D01*
X141706Y-4054D01*
X141698D01*
X141691Y-4061D01*
X141647Y-4076D01*
X141575Y-4098D01*
X141480Y-4119D01*
X141370Y-4149D01*
X141239Y-4170D01*
X141093Y-4185D01*
X140940Y-4192D01*
X140896D01*
X140846Y-4185D01*
X140780Y-4178D01*
X140707Y-4170D01*
X140627Y-4156D01*
X140547Y-4134D01*
X140466Y-4105D01*
X140459Y-4098D01*
X140430Y-4090D01*
X140393Y-4068D01*
X140350Y-4047D01*
X140248Y-3974D01*
X140197Y-3930D01*
X140153Y-3879D01*
X140146Y-3872D01*
X140138Y-3850D01*
X140124Y-3821D01*
X140102Y-3777D01*
X140080Y-3726D01*
X140058Y-3660D01*
X140036Y-3587D01*
X140022Y-3507D01*
Y-3500D01*
X140014Y-3471D01*
Y-3427D01*
X140007Y-3354D01*
X140000Y-3259D01*
Y-3142D01*
X139992Y-3077D01*
Y-2997D01*
Y-2917D01*
Y-2822D01*
Y-1225D01*
X139548D01*
Y-453D01*
X139992D01*
Y277D01*
X140962Y845D01*
Y-453D01*
D02*
G37*
G36*
X122934Y-380D02*
X123007Y-387D01*
X123087Y-402D01*
X123182Y-416D01*
X123277Y-438D01*
X123386Y-467D01*
X123495Y-504D01*
X123605Y-547D01*
X123721Y-598D01*
X123838Y-664D01*
X123947Y-737D01*
X124057Y-817D01*
X124159Y-912D01*
X124166Y-919D01*
X124180Y-934D01*
X124210Y-970D01*
X124239Y-1007D01*
X124283Y-1065D01*
X124326Y-1123D01*
X124377Y-1203D01*
X124428Y-1284D01*
X124472Y-1378D01*
X124523Y-1480D01*
X124567Y-1597D01*
X124611Y-1714D01*
X124640Y-1845D01*
X124669Y-1976D01*
X124683Y-2122D01*
X124691Y-2275D01*
Y-2282D01*
Y-2311D01*
Y-2355D01*
X124683Y-2414D01*
X124676Y-2486D01*
X124662Y-2567D01*
X124647Y-2661D01*
X124625Y-2756D01*
X124596Y-2866D01*
X124560Y-2975D01*
X124516Y-3091D01*
X124465Y-3208D01*
X124399Y-3325D01*
X124326Y-3434D01*
X124246Y-3543D01*
X124151Y-3653D01*
X124144Y-3660D01*
X124129Y-3675D01*
X124100Y-3704D01*
X124057Y-3740D01*
X124006Y-3777D01*
X123940Y-3821D01*
X123867Y-3872D01*
X123787Y-3923D01*
X123692Y-3974D01*
X123590Y-4025D01*
X123481Y-4068D01*
X123357Y-4105D01*
X123233Y-4141D01*
X123094Y-4171D01*
X122956Y-4185D01*
X122803Y-4192D01*
X122752D01*
X122715Y-4185D01*
X122671D01*
X122620Y-4178D01*
X122496Y-4163D01*
X122343Y-4134D01*
X122183Y-4098D01*
X122015Y-4039D01*
X121840Y-3966D01*
X121833D01*
X121819Y-3959D01*
X121797Y-3945D01*
X121767Y-3923D01*
X121687Y-3872D01*
X121585Y-3799D01*
X121476Y-3704D01*
X121359Y-3587D01*
X121250Y-3456D01*
X121148Y-3303D01*
Y-3296D01*
X121141Y-3281D01*
X121126Y-3259D01*
X121111Y-3223D01*
X121097Y-3179D01*
X121075Y-3128D01*
X121053Y-3070D01*
X121031Y-3004D01*
X121009Y-2931D01*
X120987Y-2851D01*
X120951Y-2669D01*
X120922Y-2457D01*
X120915Y-2231D01*
Y-2224D01*
Y-2209D01*
Y-2180D01*
X120922Y-2151D01*
Y-2107D01*
X120929Y-2056D01*
X120944Y-1932D01*
X120973Y-1794D01*
X121017Y-1641D01*
X121068Y-1473D01*
X121148Y-1306D01*
Y-1298D01*
X121162Y-1284D01*
X121170Y-1262D01*
X121192Y-1233D01*
X121250Y-1152D01*
X121323Y-1050D01*
X121418Y-941D01*
X121534Y-824D01*
X121666Y-715D01*
X121819Y-613D01*
X121826D01*
X121840Y-606D01*
X121862Y-591D01*
X121899Y-576D01*
X121935Y-555D01*
X121986Y-540D01*
X122045Y-518D01*
X122103Y-489D01*
X122249Y-445D01*
X122416Y-409D01*
X122599Y-380D01*
X122795Y-372D01*
X122876D01*
X122934Y-380D01*
D02*
G37*
G36*
X113924Y-453D02*
X114587D01*
Y-1225D01*
X113924D01*
Y-2705D01*
Y-2712D01*
Y-2727D01*
Y-2749D01*
Y-2778D01*
Y-2851D01*
Y-2938D01*
X113931Y-3026D01*
Y-3113D01*
Y-3179D01*
X113938Y-3208D01*
Y-3223D01*
X113945Y-3237D01*
X113960Y-3266D01*
X113982Y-3303D01*
X114025Y-3347D01*
X114040Y-3354D01*
X114069Y-3368D01*
X114120Y-3383D01*
X114186Y-3390D01*
X114215D01*
X114244Y-3383D01*
X114288Y-3376D01*
X114346Y-3368D01*
X114412Y-3354D01*
X114492Y-3332D01*
X114580Y-3303D01*
X114667Y-4054D01*
X114660D01*
X114653Y-4061D01*
X114609Y-4076D01*
X114536Y-4098D01*
X114441Y-4119D01*
X114332Y-4149D01*
X114200Y-4171D01*
X114055Y-4185D01*
X113902Y-4192D01*
X113858D01*
X113807Y-4185D01*
X113741Y-4178D01*
X113668Y-4171D01*
X113588Y-4156D01*
X113508Y-4134D01*
X113428Y-4105D01*
X113420Y-4098D01*
X113391Y-4090D01*
X113355Y-4068D01*
X113311Y-4047D01*
X113209Y-3974D01*
X113158Y-3930D01*
X113114Y-3879D01*
X113107Y-3872D01*
X113100Y-3850D01*
X113085Y-3821D01*
X113063Y-3777D01*
X113041Y-3726D01*
X113020Y-3660D01*
X112998Y-3587D01*
X112983Y-3507D01*
Y-3500D01*
X112976Y-3471D01*
Y-3427D01*
X112969Y-3354D01*
X112961Y-3259D01*
Y-3143D01*
X112954Y-3077D01*
Y-2997D01*
Y-2917D01*
Y-2822D01*
Y-1225D01*
X112509D01*
Y-453D01*
X112954D01*
Y276D01*
X113924Y845D01*
Y-453D01*
D02*
G37*
G36*
X143237Y-3835D02*
Y-3842D01*
Y-3850D01*
Y-3872D01*
Y-3901D01*
Y-3981D01*
X143229Y-4076D01*
X143222Y-4178D01*
X143207Y-4287D01*
X143185Y-4396D01*
X143164Y-4491D01*
Y-4499D01*
X143149Y-4535D01*
X143127Y-4579D01*
X143105Y-4637D01*
X143062Y-4710D01*
X143018Y-4783D01*
X142960Y-4856D01*
X142887Y-4929D01*
X142879Y-4936D01*
X142850Y-4958D01*
X142806Y-4994D01*
X142748Y-5038D01*
X142675Y-5089D01*
X142588Y-5140D01*
X142486Y-5191D01*
X142376Y-5235D01*
X142187Y-4834D01*
X142201Y-4826D01*
X142238Y-4812D01*
X142289Y-4790D01*
X142347Y-4761D01*
X142420Y-4724D01*
X142486Y-4673D01*
X142551Y-4622D01*
X142602Y-4564D01*
X142610Y-4557D01*
X142624Y-4535D01*
X142646Y-4499D01*
X142668Y-4448D01*
X142697Y-4382D01*
X142719Y-4302D01*
X142734Y-4214D01*
X142741Y-4112D01*
X142267D01*
Y-3142D01*
X143237D01*
Y-3835D01*
D02*
G37*
G36*
X-9017Y11580D02*
X-7028D01*
Y10224D01*
X-9017D01*
Y8268D01*
X-10340D01*
Y10224D01*
X-12318D01*
Y11580D01*
X-10340D01*
Y13536D01*
X-9017D01*
Y11580D01*
D02*
G37*
G36*
X109200Y15032D02*
X107261D01*
Y16826D01*
X109200D01*
Y15032D01*
D02*
G37*
G36*
X154252Y17700D02*
X154383Y17671D01*
X154543Y17613D01*
X154689Y17540D01*
X154850Y17438D01*
X155010Y17307D01*
X155025Y17292D01*
X155068Y17234D01*
X155141Y17146D01*
X155214Y17044D01*
X155287Y16899D01*
X155360Y16738D01*
X155404Y16563D01*
X155418Y16359D01*
Y16330D01*
Y16272D01*
X155404Y16155D01*
X155375Y16024D01*
X155316Y15878D01*
X155243Y15718D01*
X155141Y15557D01*
X155010Y15397D01*
X154995Y15382D01*
X154937Y15339D01*
X154850Y15266D01*
X154748Y15207D01*
X154602Y15134D01*
X154441Y15062D01*
X154266Y15018D01*
X154062Y15003D01*
X153975D01*
X153858Y15018D01*
X153727Y15047D01*
X153581Y15105D01*
X153421Y15164D01*
X153260Y15266D01*
X153100Y15397D01*
X153085Y15412D01*
X153042Y15470D01*
X152969Y15557D01*
X152910Y15659D01*
X152838Y15805D01*
X152765Y15966D01*
X152721Y16155D01*
X152706Y16359D01*
Y16388D01*
Y16447D01*
X152721Y16549D01*
X152750Y16680D01*
X152808Y16840D01*
X152867Y16986D01*
X152969Y17146D01*
X153100Y17307D01*
X153115Y17322D01*
X153173Y17365D01*
X153260Y17438D01*
X153363Y17511D01*
X153508Y17584D01*
X153669Y17657D01*
X153858Y17700D01*
X154062Y17715D01*
X154150D01*
X154252Y17700D01*
D02*
G37*
G36*
X146816Y14201D02*
X146918Y14187D01*
X147049Y14158D01*
X147195Y14128D01*
X147341Y14085D01*
X147516Y14041D01*
X147676Y13968D01*
X147866Y13895D01*
X148041Y13793D01*
X148230Y13677D01*
X148405Y13545D01*
X148580Y13385D01*
X148755Y13210D01*
X148770Y13195D01*
X148799Y13166D01*
X148843Y13108D01*
X148901Y13020D01*
X148959Y12933D01*
X149032Y12802D01*
X149120Y12656D01*
X149207Y12495D01*
X149280Y12306D01*
X149368Y12102D01*
X149441Y11868D01*
X149513Y11621D01*
X149557Y11344D01*
X149601Y11067D01*
X149630Y10746D01*
X149645Y10425D01*
Y10411D01*
Y10352D01*
Y10250D01*
X149630Y10119D01*
X149615Y9973D01*
X149601Y9798D01*
X149572Y9594D01*
X149528Y9390D01*
X149426Y8923D01*
X149353Y8690D01*
X149266Y8457D01*
X149163Y8224D01*
X149032Y8005D01*
X148901Y7786D01*
X148741Y7582D01*
X148726Y7567D01*
X148697Y7538D01*
X148653Y7495D01*
X148580Y7422D01*
X148493Y7349D01*
X148391Y7261D01*
X148274Y7174D01*
X148143Y7086D01*
X147982Y6984D01*
X147822Y6897D01*
X147458Y6736D01*
X147253Y6663D01*
X147035Y6620D01*
X146816Y6591D01*
X146583Y6576D01*
X146481D01*
X146364Y6591D01*
X146218Y6605D01*
X146043Y6634D01*
X145854Y6678D01*
X145664Y6736D01*
X145475Y6809D01*
X145460Y6824D01*
X145387Y6853D01*
X145300Y6926D01*
X145168Y7013D01*
X145008Y7115D01*
X144848Y7261D01*
X144658Y7436D01*
X144454Y7640D01*
Y3937D01*
X142515D01*
Y14055D01*
X144323D01*
Y12977D01*
X144337Y13006D01*
X144381Y13064D01*
X144469Y13166D01*
X144571Y13297D01*
X144702Y13443D01*
X144877Y13589D01*
X145052Y13735D01*
X145271Y13866D01*
X145300Y13881D01*
X145373Y13924D01*
X145504Y13983D01*
X145664Y14041D01*
X145854Y14099D01*
X146087Y14158D01*
X146335Y14201D01*
X146597Y14216D01*
X146714D01*
X146816Y14201D01*
D02*
G37*
G36*
X188267Y6736D02*
X186226D01*
Y11154D01*
X182246Y11154D01*
Y6736D01*
X180204D01*
Y16826D01*
X182246D01*
Y12860D01*
X186226Y12860D01*
Y16826D01*
X188267D01*
Y6736D01*
D02*
G37*
G36*
X133825Y14201D02*
X133971Y14187D01*
X134131Y14172D01*
X134306Y14158D01*
X134671Y14099D01*
X135035Y14012D01*
X135385Y13881D01*
X135546Y13808D01*
X135691Y13720D01*
X135706D01*
X135721Y13691D01*
X135808Y13633D01*
X135939Y13516D01*
X136085Y13356D01*
X136260Y13166D01*
X136421Y12918D01*
X136581Y12627D01*
X136697Y12291D01*
X134875Y11956D01*
Y11971D01*
X134846Y12029D01*
X134817Y12102D01*
X134773Y12189D01*
X134715Y12306D01*
X134627Y12408D01*
X134540Y12510D01*
X134423Y12597D01*
X134408Y12612D01*
X134365Y12641D01*
X134292Y12670D01*
X134190Y12714D01*
X134058Y12758D01*
X133898Y12802D01*
X133709Y12816D01*
X133490Y12831D01*
X133359D01*
X133228Y12816D01*
X133067Y12802D01*
X132878Y12773D01*
X132703Y12743D01*
X132542Y12685D01*
X132396Y12612D01*
X132382D01*
X132367Y12583D01*
X132294Y12510D01*
X132207Y12379D01*
X132192Y12306D01*
X132178Y12218D01*
Y12204D01*
Y12189D01*
X132207Y12102D01*
X132265Y11985D01*
X132309Y11927D01*
X132367Y11868D01*
X132382Y11854D01*
X132440Y11839D01*
X132469Y11810D01*
X132528Y11796D01*
X132600Y11767D01*
X132688Y11723D01*
X132805Y11694D01*
X132921Y11650D01*
X133067Y11606D01*
X133242Y11562D01*
X133432Y11504D01*
X133650Y11446D01*
X133898Y11387D01*
X134175Y11315D01*
X134190D01*
X134248Y11300D01*
X134321Y11285D01*
X134423Y11256D01*
X134554Y11212D01*
X134700Y11183D01*
X135021Y11081D01*
X135385Y10950D01*
X135735Y10804D01*
X135910Y10717D01*
X136071Y10644D01*
X136202Y10542D01*
X136333Y10454D01*
X136362Y10425D01*
X136435Y10367D01*
X136523Y10250D01*
X136639Y10090D01*
X136756Y9886D01*
X136843Y9638D01*
X136916Y9346D01*
X136945Y9025D01*
Y9011D01*
Y8982D01*
Y8923D01*
X136931Y8850D01*
X136916Y8778D01*
X136902Y8676D01*
X136843Y8428D01*
X136741Y8165D01*
X136668Y8019D01*
X136595Y7874D01*
X136493Y7728D01*
X136377Y7582D01*
X136246Y7436D01*
X136100Y7290D01*
X136085Y7276D01*
X136056Y7261D01*
X136012Y7232D01*
X135939Y7174D01*
X135852Y7130D01*
X135750Y7072D01*
X135619Y6999D01*
X135473Y6940D01*
X135312Y6868D01*
X135123Y6809D01*
X134919Y6736D01*
X134700Y6693D01*
X134452Y6649D01*
X134190Y6605D01*
X133913Y6591D01*
X133621Y6576D01*
X133475D01*
X133373Y6591D01*
X133242D01*
X133096Y6605D01*
X132936Y6620D01*
X132761Y6649D01*
X132382Y6722D01*
X131988Y6824D01*
X131595Y6970D01*
X131420Y7072D01*
X131245Y7174D01*
X131230Y7188D01*
X131201Y7203D01*
X131157Y7232D01*
X131113Y7290D01*
X130953Y7422D01*
X130778Y7611D01*
X130588Y7845D01*
X130414Y8122D01*
X130253Y8457D01*
X130122Y8821D01*
X132061Y9113D01*
Y9084D01*
X132090Y9025D01*
X132119Y8923D01*
X132163Y8792D01*
X132236Y8646D01*
X132324Y8515D01*
X132426Y8369D01*
X132557Y8253D01*
X132571Y8238D01*
X132630Y8209D01*
X132717Y8165D01*
X132834Y8122D01*
X132980Y8063D01*
X133169Y8019D01*
X133373Y7990D01*
X133621Y7976D01*
X133738D01*
X133884Y7990D01*
X134044Y8005D01*
X134219Y8034D01*
X134408Y8092D01*
X134583Y8151D01*
X134744Y8238D01*
X134758Y8253D01*
X134788Y8282D01*
X134831Y8326D01*
X134875Y8384D01*
X134919Y8457D01*
X134962Y8544D01*
X134992Y8646D01*
X135006Y8763D01*
Y8778D01*
Y8807D01*
X134992Y8894D01*
X134948Y9011D01*
X134860Y9127D01*
X134831Y9157D01*
X134788Y9171D01*
X134729Y9215D01*
X134642Y9244D01*
X134525Y9288D01*
X134394Y9332D01*
X134219Y9375D01*
X134190D01*
X134117Y9404D01*
X134000Y9434D01*
X133840Y9463D01*
X133650Y9507D01*
X133446Y9565D01*
X133213Y9623D01*
X132965Y9696D01*
X132455Y9842D01*
X132207Y9915D01*
X131974Y10002D01*
X131755Y10075D01*
X131551Y10163D01*
X131376Y10250D01*
X131245Y10323D01*
X131230Y10338D01*
X131201Y10352D01*
X131172Y10381D01*
X131113Y10440D01*
X130968Y10571D01*
X130822Y10761D01*
X130661Y10994D01*
X130516Y11271D01*
X130457Y11431D01*
X130428Y11606D01*
X130399Y11781D01*
X130384Y11971D01*
Y11985D01*
Y12014D01*
Y12058D01*
X130399Y12131D01*
X130414Y12204D01*
X130428Y12306D01*
X130472Y12525D01*
X130559Y12773D01*
X130705Y13035D01*
X130778Y13181D01*
X130880Y13312D01*
X130997Y13443D01*
X131128Y13560D01*
X131143Y13574D01*
X131157Y13589D01*
X131201Y13618D01*
X131274Y13662D01*
X131347Y13706D01*
X131449Y13764D01*
X131565Y13822D01*
X131697Y13895D01*
X131857Y13953D01*
X132032Y14012D01*
X132221Y14070D01*
X132426Y14114D01*
X132659Y14158D01*
X132907Y14187D01*
X133169Y14216D01*
X133709D01*
X133825Y14201D01*
D02*
G37*
G36*
X118137Y14201D02*
X118283Y14187D01*
X118443Y14172D01*
X118618Y14158D01*
X118983Y14099D01*
X119347Y14012D01*
X119697Y13881D01*
X119858Y13808D01*
X120003Y13720D01*
X120018D01*
X120033Y13691D01*
X120120Y13633D01*
X120251Y13516D01*
X120397Y13356D01*
X120572Y13166D01*
X120732Y12918D01*
X120893Y12627D01*
X121009Y12291D01*
X119187Y11956D01*
Y11971D01*
X119158Y12029D01*
X119129Y12102D01*
X119085Y12189D01*
X119027Y12306D01*
X118939Y12408D01*
X118852Y12510D01*
X118735Y12597D01*
X118720Y12612D01*
X118677Y12641D01*
X118604Y12670D01*
X118502Y12714D01*
X118370Y12758D01*
X118210Y12802D01*
X118021Y12816D01*
X117802Y12831D01*
X117671D01*
X117539Y12816D01*
X117379Y12802D01*
X117190Y12773D01*
X117015Y12743D01*
X116854Y12685D01*
X116708Y12612D01*
X116694D01*
X116679Y12583D01*
X116606Y12510D01*
X116519Y12379D01*
X116504Y12306D01*
X116490Y12218D01*
Y12204D01*
Y12189D01*
X116519Y12102D01*
X116577Y11985D01*
X116621Y11927D01*
X116679Y11868D01*
X116694Y11854D01*
X116752Y11839D01*
X116781Y11810D01*
X116840Y11796D01*
X116912Y11767D01*
X117000Y11723D01*
X117117Y11694D01*
X117233Y11650D01*
X117379Y11606D01*
X117554Y11562D01*
X117744Y11504D01*
X117962Y11446D01*
X118210Y11387D01*
X118487Y11315D01*
X118502D01*
X118560Y11300D01*
X118633Y11285D01*
X118735Y11256D01*
X118866Y11212D01*
X119012Y11183D01*
X119333Y11081D01*
X119697Y10950D01*
X120047Y10804D01*
X120222Y10717D01*
X120382Y10644D01*
X120514Y10542D01*
X120645Y10454D01*
X120674Y10425D01*
X120747Y10367D01*
X120835Y10250D01*
X120951Y10090D01*
X121068Y9886D01*
X121155Y9638D01*
X121228Y9346D01*
X121257Y9025D01*
Y9011D01*
Y8982D01*
Y8923D01*
X121243Y8850D01*
X121228Y8778D01*
X121214Y8676D01*
X121155Y8428D01*
X121053Y8165D01*
X120980Y8019D01*
X120907Y7874D01*
X120805Y7728D01*
X120689Y7582D01*
X120557Y7436D01*
X120412Y7290D01*
X120397Y7276D01*
X120368Y7261D01*
X120324Y7232D01*
X120251Y7174D01*
X120164Y7130D01*
X120062Y7072D01*
X119931Y6999D01*
X119785Y6940D01*
X119624Y6868D01*
X119435Y6809D01*
X119231Y6736D01*
X119012Y6693D01*
X118764Y6649D01*
X118502Y6605D01*
X118225Y6591D01*
X117933Y6576D01*
X117787D01*
X117685Y6591D01*
X117554D01*
X117408Y6605D01*
X117248Y6620D01*
X117073Y6649D01*
X116694Y6722D01*
X116300Y6824D01*
X115906Y6970D01*
X115732Y7072D01*
X115557Y7174D01*
X115542Y7188D01*
X115513Y7203D01*
X115469Y7232D01*
X115425Y7290D01*
X115265Y7422D01*
X115090Y7611D01*
X114900Y7845D01*
X114725Y8122D01*
X114565Y8457D01*
X114434Y8821D01*
X116373Y9113D01*
Y9084D01*
X116402Y9025D01*
X116431Y8923D01*
X116475Y8792D01*
X116548Y8646D01*
X116635Y8515D01*
X116737Y8369D01*
X116869Y8253D01*
X116883Y8238D01*
X116942Y8209D01*
X117029Y8165D01*
X117146Y8122D01*
X117292Y8063D01*
X117481Y8019D01*
X117685Y7990D01*
X117933Y7976D01*
X118050D01*
X118195Y7990D01*
X118356Y8005D01*
X118531Y8034D01*
X118720Y8092D01*
X118895Y8151D01*
X119056Y8238D01*
X119070Y8253D01*
X119099Y8282D01*
X119143Y8326D01*
X119187Y8384D01*
X119231Y8457D01*
X119274Y8544D01*
X119304Y8646D01*
X119318Y8763D01*
Y8778D01*
Y8807D01*
X119304Y8894D01*
X119260Y9011D01*
X119172Y9127D01*
X119143Y9157D01*
X119099Y9171D01*
X119041Y9215D01*
X118954Y9244D01*
X118837Y9288D01*
X118706Y9332D01*
X118531Y9375D01*
X118502D01*
X118429Y9404D01*
X118312Y9434D01*
X118152Y9463D01*
X117962Y9507D01*
X117758Y9565D01*
X117525Y9623D01*
X117277Y9696D01*
X116767Y9842D01*
X116519Y9915D01*
X116286Y10002D01*
X116067Y10075D01*
X115863Y10163D01*
X115688Y10250D01*
X115557Y10323D01*
X115542Y10338D01*
X115513Y10352D01*
X115484Y10381D01*
X115425Y10440D01*
X115279Y10571D01*
X115134Y10761D01*
X114973Y10994D01*
X114828Y11271D01*
X114769Y11431D01*
X114740Y11606D01*
X114711Y11781D01*
X114696Y11971D01*
Y11985D01*
Y12014D01*
Y12058D01*
X114711Y12131D01*
X114725Y12204D01*
X114740Y12306D01*
X114784Y12525D01*
X114871Y12773D01*
X115017Y13035D01*
X115090Y13181D01*
X115192Y13312D01*
X115309Y13443D01*
X115440Y13560D01*
X115454Y13574D01*
X115469Y13589D01*
X115513Y13618D01*
X115586Y13662D01*
X115659Y13706D01*
X115761Y13764D01*
X115877Y13822D01*
X116008Y13895D01*
X116169Y13953D01*
X116344Y14012D01*
X116533Y14070D01*
X116737Y14114D01*
X116971Y14158D01*
X117219Y14187D01*
X117481Y14216D01*
X118021D01*
X118137Y14201D01*
D02*
G37*
G36*
X102668Y6736D02*
X100466D01*
X96850Y16826D01*
X99052D01*
X101618Y9361D01*
X104082Y16826D01*
X106254D01*
X102668Y6736D01*
D02*
G37*
G36*
X192714Y14449D02*
X192218Y9346D01*
X191110D01*
X190614Y14449D01*
Y16826D01*
X192714D01*
Y14449D01*
D02*
G37*
G36*
X192641Y6736D02*
X190702D01*
Y8676D01*
X192641D01*
Y6736D01*
D02*
G37*
G36*
X178877Y15120D02*
X175903D01*
Y6736D01*
X173862D01*
Y15120D01*
X170873D01*
Y16826D01*
X178877D01*
Y15120D01*
D02*
G37*
G36*
X165056Y8442D02*
X170130D01*
Y6736D01*
X163014D01*
Y16753D01*
X165056D01*
Y8442D01*
D02*
G37*
G36*
X154354Y14201D02*
X154471D01*
X154762Y14172D01*
X155068Y14143D01*
X155389Y14085D01*
X155695Y13997D01*
X155826Y13953D01*
X155958Y13895D01*
X155972D01*
X155987Y13881D01*
X156060Y13837D01*
X156176Y13779D01*
X156308Y13691D01*
X156468Y13574D01*
X156614Y13443D01*
X156745Y13283D01*
X156862Y13122D01*
X156876Y13093D01*
X156905Y13035D01*
X156949Y12904D01*
X156964Y12831D01*
X156993Y12729D01*
X157022Y12627D01*
X157037Y12495D01*
X157066Y12350D01*
X157080Y12189D01*
X157095Y12014D01*
X157109Y11825D01*
X157124Y11621D01*
Y11387D01*
X157095Y9127D01*
Y9113D01*
Y9084D01*
Y9040D01*
Y8967D01*
Y8792D01*
X157109Y8588D01*
Y8355D01*
X157139Y8122D01*
X157153Y7888D01*
X157182Y7699D01*
Y7684D01*
X157197Y7626D01*
X157226Y7524D01*
X157255Y7407D01*
X157314Y7261D01*
X157372Y7101D01*
X157445Y6926D01*
X157532Y6736D01*
X155622D01*
Y6751D01*
X155608Y6765D01*
X155593Y6824D01*
X155564Y6882D01*
X155535Y6955D01*
X155506Y7057D01*
X155477Y7174D01*
X155433Y7305D01*
Y7320D01*
X155418Y7334D01*
X155404Y7393D01*
X155375Y7465D01*
X155360Y7524D01*
X155331Y7509D01*
X155272Y7451D01*
X155170Y7363D01*
X155039Y7261D01*
X154879Y7145D01*
X154704Y7013D01*
X154500Y6911D01*
X154296Y6809D01*
X154266Y6795D01*
X154193Y6780D01*
X154077Y6736D01*
X153931Y6693D01*
X153756Y6649D01*
X153552Y6620D01*
X153319Y6591D01*
X153085Y6576D01*
X152983D01*
X152896Y6591D01*
X152808D01*
X152692Y6605D01*
X152444Y6649D01*
X152152Y6722D01*
X151861Y6824D01*
X151569Y6970D01*
X151307Y7174D01*
Y7188D01*
X151277Y7203D01*
X151205Y7290D01*
X151103Y7422D01*
X150986Y7597D01*
X150869Y7815D01*
X150767Y8078D01*
X150694Y8384D01*
X150680Y8544D01*
X150665Y8719D01*
Y8748D01*
Y8821D01*
X150680Y8938D01*
X150709Y9084D01*
X150738Y9259D01*
X150782Y9434D01*
X150855Y9623D01*
X150957Y9813D01*
X150971Y9842D01*
X151015Y9900D01*
X151073Y9988D01*
X151175Y10090D01*
X151277Y10206D01*
X151423Y10338D01*
X151584Y10454D01*
X151773Y10556D01*
X151802Y10571D01*
X151875Y10600D01*
X151992Y10644D01*
X152167Y10717D01*
X152386Y10790D01*
X152648Y10863D01*
X152969Y10935D01*
X153319Y11008D01*
X153333D01*
X153377Y11023D01*
X153450Y11038D01*
X153537Y11052D01*
X153654Y11067D01*
X153785Y11096D01*
X154077Y11169D01*
X154383Y11242D01*
X154704Y11315D01*
X154981Y11402D01*
X155112Y11446D01*
X155214Y11490D01*
Y11679D01*
Y11708D01*
Y11767D01*
X155200Y11868D01*
X155185Y12000D01*
X155141Y12131D01*
X155097Y12262D01*
X155025Y12379D01*
X154922Y12481D01*
X154908Y12495D01*
X154864Y12525D01*
X154791Y12554D01*
X154689Y12612D01*
X154543Y12656D01*
X154368Y12685D01*
X154150Y12714D01*
X153887Y12729D01*
X153800D01*
X153712Y12714D01*
X153596Y12700D01*
X153464Y12670D01*
X153319Y12641D01*
X153188Y12583D01*
X153071Y12510D01*
X153056Y12495D01*
X153027Y12466D01*
X152969Y12423D01*
X152910Y12350D01*
X152823Y12248D01*
X152750Y12116D01*
X152677Y11971D01*
X152604Y11796D01*
X150869Y12116D01*
Y12131D01*
X150884Y12160D01*
X150899Y12218D01*
X150928Y12291D01*
X150957Y12379D01*
X151000Y12481D01*
X151103Y12714D01*
X151248Y12962D01*
X151423Y13225D01*
X151627Y13472D01*
X151875Y13691D01*
X151890D01*
X151904Y13720D01*
X151948Y13735D01*
X152006Y13779D01*
X152094Y13808D01*
X152181Y13851D01*
X152298Y13910D01*
X152415Y13953D01*
X152561Y13997D01*
X152721Y14055D01*
X152896Y14099D01*
X153100Y14128D01*
X153304Y14172D01*
X153537Y14187D01*
X153771Y14216D01*
X154252D01*
X154354Y14201D01*
D02*
G37*
G36*
X109200Y6736D02*
X107261D01*
Y14055D01*
X109200D01*
Y6736D01*
D02*
G37*
G36*
X126010Y14201D02*
X126142Y14187D01*
X126302Y14158D01*
X126477Y14128D01*
X126666Y14085D01*
X126871Y14026D01*
X127075Y13953D01*
X127293Y13866D01*
X127512Y13749D01*
X127716Y13633D01*
X127920Y13487D01*
X128124Y13312D01*
X128299Y13122D01*
X128314Y13108D01*
X128343Y13079D01*
X128387Y13006D01*
X128445Y12918D01*
X128518Y12802D01*
X128591Y12670D01*
X128679Y12495D01*
X128766Y12306D01*
X128853Y12087D01*
X128941Y11839D01*
X129014Y11577D01*
X129087Y11271D01*
X129145Y10950D01*
X129189Y10600D01*
X129218Y10236D01*
Y9827D01*
X124377Y9827D01*
Y9813D01*
Y9784D01*
Y9740D01*
X124392Y9681D01*
X124407Y9536D01*
X124436Y9332D01*
X124494Y9127D01*
X124582Y8894D01*
X124684Y8676D01*
X124829Y8486D01*
X124844Y8471D01*
X124917Y8413D01*
X125004Y8340D01*
X125136Y8253D01*
X125296Y8165D01*
X125500Y8092D01*
X125719Y8034D01*
X125952Y8019D01*
X126025D01*
X126112Y8034D01*
X126215Y8049D01*
X126331Y8078D01*
X126462Y8122D01*
X126594Y8180D01*
X126710Y8267D01*
X126725Y8282D01*
X126769Y8311D01*
X126827Y8369D01*
X126885Y8457D01*
X126973Y8574D01*
X127046Y8705D01*
X127119Y8880D01*
X127191Y9069D01*
X129116Y8748D01*
Y8734D01*
X129101Y8705D01*
X129072Y8646D01*
X129043Y8574D01*
X128999Y8486D01*
X128955Y8384D01*
X128824Y8151D01*
X128664Y7888D01*
X128460Y7611D01*
X128212Y7363D01*
X127935Y7130D01*
X127920D01*
X127906Y7101D01*
X127848Y7086D01*
X127789Y7043D01*
X127716Y6999D01*
X127614Y6955D01*
X127512Y6911D01*
X127381Y6853D01*
X127089Y6751D01*
X126754Y6663D01*
X126360Y6605D01*
X125937Y6576D01*
X125850D01*
X125762Y6591D01*
X125631D01*
X125471Y6620D01*
X125281Y6649D01*
X125077Y6678D01*
X124873Y6736D01*
X124640Y6795D01*
X124407Y6882D01*
X124173Y6984D01*
X123940Y7101D01*
X123707Y7247D01*
X123488Y7407D01*
X123299Y7597D01*
X123109Y7815D01*
X123094Y7830D01*
X123080Y7859D01*
X123051Y7917D01*
X122992Y7990D01*
X122949Y8092D01*
X122890Y8209D01*
X122817Y8340D01*
X122759Y8501D01*
X122686Y8676D01*
X122628Y8865D01*
X122555Y9069D01*
X122511Y9302D01*
X122468Y9536D01*
X122424Y9784D01*
X122409Y10061D01*
X122395Y10338D01*
Y10352D01*
Y10411D01*
Y10513D01*
X122409Y10644D01*
X122424Y10790D01*
X122438Y10965D01*
X122468Y11154D01*
X122511Y11373D01*
X122628Y11825D01*
X122701Y12058D01*
X122788Y12306D01*
X122905Y12539D01*
X123036Y12758D01*
X123182Y12977D01*
X123342Y13181D01*
X123357Y13195D01*
X123386Y13225D01*
X123444Y13283D01*
X123517Y13341D01*
X123605Y13414D01*
X123721Y13501D01*
X123853Y13604D01*
X123998Y13706D01*
X124159Y13793D01*
X124348Y13895D01*
X124538Y13983D01*
X124757Y14055D01*
X124975Y14114D01*
X125223Y14172D01*
X125471Y14201D01*
X125733Y14216D01*
X125894D01*
X126010Y14201D01*
D02*
G37*
G36*
X167656Y95995D02*
X165717D01*
Y97788D01*
X167656D01*
Y95995D01*
D02*
G37*
G36*
X126890D02*
X124951D01*
Y97788D01*
X126890D01*
Y95995D01*
D02*
G37*
G36*
X151559Y94770D02*
X150816Y93910D01*
X150830Y93881D01*
X150889Y93822D01*
X150961Y93720D01*
X151049Y93575D01*
X151151Y93414D01*
X151253Y93210D01*
X151370Y92991D01*
X151457Y92743D01*
X151472Y92714D01*
X151501Y92627D01*
X151530Y92496D01*
X151588Y92321D01*
X151632Y92102D01*
X151661Y91869D01*
X151690Y91621D01*
X151705Y91344D01*
Y91329D01*
Y91271D01*
Y91183D01*
X151690Y91067D01*
X151676Y90935D01*
X151647Y90760D01*
X151618Y90586D01*
X151574Y90381D01*
X151516Y90177D01*
X151443Y89959D01*
X151355Y89725D01*
X151239Y89492D01*
X151122Y89273D01*
X150976Y89040D01*
X150801Y88821D01*
X150612Y88617D01*
X150597Y88603D01*
X150568Y88573D01*
X150495Y88515D01*
X150422Y88442D01*
X150305Y88369D01*
X150189Y88282D01*
X150043Y88180D01*
X149868Y88078D01*
X149679Y87976D01*
X149474Y87874D01*
X149256Y87786D01*
X149008Y87713D01*
X148760Y87640D01*
X148483Y87582D01*
X148206Y87553D01*
X147900Y87538D01*
X147783D01*
X147696Y87553D01*
X147594D01*
X147477Y87568D01*
X147346Y87582D01*
X147200Y87611D01*
X146865Y87684D01*
X146515Y87772D01*
X146150Y87917D01*
X145786Y88107D01*
X144998Y87203D01*
X144240Y87845D01*
X145042Y88763D01*
X145027Y88792D01*
X144969Y88850D01*
X144896Y88953D01*
X144809Y89098D01*
X144692Y89273D01*
X144590Y89477D01*
X144488Y89711D01*
X144386Y89959D01*
Y89973D01*
X144371Y89988D01*
X144357Y90075D01*
X144313Y90221D01*
X144269Y90396D01*
X144226Y90615D01*
X144196Y90863D01*
X144167Y91110D01*
X144153Y91387D01*
Y91402D01*
Y91460D01*
X144167Y91548D01*
Y91664D01*
X144182Y91796D01*
X144211Y91971D01*
X144240Y92146D01*
X144284Y92350D01*
X144342Y92554D01*
X144415Y92773D01*
X144488Y93006D01*
X144590Y93225D01*
X144721Y93458D01*
X144852Y93677D01*
X145013Y93895D01*
X145202Y94099D01*
X145217Y94114D01*
X145246Y94143D01*
X145319Y94201D01*
X145392Y94274D01*
X145494Y94347D01*
X145625Y94435D01*
X145771Y94537D01*
X145946Y94639D01*
X146121Y94741D01*
X146340Y94843D01*
X146558Y94930D01*
X146792Y95003D01*
X147054Y95076D01*
X147331Y95135D01*
X147608Y95164D01*
X147914Y95178D01*
X148031D01*
X148118Y95164D01*
X148235D01*
X148352Y95149D01*
X148497Y95120D01*
X148643Y95105D01*
X148993Y95033D01*
X149343Y94916D01*
X149722Y94755D01*
X149897Y94668D01*
X150072Y94551D01*
X150801Y95397D01*
X151559Y94770D01*
D02*
G37*
G36*
X194599Y95164D02*
X194745Y95149D01*
X194906Y95135D01*
X195081Y95120D01*
X195445Y95062D01*
X195810Y94974D01*
X196160Y94843D01*
X196320Y94770D01*
X196466Y94683D01*
X196480D01*
X196495Y94653D01*
X196582Y94595D01*
X196714Y94478D01*
X196859Y94318D01*
X197034Y94129D01*
X197195Y93881D01*
X197355Y93589D01*
X197472Y93254D01*
X195649Y92918D01*
Y92933D01*
X195620Y92991D01*
X195591Y93064D01*
X195547Y93152D01*
X195489Y93268D01*
X195401Y93370D01*
X195314Y93472D01*
X195197Y93560D01*
X195183Y93575D01*
X195139Y93604D01*
X195066Y93633D01*
X194964Y93677D01*
X194833Y93720D01*
X194672Y93764D01*
X194483Y93779D01*
X194264Y93793D01*
X194133D01*
X194002Y93779D01*
X193841Y93764D01*
X193652Y93735D01*
X193477Y93706D01*
X193316Y93647D01*
X193171Y93575D01*
X193156D01*
X193141Y93545D01*
X193069Y93472D01*
X192981Y93341D01*
X192966Y93268D01*
X192952Y93181D01*
Y93166D01*
Y93152D01*
X192981Y93064D01*
X193039Y92948D01*
X193083Y92889D01*
X193141Y92831D01*
X193156Y92816D01*
X193214Y92802D01*
X193244Y92773D01*
X193302Y92758D01*
X193375Y92729D01*
X193462Y92685D01*
X193579Y92656D01*
X193695Y92612D01*
X193841Y92568D01*
X194016Y92525D01*
X194206Y92466D01*
X194424Y92408D01*
X194672Y92350D01*
X194949Y92277D01*
X194964D01*
X195022Y92262D01*
X195095Y92248D01*
X195197Y92219D01*
X195328Y92175D01*
X195474Y92146D01*
X195795Y92044D01*
X196160Y91912D01*
X196510Y91767D01*
X196684Y91679D01*
X196845Y91606D01*
X196976Y91504D01*
X197107Y91417D01*
X197136Y91387D01*
X197209Y91329D01*
X197297Y91212D01*
X197413Y91052D01*
X197530Y90848D01*
X197617Y90600D01*
X197690Y90309D01*
X197720Y89988D01*
Y89973D01*
Y89944D01*
Y89886D01*
X197705Y89813D01*
X197690Y89740D01*
X197676Y89638D01*
X197617Y89390D01*
X197515Y89128D01*
X197443Y88982D01*
X197370Y88836D01*
X197268Y88690D01*
X197151Y88544D01*
X197020Y88399D01*
X196874Y88253D01*
X196859Y88238D01*
X196830Y88224D01*
X196786Y88194D01*
X196714Y88136D01*
X196626Y88092D01*
X196524Y88034D01*
X196393Y87961D01*
X196247Y87903D01*
X196087Y87830D01*
X195897Y87772D01*
X195693Y87699D01*
X195474Y87655D01*
X195226Y87611D01*
X194964Y87568D01*
X194687Y87553D01*
X194395Y87538D01*
X194250D01*
X194148Y87553D01*
X194016D01*
X193870Y87568D01*
X193710Y87582D01*
X193535Y87611D01*
X193156Y87684D01*
X192762Y87786D01*
X192369Y87932D01*
X192194Y88034D01*
X192019Y88136D01*
X192004Y88151D01*
X191975Y88165D01*
X191931Y88194D01*
X191888Y88253D01*
X191727Y88384D01*
X191552Y88573D01*
X191363Y88807D01*
X191188Y89084D01*
X191027Y89419D01*
X190896Y89784D01*
X192835Y90075D01*
Y90046D01*
X192865Y89988D01*
X192894Y89886D01*
X192937Y89754D01*
X193010Y89609D01*
X193098Y89477D01*
X193200Y89332D01*
X193331Y89215D01*
X193346Y89201D01*
X193404Y89171D01*
X193491Y89128D01*
X193608Y89084D01*
X193754Y89025D01*
X193943Y88982D01*
X194148Y88953D01*
X194395Y88938D01*
X194512D01*
X194658Y88953D01*
X194818Y88967D01*
X194993Y88996D01*
X195183Y89055D01*
X195358Y89113D01*
X195518Y89201D01*
X195533Y89215D01*
X195562Y89244D01*
X195606Y89288D01*
X195649Y89346D01*
X195693Y89419D01*
X195737Y89507D01*
X195766Y89609D01*
X195781Y89725D01*
Y89740D01*
Y89769D01*
X195766Y89857D01*
X195722Y89973D01*
X195635Y90090D01*
X195606Y90119D01*
X195562Y90134D01*
X195503Y90177D01*
X195416Y90206D01*
X195299Y90250D01*
X195168Y90294D01*
X194993Y90338D01*
X194964D01*
X194891Y90367D01*
X194774Y90396D01*
X194614Y90425D01*
X194424Y90469D01*
X194220Y90527D01*
X193987Y90586D01*
X193739Y90658D01*
X193229Y90804D01*
X192981Y90877D01*
X192748Y90965D01*
X192529Y91037D01*
X192325Y91125D01*
X192150Y91212D01*
X192019Y91285D01*
X192004Y91300D01*
X191975Y91315D01*
X191946Y91344D01*
X191888Y91402D01*
X191742Y91533D01*
X191596Y91723D01*
X191436Y91956D01*
X191290Y92233D01*
X191232Y92393D01*
X191202Y92568D01*
X191173Y92743D01*
X191159Y92933D01*
Y92948D01*
Y92977D01*
Y93020D01*
X191173Y93093D01*
X191188Y93166D01*
X191202Y93268D01*
X191246Y93487D01*
X191334Y93735D01*
X191479Y93997D01*
X191552Y94143D01*
X191654Y94274D01*
X191771Y94406D01*
X191902Y94522D01*
X191917Y94537D01*
X191931Y94551D01*
X191975Y94581D01*
X192048Y94624D01*
X192121Y94668D01*
X192223Y94726D01*
X192340Y94785D01*
X192471Y94858D01*
X192631Y94916D01*
X192806Y94974D01*
X192996Y95033D01*
X193200Y95076D01*
X193433Y95120D01*
X193681Y95149D01*
X193943Y95178D01*
X194483D01*
X194599Y95164D01*
D02*
G37*
G36*
X131905D02*
X132051Y95149D01*
X132212Y95135D01*
X132387Y95120D01*
X132751Y95062D01*
X133116Y94974D01*
X133466Y94843D01*
X133626Y94770D01*
X133772Y94683D01*
X133786D01*
X133801Y94653D01*
X133888Y94595D01*
X134020Y94478D01*
X134165Y94318D01*
X134340Y94129D01*
X134501Y93881D01*
X134661Y93589D01*
X134778Y93254D01*
X132955Y92918D01*
Y92933D01*
X132926Y92991D01*
X132897Y93064D01*
X132853Y93152D01*
X132795Y93268D01*
X132707Y93370D01*
X132620Y93472D01*
X132503Y93560D01*
X132489Y93575D01*
X132445Y93604D01*
X132372Y93633D01*
X132270Y93677D01*
X132139Y93720D01*
X131978Y93764D01*
X131789Y93779D01*
X131570Y93793D01*
X131439D01*
X131308Y93779D01*
X131147Y93764D01*
X130958Y93735D01*
X130783Y93706D01*
X130622Y93647D01*
X130477Y93575D01*
X130462D01*
X130447Y93545D01*
X130375Y93472D01*
X130287Y93341D01*
X130272Y93268D01*
X130258Y93181D01*
Y93166D01*
Y93152D01*
X130287Y93064D01*
X130345Y92948D01*
X130389Y92889D01*
X130447Y92831D01*
X130462Y92816D01*
X130520Y92802D01*
X130550Y92773D01*
X130608Y92758D01*
X130681Y92729D01*
X130768Y92685D01*
X130885Y92656D01*
X131001Y92612D01*
X131147Y92568D01*
X131322Y92525D01*
X131512Y92466D01*
X131730Y92408D01*
X131978Y92350D01*
X132255Y92277D01*
X132270D01*
X132328Y92262D01*
X132401Y92248D01*
X132503Y92219D01*
X132634Y92175D01*
X132780Y92146D01*
X133101Y92044D01*
X133466Y91912D01*
X133816Y91767D01*
X133990Y91679D01*
X134151Y91606D01*
X134282Y91504D01*
X134413Y91417D01*
X134442Y91387D01*
X134515Y91329D01*
X134603Y91212D01*
X134719Y91052D01*
X134836Y90848D01*
X134924Y90600D01*
X134996Y90309D01*
X135026Y89988D01*
Y89973D01*
Y89944D01*
Y89886D01*
X135011Y89813D01*
X134996Y89740D01*
X134982Y89638D01*
X134924Y89390D01*
X134821Y89128D01*
X134749Y88982D01*
X134676Y88836D01*
X134574Y88690D01*
X134457Y88544D01*
X134326Y88399D01*
X134180Y88253D01*
X134165Y88238D01*
X134136Y88224D01*
X134092Y88194D01*
X134020Y88136D01*
X133932Y88092D01*
X133830Y88034D01*
X133699Y87961D01*
X133553Y87903D01*
X133393Y87830D01*
X133203Y87772D01*
X132999Y87699D01*
X132780Y87655D01*
X132532Y87611D01*
X132270Y87568D01*
X131993Y87553D01*
X131701Y87538D01*
X131556D01*
X131454Y87553D01*
X131322D01*
X131176Y87568D01*
X131016Y87582D01*
X130841Y87611D01*
X130462Y87684D01*
X130068Y87786D01*
X129675Y87932D01*
X129500Y88034D01*
X129325Y88136D01*
X129310Y88151D01*
X129281Y88165D01*
X129237Y88194D01*
X129194Y88253D01*
X129033Y88384D01*
X128858Y88573D01*
X128669Y88807D01*
X128494Y89084D01*
X128333Y89419D01*
X128202Y89784D01*
X130141Y90075D01*
Y90046D01*
X130171Y89988D01*
X130200Y89886D01*
X130243Y89754D01*
X130316Y89609D01*
X130404Y89477D01*
X130506Y89332D01*
X130637Y89215D01*
X130652Y89201D01*
X130710Y89171D01*
X130797Y89128D01*
X130914Y89084D01*
X131060Y89025D01*
X131249Y88982D01*
X131454Y88953D01*
X131701Y88938D01*
X131818D01*
X131964Y88953D01*
X132124Y88967D01*
X132299Y88996D01*
X132489Y89055D01*
X132664Y89113D01*
X132824Y89201D01*
X132839Y89215D01*
X132868Y89244D01*
X132912Y89288D01*
X132955Y89346D01*
X132999Y89419D01*
X133043Y89507D01*
X133072Y89609D01*
X133087Y89725D01*
Y89740D01*
Y89769D01*
X133072Y89857D01*
X133028Y89973D01*
X132941Y90090D01*
X132912Y90119D01*
X132868Y90134D01*
X132809Y90177D01*
X132722Y90206D01*
X132605Y90250D01*
X132474Y90294D01*
X132299Y90338D01*
X132270D01*
X132197Y90367D01*
X132080Y90396D01*
X131920Y90425D01*
X131730Y90469D01*
X131526Y90527D01*
X131293Y90586D01*
X131045Y90658D01*
X130535Y90804D01*
X130287Y90877D01*
X130054Y90965D01*
X129835Y91037D01*
X129631Y91125D01*
X129456Y91212D01*
X129325Y91285D01*
X129310Y91300D01*
X129281Y91315D01*
X129252Y91344D01*
X129194Y91402D01*
X129048Y91533D01*
X128902Y91723D01*
X128742Y91956D01*
X128596Y92233D01*
X128537Y92393D01*
X128508Y92568D01*
X128479Y92743D01*
X128465Y92933D01*
Y92948D01*
Y92977D01*
Y93020D01*
X128479Y93093D01*
X128494Y93166D01*
X128508Y93268D01*
X128552Y93487D01*
X128640Y93735D01*
X128785Y93997D01*
X128858Y94143D01*
X128960Y94274D01*
X129077Y94406D01*
X129208Y94522D01*
X129223Y94537D01*
X129237Y94551D01*
X129281Y94581D01*
X129354Y94624D01*
X129427Y94668D01*
X129529Y94726D01*
X129646Y94785D01*
X129777Y94858D01*
X129937Y94916D01*
X130112Y94974D01*
X130302Y95033D01*
X130506Y95076D01*
X130739Y95120D01*
X130987Y95149D01*
X131249Y95178D01*
X131789D01*
X131905Y95164D01*
D02*
G37*
G36*
X140041D02*
X140158D01*
X140289Y95149D01*
X140435Y95135D01*
X140595Y95105D01*
X140930Y95033D01*
X141280Y94930D01*
X141630Y94785D01*
X141951Y94595D01*
X141966D01*
X141980Y94566D01*
X142024Y94537D01*
X142082Y94493D01*
X142213Y94362D01*
X142388Y94172D01*
X142578Y93924D01*
X142768Y93633D01*
X142943Y93283D01*
X143088Y92875D01*
X141178Y92525D01*
Y92554D01*
X141164Y92612D01*
X141135Y92714D01*
X141091Y92845D01*
X141018Y92977D01*
X140945Y93123D01*
X140843Y93254D01*
X140726Y93370D01*
X140712Y93385D01*
X140668Y93414D01*
X140595Y93458D01*
X140493Y93516D01*
X140362Y93575D01*
X140216Y93618D01*
X140041Y93647D01*
X139852Y93662D01*
X139822D01*
X139735Y93647D01*
X139604Y93633D01*
X139429Y93604D01*
X139254Y93531D01*
X139064Y93443D01*
X138875Y93327D01*
X138700Y93152D01*
X138685Y93123D01*
X138641Y93050D01*
X138568Y92933D01*
X138496Y92758D01*
X138408Y92525D01*
X138379Y92393D01*
X138350Y92248D01*
X138321Y92073D01*
X138292Y91898D01*
X138277Y91694D01*
Y91489D01*
Y91475D01*
Y91431D01*
Y91358D01*
X138292Y91271D01*
Y91169D01*
X138306Y91052D01*
X138335Y90760D01*
X138379Y90454D01*
X138467Y90148D01*
X138568Y89871D01*
X138641Y89754D01*
X138714Y89638D01*
X138729Y89609D01*
X138802Y89550D01*
X138889Y89477D01*
X139021Y89375D01*
X139196Y89273D01*
X139385Y89201D01*
X139618Y89142D01*
X139881Y89113D01*
X139968D01*
X140070Y89128D01*
X140201Y89157D01*
X140347Y89186D01*
X140493Y89244D01*
X140639Y89317D01*
X140785Y89419D01*
X140799Y89434D01*
X140843Y89477D01*
X140901Y89550D01*
X140989Y89667D01*
X141076Y89813D01*
X141149Y90002D01*
X141237Y90236D01*
X141295Y90498D01*
X143190Y90177D01*
Y90163D01*
X143176Y90119D01*
X143161Y90046D01*
X143132Y89959D01*
X143088Y89857D01*
X143045Y89725D01*
X142928Y89434D01*
X142782Y89113D01*
X142578Y88792D01*
X142330Y88472D01*
X142184Y88326D01*
X142039Y88194D01*
X142024D01*
X141995Y88165D01*
X141951Y88136D01*
X141893Y88092D01*
X141805Y88049D01*
X141703Y87990D01*
X141587Y87932D01*
X141441Y87874D01*
X141295Y87801D01*
X141120Y87743D01*
X140945Y87684D01*
X140741Y87640D01*
X140522Y87597D01*
X140289Y87568D01*
X140056Y87553D01*
X139793Y87538D01*
X139633D01*
X139531Y87553D01*
X139400Y87568D01*
X139239Y87597D01*
X139064Y87626D01*
X138875Y87670D01*
X138671Y87713D01*
X138467Y87786D01*
X138248Y87859D01*
X138044Y87961D01*
X137825Y88078D01*
X137621Y88209D01*
X137431Y88369D01*
X137242Y88544D01*
X137227Y88559D01*
X137198Y88588D01*
X137154Y88646D01*
X137096Y88734D01*
X137023Y88836D01*
X136936Y88953D01*
X136863Y89098D01*
X136775Y89273D01*
X136673Y89463D01*
X136600Y89667D01*
X136513Y89900D01*
X136440Y90148D01*
X136381Y90425D01*
X136338Y90702D01*
X136309Y91023D01*
X136294Y91344D01*
Y91358D01*
Y91417D01*
Y91519D01*
X136309Y91635D01*
X136323Y91796D01*
X136338Y91971D01*
X136367Y92160D01*
X136411Y92379D01*
X136527Y92831D01*
X136600Y93064D01*
X136688Y93297D01*
X136804Y93531D01*
X136936Y93749D01*
X137081Y93954D01*
X137242Y94158D01*
X137256Y94172D01*
X137285Y94201D01*
X137344Y94245D01*
X137417Y94318D01*
X137519Y94391D01*
X137635Y94478D01*
X137767Y94581D01*
X137927Y94668D01*
X138102Y94770D01*
X138292Y94858D01*
X138510Y94945D01*
X138743Y95018D01*
X138977Y95091D01*
X139254Y95135D01*
X139531Y95164D01*
X139822Y95178D01*
X139954D01*
X140041Y95164D01*
D02*
G37*
G36*
X180180Y94056D02*
X180194Y94070D01*
X180224Y94099D01*
X180282Y94158D01*
X180340Y94231D01*
X180442Y94318D01*
X180544Y94406D01*
X180676Y94508D01*
X180807Y94624D01*
X180967Y94726D01*
X181142Y94828D01*
X181521Y95003D01*
X181725Y95076D01*
X181944Y95135D01*
X182177Y95164D01*
X182411Y95178D01*
X182527D01*
X182659Y95164D01*
X182819Y95149D01*
X183008Y95120D01*
X183198Y95062D01*
X183417Y95003D01*
X183621Y94916D01*
X183650Y94901D01*
X183708Y94872D01*
X183810Y94814D01*
X183927Y94741D01*
X184058Y94653D01*
X184189Y94551D01*
X184321Y94420D01*
X184437Y94289D01*
X184452Y94274D01*
X184481Y94216D01*
X184525Y94143D01*
X184583Y94041D01*
X184656Y93910D01*
X184714Y93764D01*
X184773Y93604D01*
X184816Y93429D01*
Y93414D01*
X184831Y93341D01*
X184845Y93225D01*
X184875Y93079D01*
X184889Y92875D01*
X184904Y92627D01*
X184918Y92335D01*
Y91985D01*
Y87699D01*
X182979D01*
Y91548D01*
Y91562D01*
Y91592D01*
Y91650D01*
Y91737D01*
Y91825D01*
Y91927D01*
X182965Y92160D01*
X182950Y92408D01*
X182936Y92656D01*
X182906Y92860D01*
X182877Y92933D01*
X182863Y93006D01*
Y93020D01*
X182833Y93064D01*
X182804Y93108D01*
X182775Y93181D01*
X182644Y93341D01*
X182571Y93429D01*
X182469Y93502D01*
X182454Y93516D01*
X182425Y93531D01*
X182352Y93560D01*
X182279Y93604D01*
X182177Y93633D01*
X182061Y93662D01*
X181915Y93677D01*
X181769Y93691D01*
X181682D01*
X181594Y93677D01*
X181477Y93662D01*
X181346Y93633D01*
X181201Y93589D01*
X181055Y93531D01*
X180909Y93443D01*
X180894Y93429D01*
X180851Y93400D01*
X180778Y93341D01*
X180705Y93268D01*
X180603Y93166D01*
X180515Y93050D01*
X180428Y92904D01*
X180355Y92743D01*
Y92729D01*
X180326Y92656D01*
X180297Y92554D01*
X180267Y92393D01*
X180238Y92204D01*
X180209Y91956D01*
X180194Y91679D01*
X180180Y91358D01*
Y87699D01*
X178241D01*
Y97788D01*
X180180D01*
Y94056D01*
D02*
G37*
G36*
X167656Y87699D02*
X165717D01*
Y95018D01*
X167656D01*
Y87699D01*
D02*
G37*
G36*
X159214Y89405D02*
X164288D01*
Y87699D01*
X157173D01*
Y97715D01*
X159214D01*
Y89405D01*
D02*
G37*
G36*
X126890Y87699D02*
X124951D01*
Y95018D01*
X126890D01*
Y87699D01*
D02*
G37*
G36*
X118944Y97773D02*
X119221Y97759D01*
X119527Y97744D01*
X119848Y97701D01*
X120154Y97657D01*
X120431Y97584D01*
X120446D01*
X120475Y97569D01*
X120519Y97555D01*
X120577Y97540D01*
X120752Y97467D01*
X120956Y97365D01*
X121189Y97234D01*
X121452Y97074D01*
X121700Y96884D01*
X121947Y96651D01*
X121962D01*
X121976Y96622D01*
X122049Y96534D01*
X122166Y96388D01*
X122297Y96199D01*
X122458Y95966D01*
X122618Y95689D01*
X122778Y95368D01*
X122910Y95018D01*
Y95003D01*
X122924Y94974D01*
X122939Y94916D01*
X122968Y94843D01*
X122983Y94755D01*
X123012Y94639D01*
X123041Y94508D01*
X123085Y94362D01*
X123114Y94201D01*
X123143Y94012D01*
X123172Y93822D01*
X123187Y93604D01*
X123230Y93152D01*
X123245Y92641D01*
Y92627D01*
Y92583D01*
Y92525D01*
Y92437D01*
X123230Y92321D01*
Y92204D01*
X123216Y92058D01*
X123201Y91898D01*
X123172Y91562D01*
X123114Y91212D01*
X123026Y90848D01*
X122924Y90498D01*
Y90483D01*
X122910Y90454D01*
X122880Y90396D01*
X122851Y90309D01*
X122822Y90221D01*
X122764Y90119D01*
X122647Y89857D01*
X122501Y89579D01*
X122312Y89273D01*
X122093Y88982D01*
X121845Y88705D01*
X121816Y88676D01*
X121743Y88617D01*
X121627Y88530D01*
X121466Y88413D01*
X121262Y88282D01*
X121029Y88151D01*
X120737Y88020D01*
X120416Y87903D01*
X120402D01*
X120387Y87888D01*
X120343D01*
X120300Y87874D01*
X120139Y87845D01*
X119935Y87801D01*
X119687Y87757D01*
X119381Y87728D01*
X119017Y87713D01*
X118623Y87699D01*
X114803D01*
Y97788D01*
X118827D01*
X118944Y97773D01*
D02*
G37*
G36*
X188913Y95018D02*
X190240D01*
Y93472D01*
X188913D01*
Y90513D01*
Y90498D01*
Y90469D01*
Y90425D01*
Y90367D01*
Y90221D01*
Y90046D01*
X188928Y89871D01*
Y89696D01*
Y89565D01*
X188942Y89507D01*
Y89477D01*
X188957Y89448D01*
X188986Y89390D01*
X189030Y89317D01*
X189117Y89230D01*
X189147Y89215D01*
X189205Y89186D01*
X189307Y89157D01*
X189438Y89142D01*
X189497D01*
X189555Y89157D01*
X189642Y89171D01*
X189759Y89186D01*
X189890Y89215D01*
X190050Y89259D01*
X190226Y89317D01*
X190400Y87815D01*
X190386D01*
X190371Y87801D01*
X190284Y87772D01*
X190138Y87728D01*
X189948Y87684D01*
X189730Y87626D01*
X189467Y87582D01*
X189176Y87553D01*
X188870Y87538D01*
X188782D01*
X188680Y87553D01*
X188549Y87568D01*
X188403Y87582D01*
X188243Y87611D01*
X188082Y87655D01*
X187922Y87713D01*
X187907Y87728D01*
X187849Y87743D01*
X187776Y87786D01*
X187689Y87830D01*
X187484Y87976D01*
X187382Y88063D01*
X187295Y88165D01*
X187280Y88180D01*
X187266Y88224D01*
X187237Y88282D01*
X187193Y88369D01*
X187149Y88472D01*
X187105Y88603D01*
X187062Y88749D01*
X187032Y88909D01*
Y88924D01*
X187018Y88982D01*
Y89069D01*
X187003Y89215D01*
X186989Y89405D01*
Y89638D01*
X186974Y89769D01*
Y89929D01*
Y90090D01*
Y90279D01*
Y93472D01*
X186085D01*
Y95018D01*
X186974D01*
Y96476D01*
X188913Y97613D01*
Y95018D01*
D02*
G37*
G36*
X172423Y95164D02*
X172525D01*
X172627Y95135D01*
X172773Y95120D01*
X172919Y95076D01*
X173079Y95033D01*
X173254Y94960D01*
X173429Y94887D01*
X173619Y94785D01*
X173808Y94668D01*
X173998Y94537D01*
X174188Y94362D01*
X174362Y94187D01*
X174537Y93968D01*
Y95018D01*
X176345D01*
Y88442D01*
Y88428D01*
Y88384D01*
Y88326D01*
Y88238D01*
Y88122D01*
X176331Y88005D01*
X176316Y87728D01*
X176287Y87407D01*
X176258Y87086D01*
X176199Y86780D01*
X176170Y86649D01*
X176127Y86518D01*
X176112Y86489D01*
X176083Y86416D01*
X176039Y86299D01*
X175966Y86153D01*
X175879Y85993D01*
X175777Y85818D01*
X175660Y85658D01*
X175514Y85512D01*
X175500Y85497D01*
X175441Y85453D01*
X175354Y85381D01*
X175252Y85308D01*
X175106Y85220D01*
X174931Y85118D01*
X174727Y85031D01*
X174494Y84943D01*
X174464Y84929D01*
X174377Y84914D01*
X174246Y84870D01*
X174056Y84841D01*
X173808Y84797D01*
X173531Y84754D01*
X173211Y84739D01*
X172861Y84724D01*
X172686D01*
X172555Y84739D01*
X172409D01*
X172234Y84754D01*
X172044Y84783D01*
X171840Y84812D01*
X171403Y84885D01*
X170965Y85001D01*
X170761Y85074D01*
X170557Y85162D01*
X170382Y85249D01*
X170222Y85366D01*
X170207Y85381D01*
X170193Y85395D01*
X170105Y85483D01*
X169974Y85614D01*
X169843Y85803D01*
X169697Y86037D01*
X169566Y86314D01*
X169478Y86634D01*
X169464Y86809D01*
X169449Y86984D01*
Y86999D01*
Y87057D01*
Y87130D01*
X169464Y87218D01*
X171680Y86955D01*
Y86941D01*
X171694Y86897D01*
X171709Y86824D01*
X171723Y86751D01*
X171796Y86576D01*
X171855Y86489D01*
X171928Y86430D01*
X171942Y86416D01*
X171986Y86401D01*
X172044Y86357D01*
X172146Y86328D01*
X172263Y86285D01*
X172409Y86241D01*
X172584Y86226D01*
X172788Y86212D01*
X172919D01*
X173050Y86226D01*
X173211Y86241D01*
X173400Y86270D01*
X173590Y86314D01*
X173765Y86372D01*
X173925Y86445D01*
X173940Y86459D01*
X173969Y86474D01*
X174012Y86503D01*
X174071Y86562D01*
X174129Y86634D01*
X174188Y86722D01*
X174246Y86824D01*
X174304Y86941D01*
Y86955D01*
X174319Y86984D01*
X174333Y87043D01*
X174362Y87145D01*
X174377Y87261D01*
X174392Y87407D01*
X174406Y87597D01*
Y87815D01*
Y88880D01*
X174392Y88865D01*
X174362Y88836D01*
X174319Y88778D01*
X174246Y88690D01*
X174173Y88603D01*
X174071Y88501D01*
X173940Y88399D01*
X173808Y88297D01*
X173663Y88180D01*
X173488Y88078D01*
X173123Y87888D01*
X172919Y87815D01*
X172700Y87757D01*
X172467Y87713D01*
X172219Y87699D01*
X172161D01*
X172073Y87713D01*
X171971D01*
X171855Y87743D01*
X171709Y87772D01*
X171548Y87801D01*
X171373Y87859D01*
X171199Y87917D01*
X171009Y88005D01*
X170805Y88107D01*
X170615Y88224D01*
X170426Y88369D01*
X170236Y88530D01*
X170061Y88719D01*
X169886Y88938D01*
Y88953D01*
X169857Y88982D01*
X169828Y89040D01*
X169784Y89113D01*
X169726Y89215D01*
X169668Y89332D01*
X169609Y89463D01*
X169551Y89623D01*
X169493Y89784D01*
X169434Y89973D01*
X169376Y90177D01*
X169318Y90396D01*
X169245Y90863D01*
X169230Y91125D01*
X169216Y91387D01*
Y91402D01*
Y91475D01*
Y91562D01*
X169230Y91694D01*
X169245Y91839D01*
X169259Y92014D01*
X169289Y92219D01*
X169332Y92423D01*
X169434Y92889D01*
X169507Y93123D01*
X169580Y93356D01*
X169682Y93575D01*
X169799Y93808D01*
X169930Y94012D01*
X170090Y94201D01*
X170105Y94216D01*
X170134Y94245D01*
X170178Y94289D01*
X170251Y94362D01*
X170338Y94435D01*
X170440Y94508D01*
X170557Y94595D01*
X170703Y94697D01*
X170849Y94785D01*
X171024Y94872D01*
X171388Y95033D01*
X171607Y95091D01*
X171826Y95135D01*
X172059Y95164D01*
X172292Y95178D01*
X172350D01*
X172423Y95164D01*
D02*
G37*
%LPC*%
G36*
X131500Y-1138D02*
X131485D01*
X131441Y-1145D01*
X131376Y-1152D01*
X131296Y-1174D01*
X131201Y-1203D01*
X131099Y-1254D01*
X131004Y-1320D01*
X130909Y-1415D01*
X130902Y-1429D01*
X130873Y-1466D01*
X130836Y-1531D01*
X130800Y-1619D01*
X130756Y-1736D01*
X130720Y-1874D01*
X130691Y-2035D01*
X130683Y-2224D01*
Y-2231D01*
Y-2253D01*
Y-2282D01*
X130691Y-2326D01*
Y-2377D01*
X130698Y-2435D01*
X130712Y-2567D01*
X130742Y-2720D01*
X130785Y-2873D01*
X130844Y-3011D01*
X130880Y-3077D01*
X130924Y-3135D01*
X130938Y-3150D01*
X130967Y-3179D01*
X131018Y-3230D01*
X131091Y-3281D01*
X131172Y-3332D01*
X131274Y-3383D01*
X131390Y-3412D01*
X131514Y-3427D01*
X131529D01*
X131573Y-3420D01*
X131631Y-3412D01*
X131711Y-3390D01*
X131799Y-3361D01*
X131893Y-3310D01*
X131988Y-3245D01*
X132076Y-3157D01*
X132083Y-3142D01*
X132112Y-3106D01*
X132149Y-3040D01*
X132192Y-2946D01*
X132207Y-2887D01*
X132229Y-2822D01*
X132250Y-2749D01*
X132265Y-2669D01*
X132280Y-2581D01*
X132294Y-2486D01*
X132302Y-2384D01*
Y-2275D01*
Y-2268D01*
Y-2246D01*
Y-2217D01*
Y-2180D01*
X132294Y-2129D01*
X132287Y-2078D01*
X132272Y-1954D01*
X132243Y-1816D01*
X132207Y-1670D01*
X132149Y-1539D01*
X132068Y-1422D01*
X132061Y-1407D01*
X132025Y-1378D01*
X131974Y-1335D01*
X131908Y-1276D01*
X131828Y-1225D01*
X131733Y-1182D01*
X131624Y-1152D01*
X131500Y-1138D01*
D02*
G37*
G36*
X127191D02*
X127177D01*
X127133Y-1145D01*
X127067Y-1152D01*
X126987Y-1174D01*
X126892Y-1203D01*
X126790Y-1254D01*
X126696Y-1320D01*
X126601Y-1415D01*
X126593Y-1429D01*
X126564Y-1466D01*
X126528Y-1531D01*
X126491Y-1619D01*
X126448Y-1736D01*
X126411Y-1874D01*
X126382Y-2035D01*
X126375Y-2224D01*
Y-2231D01*
Y-2253D01*
Y-2282D01*
X126382Y-2326D01*
Y-2377D01*
X126389Y-2435D01*
X126404Y-2567D01*
X126433Y-2720D01*
X126477Y-2873D01*
X126535Y-3011D01*
X126572Y-3077D01*
X126615Y-3135D01*
X126630Y-3150D01*
X126659Y-3179D01*
X126710Y-3230D01*
X126783Y-3281D01*
X126863Y-3332D01*
X126965Y-3383D01*
X127082Y-3412D01*
X127206Y-3427D01*
X127220D01*
X127264Y-3420D01*
X127322Y-3412D01*
X127403Y-3390D01*
X127490Y-3361D01*
X127585Y-3310D01*
X127680Y-3245D01*
X127767Y-3157D01*
X127775Y-3142D01*
X127804Y-3106D01*
X127840Y-3040D01*
X127884Y-2946D01*
X127898Y-2887D01*
X127920Y-2822D01*
X127942Y-2749D01*
X127957Y-2669D01*
X127971Y-2581D01*
X127986Y-2486D01*
X127993Y-2384D01*
Y-2275D01*
Y-2268D01*
Y-2246D01*
Y-2217D01*
Y-2180D01*
X127986Y-2129D01*
X127979Y-2078D01*
X127964Y-1954D01*
X127935Y-1816D01*
X127898Y-1670D01*
X127840Y-1539D01*
X127760Y-1422D01*
X127753Y-1407D01*
X127716Y-1378D01*
X127665Y-1335D01*
X127600Y-1276D01*
X127519Y-1225D01*
X127425Y-1182D01*
X127315Y-1152D01*
X127191Y-1138D01*
D02*
G37*
G36*
X152539Y-2362D02*
X152531D01*
X152502Y-2377D01*
X152458Y-2384D01*
X152393Y-2406D01*
X152313Y-2428D01*
X152203Y-2457D01*
X152087Y-2486D01*
X151941Y-2516D01*
X151926D01*
X151904Y-2523D01*
X151875Y-2530D01*
X151810Y-2545D01*
X151722Y-2567D01*
X151635Y-2589D01*
X151547Y-2618D01*
X151474Y-2654D01*
X151416Y-2683D01*
X151409Y-2691D01*
X151387Y-2705D01*
X151358Y-2734D01*
X151329Y-2771D01*
X151292Y-2822D01*
X151263Y-2880D01*
X151241Y-2946D01*
X151234Y-3019D01*
Y-3026D01*
Y-3055D01*
X151241Y-3091D01*
X151256Y-3135D01*
X151270Y-3194D01*
X151292Y-3252D01*
X151329Y-3310D01*
X151380Y-3368D01*
X151387Y-3376D01*
X151409Y-3390D01*
X151438Y-3412D01*
X151489Y-3441D01*
X151540Y-3471D01*
X151605Y-3492D01*
X151686Y-3507D01*
X151766Y-3514D01*
X151810D01*
X151861Y-3507D01*
X151926Y-3492D01*
X152006Y-3471D01*
X152087Y-3441D01*
X152181Y-3405D01*
X152269Y-3347D01*
X152276Y-3339D01*
X152298Y-3325D01*
X152327Y-3296D01*
X152364Y-3259D01*
X152400Y-3208D01*
X152437Y-3157D01*
X152473Y-3091D01*
X152495Y-3026D01*
Y-3019D01*
X152502Y-3004D01*
X152509Y-2968D01*
X152517Y-2924D01*
X152524Y-2858D01*
X152531Y-2778D01*
X152539Y-2676D01*
Y-2559D01*
Y-2362D01*
D02*
G37*
G36*
X138039D02*
X138031D01*
X138002Y-2377D01*
X137959Y-2384D01*
X137893Y-2406D01*
X137813Y-2428D01*
X137704Y-2457D01*
X137587Y-2486D01*
X137441Y-2516D01*
X137426D01*
X137405Y-2523D01*
X137375Y-2530D01*
X137310Y-2545D01*
X137222Y-2567D01*
X137135Y-2589D01*
X137047Y-2618D01*
X136975Y-2654D01*
X136916Y-2683D01*
X136909Y-2691D01*
X136887Y-2705D01*
X136858Y-2734D01*
X136829Y-2771D01*
X136792Y-2822D01*
X136763Y-2880D01*
X136741Y-2946D01*
X136734Y-3019D01*
Y-3026D01*
Y-3055D01*
X136741Y-3091D01*
X136756Y-3135D01*
X136770Y-3194D01*
X136792Y-3252D01*
X136829Y-3310D01*
X136880Y-3368D01*
X136887Y-3376D01*
X136909Y-3390D01*
X136938Y-3412D01*
X136989Y-3441D01*
X137040Y-3471D01*
X137106Y-3492D01*
X137186Y-3507D01*
X137266Y-3514D01*
X137310D01*
X137361Y-3507D01*
X137426Y-3492D01*
X137507Y-3471D01*
X137587Y-3441D01*
X137682Y-3405D01*
X137769Y-3347D01*
X137776Y-3339D01*
X137798Y-3325D01*
X137827Y-3296D01*
X137864Y-3259D01*
X137900Y-3208D01*
X137937Y-3157D01*
X137973Y-3091D01*
X137995Y-3026D01*
Y-3019D01*
X138002Y-3004D01*
X138010Y-2968D01*
X138017Y-2924D01*
X138024Y-2858D01*
X138031Y-2778D01*
X138039Y-2676D01*
Y-2559D01*
Y-2362D01*
D02*
G37*
G36*
X173023Y-1116D02*
X173009D01*
X172965Y-1123D01*
X172900Y-1130D01*
X172819Y-1152D01*
X172725Y-1182D01*
X172623Y-1233D01*
X172528Y-1298D01*
X172433Y-1386D01*
X172426Y-1400D01*
X172397Y-1437D01*
X172360Y-1502D01*
X172324Y-1590D01*
X172280Y-1706D01*
X172243Y-1845D01*
X172214Y-2013D01*
X172207Y-2209D01*
Y-2217D01*
Y-2231D01*
Y-2261D01*
Y-2304D01*
X172214Y-2348D01*
Y-2406D01*
X172229Y-2530D01*
X172251Y-2661D01*
X172280Y-2800D01*
X172324Y-2931D01*
X172382Y-3048D01*
Y-3055D01*
X172397Y-3062D01*
X172426Y-3106D01*
X172484Y-3164D01*
X172564Y-3237D01*
X172659Y-3310D01*
X172776Y-3368D01*
X172907Y-3412D01*
X172980Y-3420D01*
X173060Y-3427D01*
X173074D01*
X173111Y-3420D01*
X173177Y-3412D01*
X173249Y-3390D01*
X173337Y-3361D01*
X173424Y-3310D01*
X173519Y-3245D01*
X173607Y-3157D01*
X173614Y-3142D01*
X173643Y-3106D01*
X173680Y-3040D01*
X173723Y-2946D01*
X173767Y-2829D01*
X173803Y-2683D01*
X173818Y-2596D01*
X173833Y-2501D01*
X173840Y-2406D01*
Y-2297D01*
Y-2290D01*
Y-2268D01*
Y-2239D01*
Y-2195D01*
X173833Y-2144D01*
X173825Y-2086D01*
X173811Y-1947D01*
X173782Y-1801D01*
X173745Y-1648D01*
X173687Y-1510D01*
X173651Y-1451D01*
X173607Y-1393D01*
X173599Y-1378D01*
X173563Y-1349D01*
X173519Y-1306D01*
X173446Y-1254D01*
X173366Y-1203D01*
X173264Y-1160D01*
X173155Y-1130D01*
X173023Y-1116D01*
D02*
G37*
G36*
X162548D02*
X162497D01*
X162438Y-1130D01*
X162365Y-1145D01*
X162285Y-1174D01*
X162198Y-1211D01*
X162110Y-1269D01*
X162030Y-1349D01*
X162023Y-1357D01*
X162001Y-1393D01*
X161965Y-1444D01*
X161928Y-1517D01*
X161884Y-1604D01*
X161855Y-1714D01*
X161833Y-1838D01*
X161826Y-1976D01*
X163269D01*
Y-1969D01*
Y-1954D01*
Y-1940D01*
X163262Y-1911D01*
X163255Y-1830D01*
X163240Y-1743D01*
X163211Y-1641D01*
X163175Y-1531D01*
X163116Y-1429D01*
X163051Y-1342D01*
X163043Y-1335D01*
X163014Y-1306D01*
X162971Y-1269D01*
X162912Y-1225D01*
X162839Y-1189D01*
X162752Y-1152D01*
X162657Y-1123D01*
X162548Y-1116D01*
D02*
G37*
G36*
X122803Y-1160D02*
X122766D01*
X122737Y-1167D01*
X122671Y-1174D01*
X122584Y-1196D01*
X122482Y-1233D01*
X122373Y-1284D01*
X122263Y-1357D01*
X122161Y-1451D01*
X122154Y-1466D01*
X122125Y-1502D01*
X122081Y-1575D01*
X122037Y-1663D01*
X121986Y-1779D01*
X121950Y-1925D01*
X121921Y-2093D01*
X121906Y-2282D01*
Y-2290D01*
Y-2304D01*
Y-2333D01*
X121913Y-2370D01*
Y-2421D01*
X121921Y-2472D01*
X121935Y-2589D01*
X121972Y-2727D01*
X122015Y-2866D01*
X122074Y-3004D01*
X122161Y-3121D01*
X122176Y-3135D01*
X122205Y-3164D01*
X122263Y-3208D01*
X122343Y-3259D01*
X122431Y-3317D01*
X122540Y-3361D01*
X122664Y-3390D01*
X122803Y-3405D01*
X122839D01*
X122868Y-3398D01*
X122934Y-3390D01*
X123021Y-3368D01*
X123124Y-3332D01*
X123233Y-3288D01*
X123335Y-3215D01*
X123437Y-3121D01*
X123451Y-3106D01*
X123481Y-3070D01*
X123517Y-2997D01*
X123568Y-2909D01*
X123619Y-2785D01*
X123656Y-2647D01*
X123685Y-2472D01*
X123699Y-2282D01*
Y-2275D01*
Y-2261D01*
Y-2231D01*
X123692Y-2195D01*
Y-2151D01*
X123685Y-2093D01*
X123670Y-1976D01*
X123634Y-1845D01*
X123590Y-1706D01*
X123524Y-1568D01*
X123437Y-1451D01*
X123422Y-1437D01*
X123393Y-1407D01*
X123335Y-1357D01*
X123262Y-1306D01*
X123167Y-1254D01*
X123065Y-1203D01*
X122941Y-1174D01*
X122803Y-1160D01*
D02*
G37*
G36*
X154062Y16972D02*
X154019D01*
X153975Y16957D01*
X153917Y16942D01*
X153771Y16899D01*
X153698Y16840D01*
X153625Y16782D01*
Y16767D01*
X153596Y16753D01*
X153537Y16665D01*
X153479Y16534D01*
X153464Y16447D01*
X153450Y16359D01*
Y16345D01*
Y16315D01*
X153464Y16272D01*
X153479Y16213D01*
X153523Y16068D01*
X153567Y15995D01*
X153625Y15922D01*
X153639D01*
X153654Y15893D01*
X153742Y15834D01*
X153887Y15776D01*
X153975Y15761D01*
X154062Y15747D01*
X154106D01*
X154150Y15761D01*
X154208Y15776D01*
X154339Y15820D01*
X154412Y15864D01*
X154485Y15922D01*
X154500Y15936D01*
X154514Y15951D01*
X154587Y16038D01*
X154646Y16184D01*
X154660Y16272D01*
X154675Y16359D01*
Y16374D01*
Y16403D01*
X154660Y16447D01*
X154646Y16505D01*
X154602Y16636D01*
X154543Y16709D01*
X154485Y16782D01*
X154471Y16797D01*
X154456Y16811D01*
X154368Y16884D01*
X154237Y16942D01*
X154150Y16957D01*
X154062Y16972D01*
D02*
G37*
G36*
X146058Y12685D02*
X146029D01*
X145941Y12670D01*
X145810Y12656D01*
X145650Y12612D01*
X145460Y12554D01*
X145256Y12452D01*
X145066Y12320D01*
X144877Y12131D01*
X144862Y12102D01*
X144804Y12029D01*
X144731Y11898D01*
X144658Y11723D01*
X144571Y11490D01*
X144498Y11212D01*
X144439Y10892D01*
X144425Y10513D01*
Y10498D01*
Y10454D01*
Y10396D01*
X144439Y10308D01*
Y10206D01*
X144454Y10090D01*
X144483Y9827D01*
X144542Y9521D01*
X144629Y9215D01*
X144746Y8938D01*
X144819Y8807D01*
X144906Y8690D01*
X144935Y8661D01*
X144994Y8603D01*
X145096Y8501D01*
X145241Y8399D01*
X145402Y8296D01*
X145606Y8194D01*
X145839Y8136D01*
X146087Y8107D01*
X146116D01*
X146204Y8122D01*
X146320Y8136D01*
X146481Y8180D01*
X146656Y8238D01*
X146845Y8340D01*
X147035Y8471D01*
X147210Y8646D01*
X147224Y8676D01*
X147283Y8748D01*
X147355Y8880D01*
X147443Y9069D01*
X147472Y9186D01*
X147516Y9317D01*
X147560Y9463D01*
X147589Y9623D01*
X147618Y9798D01*
X147647Y9988D01*
X147662Y10192D01*
Y10411D01*
Y10425D01*
Y10469D01*
Y10527D01*
Y10600D01*
X147647Y10702D01*
X147633Y10804D01*
X147603Y11052D01*
X147545Y11329D01*
X147472Y11621D01*
X147355Y11883D01*
X147195Y12116D01*
X147180Y12146D01*
X147108Y12204D01*
X147006Y12291D01*
X146874Y12408D01*
X146714Y12510D01*
X146525Y12597D01*
X146306Y12656D01*
X146058Y12685D01*
D02*
G37*
G36*
X155214Y10236D02*
X155200D01*
X155141Y10206D01*
X155054Y10192D01*
X154922Y10148D01*
X154762Y10104D01*
X154543Y10046D01*
X154310Y9988D01*
X154019Y9929D01*
X153989D01*
X153946Y9915D01*
X153887Y9900D01*
X153756Y9871D01*
X153581Y9827D01*
X153406Y9784D01*
X153231Y9725D01*
X153085Y9652D01*
X152969Y9594D01*
X152954Y9579D01*
X152910Y9550D01*
X152852Y9492D01*
X152794Y9419D01*
X152721Y9317D01*
X152663Y9200D01*
X152619Y9069D01*
X152604Y8923D01*
Y8909D01*
Y8850D01*
X152619Y8778D01*
X152648Y8690D01*
X152677Y8574D01*
X152721Y8457D01*
X152794Y8340D01*
X152896Y8224D01*
X152910Y8209D01*
X152954Y8180D01*
X153013Y8136D01*
X153115Y8078D01*
X153217Y8019D01*
X153348Y7976D01*
X153508Y7947D01*
X153669Y7932D01*
X153756D01*
X153858Y7947D01*
X153989Y7976D01*
X154150Y8019D01*
X154310Y8078D01*
X154500Y8151D01*
X154675Y8267D01*
X154689Y8282D01*
X154733Y8311D01*
X154791Y8369D01*
X154864Y8442D01*
X154937Y8544D01*
X155010Y8646D01*
X155083Y8778D01*
X155127Y8909D01*
Y8923D01*
X155141Y8952D01*
X155156Y9025D01*
X155170Y9113D01*
X155185Y9244D01*
X155200Y9404D01*
X155214Y9609D01*
Y9842D01*
Y10236D01*
D02*
G37*
G36*
X125850Y12729D02*
X125748D01*
X125631Y12700D01*
X125486Y12670D01*
X125325Y12612D01*
X125150Y12539D01*
X124975Y12423D01*
X124815Y12262D01*
X124800Y12248D01*
X124757Y12175D01*
X124684Y12073D01*
X124611Y11927D01*
X124523Y11752D01*
X124465Y11533D01*
X124421Y11285D01*
X124407Y11008D01*
X127293Y11008D01*
Y11023D01*
Y11052D01*
Y11081D01*
X127279Y11140D01*
X127264Y11300D01*
X127235Y11475D01*
X127177Y11679D01*
X127104Y11898D01*
X126987Y12102D01*
X126856Y12277D01*
X126841Y12291D01*
X126783Y12350D01*
X126696Y12423D01*
X126579Y12510D01*
X126433Y12583D01*
X126258Y12656D01*
X126069Y12714D01*
X125850Y12729D01*
D02*
G37*
G36*
X147929Y93691D02*
X147856D01*
X147798Y93677D01*
X147652Y93662D01*
X147477Y93618D01*
X147273Y93545D01*
X147054Y93429D01*
X146835Y93283D01*
X146617Y93079D01*
X146588Y93050D01*
X146529Y92962D01*
X146442Y92831D01*
X146354Y92641D01*
X146252Y92408D01*
X146165Y92116D01*
X146106Y91781D01*
X146077Y91402D01*
Y91373D01*
Y91285D01*
X146092Y91154D01*
X146106Y90994D01*
X146121Y90804D01*
X146165Y90600D01*
X146209Y90396D01*
X146267Y90177D01*
X148979Y93312D01*
X148964Y93327D01*
X148906Y93370D01*
X148804Y93429D01*
X148672Y93502D01*
X148527Y93575D01*
X148352Y93633D01*
X148148Y93677D01*
X147929Y93691D01*
D02*
G37*
G36*
X149576Y92466D02*
X146879Y89361D01*
X146894Y89346D01*
X146967Y89317D01*
X147054Y89259D01*
X147185Y89201D01*
X147331Y89142D01*
X147506Y89084D01*
X147696Y89055D01*
X147914Y89040D01*
X147987D01*
X148046Y89055D01*
X148191Y89069D01*
X148381Y89113D01*
X148585Y89186D01*
X148804Y89288D01*
X149022Y89434D01*
X149241Y89623D01*
X149270Y89652D01*
X149329Y89740D01*
X149416Y89871D01*
X149518Y90061D01*
X149606Y90294D01*
X149693Y90571D01*
X149751Y90906D01*
X149781Y91285D01*
Y91300D01*
Y91315D01*
Y91402D01*
X149766Y91519D01*
X149751Y91679D01*
X149737Y91869D01*
X149693Y92058D01*
X149649Y92262D01*
X149576Y92466D01*
D02*
G37*
G36*
X118171Y96082D02*
X116844D01*
Y89405D01*
X118638D01*
X118827Y89419D01*
X119031D01*
X119236Y89448D01*
X119425Y89463D01*
X119585Y89492D01*
X119615D01*
X119673Y89521D01*
X119760Y89550D01*
X119877Y89594D01*
X120008Y89652D01*
X120139Y89725D01*
X120271Y89813D01*
X120402Y89915D01*
X120416Y89929D01*
X120460Y89973D01*
X120519Y90046D01*
X120591Y90148D01*
X120664Y90279D01*
X120766Y90440D01*
X120839Y90644D01*
X120927Y90877D01*
Y90892D01*
X120941Y90906D01*
Y90950D01*
X120956Y91008D01*
X120985Y91067D01*
X121000Y91154D01*
X121043Y91373D01*
X121072Y91635D01*
X121116Y91941D01*
X121131Y92321D01*
X121145Y92729D01*
Y92743D01*
Y92787D01*
Y92845D01*
Y92918D01*
Y93020D01*
X121131Y93137D01*
X121116Y93385D01*
X121087Y93677D01*
X121058Y93983D01*
X121000Y94260D01*
X120927Y94522D01*
Y94537D01*
X120912Y94551D01*
X120883Y94624D01*
X120839Y94741D01*
X120781Y94887D01*
X120694Y95033D01*
X120591Y95193D01*
X120475Y95353D01*
X120343Y95499D01*
X120329Y95514D01*
X120285Y95557D01*
X120198Y95616D01*
X120096Y95689D01*
X119950Y95776D01*
X119790Y95849D01*
X119615Y95922D01*
X119410Y95980D01*
X119396D01*
X119323Y95995D01*
X119206Y96009D01*
X119046Y96039D01*
X118944D01*
X118813Y96053D01*
X118681D01*
X118536Y96068D01*
X118361D01*
X118171Y96082D01*
D02*
G37*
G36*
X172788Y93691D02*
X172759D01*
X172671Y93677D01*
X172540Y93662D01*
X172380Y93618D01*
X172205Y93560D01*
X172001Y93458D01*
X171811Y93327D01*
X171636Y93137D01*
X171621Y93108D01*
X171563Y93035D01*
X171505Y92904D01*
X171417Y92729D01*
X171344Y92496D01*
X171272Y92219D01*
X171213Y91883D01*
X171199Y91489D01*
Y91475D01*
Y91446D01*
Y91373D01*
X171213Y91300D01*
Y91212D01*
X171228Y91096D01*
X171257Y90848D01*
X171301Y90571D01*
X171388Y90294D01*
X171490Y90031D01*
X171636Y89798D01*
X171651Y89769D01*
X171723Y89711D01*
X171811Y89623D01*
X171942Y89536D01*
X172102Y89434D01*
X172292Y89346D01*
X172511Y89288D01*
X172744Y89259D01*
X172773D01*
X172861Y89273D01*
X172992Y89288D01*
X173167Y89332D01*
X173356Y89390D01*
X173546Y89492D01*
X173750Y89623D01*
X173940Y89813D01*
X173954Y89842D01*
X174012Y89915D01*
X174100Y90046D01*
X174188Y90221D01*
X174275Y90454D01*
X174362Y90731D01*
X174421Y91067D01*
X174435Y91446D01*
Y91460D01*
Y91489D01*
Y91548D01*
Y91635D01*
X174421Y91723D01*
X174406Y91839D01*
X174377Y92087D01*
X174319Y92364D01*
X174246Y92641D01*
X174129Y92904D01*
X173969Y93137D01*
X173954Y93166D01*
X173881Y93225D01*
X173779Y93312D01*
X173648Y93414D01*
X173473Y93516D01*
X173269Y93604D01*
X173050Y93662D01*
X172788Y93691D01*
D02*
G37*
%LPD*%
D10*
X2799Y41063D02*
X2012D01*
X2799D01*
X179535Y61492D02*
X178748D01*
X179535D01*
X131595Y61496D02*
X130807D01*
X131595D01*
X41984Y100657D02*
X41197D01*
X41984D01*
X18484D02*
X17697D01*
X18484D01*
X65484D02*
X64697D01*
X65484D01*
X88984D02*
X88197D01*
X88984D01*
X112484D02*
X111697D01*
X112484D01*
X135984D02*
X135197D01*
X135984D01*
X159484D02*
X158697D01*
X159484D01*
X182984Y100657D02*
X182197D01*
X182984D01*
X206484Y100657D02*
X205697D01*
X206484D01*
X229984Y100657D02*
X229196D01*
X229984D01*
X300709Y94528D02*
X300682Y95527D01*
X300604Y96523D01*
X300474Y97515D01*
X300291Y98497D01*
X300058Y99470D01*
X299774Y100428D01*
X299440Y101370D01*
X299058Y102294D01*
X298627Y103196D01*
X298150Y104075D01*
X297628Y104927D01*
X297062Y105751D01*
X296453Y106544D01*
X295804Y107304D01*
X295116Y108029D01*
X294391Y108718D01*
X293631Y109367D01*
X292838Y109975D01*
X292014Y110542D01*
X291161Y111064D01*
X290283Y111541D01*
X289381Y111971D01*
X288457Y112354D01*
X287515Y112688D01*
X286556Y112971D01*
X285584Y113205D01*
X284601Y113387D01*
X283610Y113517D01*
X282613Y113596D01*
X281614Y113622D01*
X280615Y113596D01*
X279618Y113517D01*
X278627Y113387D01*
X277644Y113205D01*
X276672Y112971D01*
X275714Y112688D01*
X274771Y112354D01*
X273848Y111971D01*
X272945Y111541D01*
X272067Y111064D01*
X271215Y110542D01*
X270391Y109975D01*
X269598Y109367D01*
X268837Y108718D01*
X268112Y108029D01*
X267424Y107304D01*
X266775Y106544D01*
X266166Y105751D01*
X265600Y104927D01*
X265078Y104075D01*
X264601Y103196D01*
X264171Y102294D01*
X263788Y101370D01*
X263454Y100428D01*
X263170Y99470D01*
X262937Y98497D01*
X262755Y97515D01*
X262624Y96523D01*
X262546Y95527D01*
X262520Y94528D01*
X262546Y93528D01*
X262624Y92532D01*
X262755Y91540D01*
X262937Y90558D01*
X263170Y89586D01*
X263454Y88627D01*
X263788Y87685D01*
X264171Y86761D01*
X264601Y85859D01*
X265078Y84980D01*
X265600Y84128D01*
X266166Y83304D01*
X266775Y82511D01*
X267424Y81751D01*
X268112Y81026D01*
X268837Y80338D01*
X269598Y79688D01*
X270391Y79080D01*
X271215Y78514D01*
X272067Y77991D01*
X272945Y77514D01*
X273848Y77084D01*
X274771Y76701D01*
X275714Y76368D01*
X276672Y76084D01*
X277644Y75850D01*
X278627Y75668D01*
X279618Y75538D01*
X280615Y75459D01*
X281614Y75433D01*
X282613Y75459D01*
X283610Y75538D01*
X284601Y75668D01*
X285584Y75850D01*
X286556Y76084D01*
X287515Y76368D01*
X288457Y76701D01*
X289381Y77084D01*
X290283Y77514D01*
X291161Y77991D01*
X292014Y78514D01*
X292838Y79080D01*
X293631Y79688D01*
X294391Y80338D01*
X295116Y81026D01*
X295804Y81751D01*
X296453Y82511D01*
X297062Y83304D01*
X297628Y84128D01*
X298150Y84980D01*
X298627Y85859D01*
X299058Y86761D01*
X299440Y87685D01*
X299774Y88627D01*
X300058Y89586D01*
X300291Y90558D01*
X300474Y91540D01*
X300604Y92532D01*
X300682Y93528D01*
X300709Y94528D01*
X129939Y128498D02*
X132991D01*
X129939Y137553D02*
X132991D01*
X112091Y128498D02*
X115143D01*
X112091D02*
Y128892D01*
Y129807D01*
X112091Y137553D02*
X115143D01*
X112091D02*
X112091Y136146D01*
Y129807D02*
Y136146D01*
X132991Y128498D02*
X132991Y137553D01*
X247439Y128498D02*
X250491D01*
X247439Y137553D02*
X250491D01*
X229591Y128498D02*
X232643D01*
X229591D02*
Y128892D01*
Y129807D01*
X229591Y137553D02*
X232643D01*
X229591D02*
X229591Y136146D01*
Y129807D02*
Y136146D01*
X250491Y128498D02*
X250491Y137553D01*
X223939Y128498D02*
X226991D01*
X223939Y137553D02*
X226991D01*
X206091Y128498D02*
X209143D01*
X206091D02*
Y128892D01*
Y129807D01*
X206091Y137553D02*
X209143D01*
X206091D02*
X206091Y136146D01*
Y129807D02*
Y136146D01*
X226991Y128498D02*
X226991Y137553D01*
X200439Y128498D02*
X203491D01*
X200439Y137553D02*
X203491D01*
X182591Y128498D02*
X185643D01*
X182591D02*
Y128892D01*
Y129807D01*
X182591Y137553D02*
X185643D01*
X182591D02*
X182591Y136146D01*
Y129807D02*
Y136146D01*
X203491Y128498D02*
X203491Y137553D01*
X176939Y128498D02*
X179991D01*
X176939Y137553D02*
X179991D01*
X159091Y128498D02*
X162143D01*
X159091D02*
Y128892D01*
Y129807D01*
X159091Y137553D02*
X162143D01*
X159091D02*
X159091Y136146D01*
Y129807D02*
Y136146D01*
X179991Y128498D02*
X179991Y137553D01*
X153439Y128498D02*
X156491D01*
X153439Y137553D02*
X156491D01*
X135591Y128498D02*
X138643D01*
X135591D02*
Y128892D01*
Y129807D01*
Y137553D02*
X138643D01*
X135591Y136146D02*
Y137553D01*
Y129807D02*
Y136146D01*
X156491Y128498D02*
Y137553D01*
X106439Y128498D02*
X109491D01*
X106439Y137553D02*
X109491D01*
X88591Y128498D02*
X91643D01*
X88591D02*
Y128892D01*
Y129807D01*
X88591Y137553D02*
X91643D01*
X88591D02*
X88591Y136146D01*
Y129807D02*
Y136146D01*
X109491Y128498D02*
X109491Y137553D01*
X82939Y128498D02*
X85991D01*
X82939Y137553D02*
X85991D01*
X65091Y128498D02*
X68143D01*
X65091D02*
Y128892D01*
Y129807D01*
X65091Y137553D02*
X68143D01*
X65091D02*
X65091Y136146D01*
Y129807D02*
Y136146D01*
X85991Y128498D02*
X85991Y137553D01*
X59439Y128498D02*
X62491D01*
X59439Y137553D02*
X62491D01*
X41591Y128498D02*
X44643D01*
X41591D02*
Y128892D01*
Y129807D01*
X41591Y137553D02*
X44643D01*
X41591D02*
X41591Y136146D01*
Y129807D02*
Y136146D01*
X62491Y128498D02*
X62491Y137553D01*
X35920Y128518D02*
X38972D01*
X35920Y137573D02*
X38972D01*
X18072Y128518D02*
X21124D01*
X18072D02*
Y128911D01*
Y129827D01*
X18072Y137573D02*
X21124D01*
X18072D02*
X18072Y136165D01*
Y129827D02*
Y136165D01*
X38972Y128518D02*
X38972Y137573D01*
D11*
X99380Y74807D02*
X98367Y74727D01*
X97373Y74517D01*
X96415Y74179D01*
X95509Y73721D01*
X94670Y73148D01*
X93912Y72472D01*
X93248Y71703D01*
X92689Y70855D01*
X92245Y69942D01*
X91923Y68978D01*
X91728Y67981D01*
X91664Y66967D01*
X91732Y65954D01*
X91931Y64958D01*
X92258Y63996D01*
X92706Y63084D01*
X93268Y62238D01*
X93936Y61472D01*
X94696Y60799D01*
X95538Y60231D01*
X96446Y59776D01*
X97406Y59443D01*
X98401Y59236D01*
X99414Y59161D01*
X245492Y48390D02*
X246468Y48486D01*
X247406Y48770D01*
X248270Y49232D01*
X249028Y49854D01*
X249650Y50612D01*
X250112Y51476D01*
X250396Y52414D01*
X250492Y53390D01*
X250396Y54365D01*
X250112Y55303D01*
X249650Y56168D01*
X249028Y56925D01*
X248270Y57547D01*
X247406Y58009D01*
X246468Y58294D01*
X245492Y58390D01*
X99488Y53866D02*
Y80071D01*
X244980Y44490D02*
Y62340D01*
Y44490D02*
X284042D01*
Y62340D01*
X244980D02*
X284042D01*
X111084Y41803D02*
X120785D01*
X111084D02*
Y44524D01*
X106757D02*
X111084D01*
X102430D02*
X106757D01*
X102430Y41803D02*
Y44524D01*
X92730Y41803D02*
X102430D01*
D12*
X158749Y73587D02*
X158986Y73685D01*
X206650Y73543D02*
X206888Y73642D01*
X206611Y61181D02*
X206848Y61279D01*
X158670Y61185D02*
X158907Y61283D01*
X158986Y73685D02*
Y82967D01*
X129311Y73587D02*
X158749D01*
X129311D02*
X129311Y82967D01*
X158986D01*
X177213Y82923D02*
X206888D01*
X177213Y73543D02*
X177213Y82923D01*
X177213Y73543D02*
X206650D01*
X206888Y73642D02*
Y82923D01*
X206848Y70561D02*
X206848Y61279D01*
X177173Y61181D02*
X206611D01*
X177173D02*
X177173Y70561D01*
X206848D01*
X129232Y70565D02*
X158907D01*
X129232D02*
X129232Y61185D01*
X158670D01*
X158907Y61283D02*
X158907Y70565D01*
X63938Y42728D02*
X63085Y43581D01*
X61379D01*
X60527Y42728D01*
Y39317D01*
X61379Y38465D01*
X63085D01*
X63938Y39317D01*
X69054Y38465D02*
X65643D01*
X69054Y41875D01*
Y42728D01*
X68201Y43581D01*
X66496D01*
X65643Y42728D01*
X74171Y43581D02*
X70760D01*
Y41023D01*
X72465Y41875D01*
X73318D01*
X74171Y41023D01*
Y39317D01*
X73318Y38465D01*
X71612D01*
X70760Y39317D01*
X74211Y94824D02*
X73358Y95676D01*
X71653D01*
X70800Y94824D01*
Y91413D01*
X71653Y90560D01*
X73358D01*
X74211Y91413D01*
X79327Y90560D02*
X75916D01*
X79327Y93971D01*
Y94824D01*
X78475Y95676D01*
X76769D01*
X75916Y94824D01*
X83591Y90560D02*
Y95676D01*
X81033Y93118D01*
X84444D01*
X260227Y55981D02*
Y51717D01*
X261080Y50865D01*
X262785D01*
X263638Y51717D01*
Y55981D01*
X268754D02*
X265343D01*
Y53423D01*
X267049Y54276D01*
X267901D01*
X268754Y53423D01*
Y51717D01*
X267901Y50865D01*
X266196D01*
X265343Y51717D01*
X18426Y4899D02*
Y10015D01*
X20984D01*
X21837Y9162D01*
Y7457D01*
X20984Y6604D01*
X18426D01*
X23542Y10015D02*
Y4899D01*
X25248Y6604D01*
X26954Y4899D01*
Y10015D01*
X28659Y4899D02*
Y10015D01*
X31217D01*
X32070Y9162D01*
Y7457D01*
X31217Y6604D01*
X28659D01*
X30365D02*
X32070Y4899D01*
X209776Y36695D02*
X214893D01*
Y39253D01*
X214040Y40106D01*
X213187D01*
X212335Y39253D01*
Y36695D01*
Y39253D01*
X211482Y40106D01*
X210629D01*
X209776Y39253D01*
Y36695D01*
Y41811D02*
Y45222D01*
Y43517D01*
X214893D01*
Y46927D02*
X209776D01*
X214893Y50339D01*
X209776D01*
X214893Y55455D02*
Y52044D01*
X211482Y55455D01*
X210629D01*
X209776Y54602D01*
Y52897D01*
X210629Y52044D01*
X161969Y37449D02*
X167086D01*
Y40007D01*
X166233Y40860D01*
X165380D01*
X164527Y40007D01*
Y37449D01*
Y40007D01*
X163675Y40860D01*
X162822D01*
X161969Y40007D01*
Y37449D01*
Y42565D02*
Y45976D01*
Y44271D01*
X167086D01*
Y47682D02*
X161969D01*
X167086Y51093D01*
X161969D01*
X167086Y52798D02*
Y54504D01*
Y53651D01*
X161969D01*
X162822Y52798D01*
X187727Y75665D02*
Y80781D01*
X190285D01*
X191138Y79928D01*
Y78223D01*
X190285Y77370D01*
X187727D01*
X189432D02*
X191138Y75665D01*
X195401D02*
Y80781D01*
X192843Y78223D01*
X196254D01*
X139827Y75765D02*
Y80881D01*
X142385D01*
X143238Y80028D01*
Y78323D01*
X142385Y77470D01*
X139827D01*
X141532D02*
X143238Y75765D01*
X144943Y80028D02*
X145796Y80881D01*
X147501D01*
X148354Y80028D01*
Y79176D01*
X147501Y78323D01*
X146649D01*
X147501D01*
X148354Y77470D01*
Y76617D01*
X147501Y75765D01*
X145796D01*
X144943Y76617D01*
X187627Y63265D02*
Y68381D01*
X190185D01*
X191038Y67528D01*
Y65823D01*
X190185Y64970D01*
X187627D01*
X189332D02*
X191038Y63265D01*
X196154D02*
X192743D01*
X196154Y66676D01*
Y67528D01*
X195301Y68381D01*
X193596D01*
X192743Y67528D01*
X140627Y63365D02*
Y68481D01*
X143185D01*
X144038Y67628D01*
Y65923D01*
X143185Y65070D01*
X140627D01*
X142332D02*
X144038Y63365D01*
X145743D02*
X147449D01*
X146596D01*
Y68481D01*
X145743Y67628D01*
D13*
X288862Y115957D02*
X288075D01*
X288862D01*
D14*
X3390Y20669D02*
Y29929D01*
X6634Y13488D02*
X23768D01*
X27012Y20669D02*
Y29929D01*
X6634Y37110D02*
X23768D01*
X183370Y57539D02*
X200504D01*
X203748Y41098D02*
Y50358D01*
X183370Y33917D02*
X200504D01*
X180126Y41098D02*
Y50358D01*
X135429Y57543D02*
X152563D01*
X155807Y41102D02*
Y50362D01*
X135429Y33921D02*
X152563D01*
X132185Y41102D02*
Y50362D01*
D15*
X38784Y15683D02*
X40846D01*
Y14652D01*
X40502Y14308D01*
X39815D01*
X39471Y14652D01*
Y15683D01*
Y14995D02*
X38784Y14308D01*
Y12246D02*
Y13621D01*
X40159Y12246D01*
X40502D01*
X40846Y12589D01*
Y13277D01*
X40502Y13621D01*
X40846Y10183D02*
X40502Y10871D01*
X39815Y11558D01*
X39127D01*
X38784Y11214D01*
Y10527D01*
X39127Y10183D01*
X39471D01*
X39815Y10527D01*
Y11558D01*
X33527Y39565D02*
Y41627D01*
X34558D01*
X34902Y41283D01*
Y40596D01*
X34558Y40252D01*
X33527D01*
X34214D02*
X34902Y39565D01*
X36964D02*
X35589D01*
X36964Y40939D01*
Y41283D01*
X36620Y41627D01*
X35933D01*
X35589Y41283D01*
X37651D02*
X37995Y41627D01*
X38683D01*
X39026Y41283D01*
Y39908D01*
X38683Y39565D01*
X37995D01*
X37651Y39908D01*
Y41283D01*
X39302Y36315D02*
X38958Y36658D01*
X38271D01*
X37927Y36315D01*
Y34940D01*
X38271Y34596D01*
X38958D01*
X39302Y34940D01*
X41364Y34596D02*
X39989D01*
X41364Y35971D01*
Y36315D01*
X41020Y36658D01*
X40333D01*
X39989Y36315D01*
X42051Y36658D02*
X43426D01*
Y36315D01*
X42051Y34940D01*
Y34596D01*
X38339Y95611D02*
Y97673D01*
X39371D01*
X39714Y97329D01*
Y96642D01*
X39371Y96298D01*
X38339D01*
X39027D02*
X39714Y95611D01*
X40402D02*
X41089D01*
X40745D01*
Y97673D01*
X40402Y97329D01*
X42120Y95954D02*
X42464Y95611D01*
X43152D01*
X43495Y95954D01*
Y97329D01*
X43152Y97673D01*
X42464D01*
X42120Y97329D01*
Y96986D01*
X42464Y96642D01*
X43495D01*
X26723Y91161D02*
Y89099D01*
X28098D01*
X30160Y91161D02*
X28785D01*
Y89099D01*
X30160D01*
X28785Y90130D02*
X29473D01*
X30848Y91161D02*
Y89099D01*
X31879D01*
X32223Y89442D01*
Y90817D01*
X31879Y91161D01*
X30848D01*
X32910Y90817D02*
X33254Y91161D01*
X33941D01*
X34285Y90817D01*
Y90474D01*
X33941Y90130D01*
X33597D01*
X33941D01*
X34285Y89786D01*
Y89442D01*
X33941Y89099D01*
X33254D01*
X32910Y89442D01*
X249502Y90383D02*
X249158Y90727D01*
X248470D01*
X248127Y90383D01*
Y89008D01*
X248470Y88665D01*
X249158D01*
X249502Y89008D01*
X251564Y88665D02*
X250189D01*
X251564Y90039D01*
Y90383D01*
X251220Y90727D01*
X250533D01*
X250189Y90383D01*
X253626Y90727D02*
X252939Y90383D01*
X252251Y89696D01*
Y89008D01*
X252595Y88665D01*
X253283D01*
X253626Y89008D01*
Y89352D01*
X253283Y89696D01*
X252251D01*
D16*
X114047Y45351D02*
Y50468D01*
X116605D01*
X117458Y49615D01*
Y47909D01*
X116605Y47057D01*
X114047D01*
X122575Y45351D02*
X119164D01*
X122575Y48762D01*
Y49615D01*
X121722Y50468D01*
X120017D01*
X119164Y49615D01*
D17*
X60427Y67932D02*
Y66293D01*
X60755Y65965D01*
X61411D01*
X61739Y66293D01*
Y67932D01*
X63706D02*
X63051Y67605D01*
X62395Y66948D01*
Y66293D01*
X62723Y65965D01*
X63379D01*
X63706Y66293D01*
Y66620D01*
X63379Y66948D01*
X62395D01*
X14010Y91142D02*
Y93110D01*
X14994D01*
X15322Y92782D01*
Y92126D01*
X14994Y91798D01*
X14010D01*
X14666D02*
X15322Y91142D01*
X15978D02*
X16634D01*
X16306D01*
Y93110D01*
X15978Y92782D01*
X17618Y91142D02*
X18274D01*
X17946D01*
Y93110D01*
X17618Y92782D01*
X-14271Y96260D02*
Y98228D01*
X-13287D01*
X-12959Y97900D01*
Y97244D01*
X-13287Y96916D01*
X-14271D01*
X-13615D02*
X-12959Y96260D01*
X-12303D02*
X-11647D01*
X-11975D01*
Y98228D01*
X-12303Y97900D01*
X-10663D02*
X-10335Y98228D01*
X-9679D01*
X-9351Y97900D01*
Y96588D01*
X-9679Y96260D01*
X-10335D01*
X-10663Y96588D01*
Y97900D01*
X237327Y114224D02*
Y112256D01*
X238311D01*
X238639Y112584D01*
Y113896D01*
X238311Y114224D01*
X237327D01*
X239295Y112256D02*
X239951D01*
X239623D01*
Y114224D01*
X239295Y113896D01*
X240934D02*
X241263Y114224D01*
X241918D01*
X242246Y113896D01*
Y112584D01*
X241918Y112256D01*
X241263D01*
X240934Y112584D01*
Y113896D01*
X214727Y114224D02*
Y112256D01*
X215711D01*
X216039Y112584D01*
Y113896D01*
X215711Y114224D01*
X214727D01*
X216695Y112584D02*
X217023Y112256D01*
X217678D01*
X218006Y112584D01*
Y113896D01*
X217678Y114224D01*
X217023D01*
X216695Y113896D01*
Y113568D01*
X217023Y113240D01*
X218006D01*
X191227Y114224D02*
Y112256D01*
X192211D01*
X192539Y112584D01*
Y113896D01*
X192211Y114224D01*
X191227D01*
X193195Y113896D02*
X193523Y114224D01*
X194178D01*
X194507Y113896D01*
Y113568D01*
X194178Y113240D01*
X194507Y112912D01*
Y112584D01*
X194178Y112256D01*
X193523D01*
X193195Y112584D01*
Y112912D01*
X193523Y113240D01*
X193195Y113568D01*
Y113896D01*
X193523Y113240D02*
X194178D01*
X167727Y114224D02*
Y112256D01*
X168711D01*
X169039Y112584D01*
Y113896D01*
X168711Y114224D01*
X167727D01*
X169695D02*
X171007D01*
Y113896D01*
X169695Y112584D01*
Y112256D01*
X144227Y114224D02*
Y112256D01*
X145211D01*
X145539Y112584D01*
Y113896D01*
X145211Y114224D01*
X144227D01*
X147506D02*
X146851Y113896D01*
X146195Y113240D01*
Y112584D01*
X146523Y112256D01*
X147178D01*
X147506Y112584D01*
Y112912D01*
X147178Y113240D01*
X146195D01*
X120727Y114224D02*
Y112256D01*
X121711D01*
X122039Y112584D01*
Y113896D01*
X121711Y114224D01*
X120727D01*
X124006D02*
X122695D01*
Y113240D01*
X123351Y113568D01*
X123679D01*
X124006Y113240D01*
Y112584D01*
X123679Y112256D01*
X123023D01*
X122695Y112584D01*
X97227Y114224D02*
Y112256D01*
X98211D01*
X98539Y112584D01*
Y113896D01*
X98211Y114224D01*
X97227D01*
X100179Y112256D02*
Y114224D01*
X99195Y113240D01*
X100506D01*
X73727Y114224D02*
Y112256D01*
X74711D01*
X75039Y112584D01*
Y113896D01*
X74711Y114224D01*
X73727D01*
X75695Y113896D02*
X76023Y114224D01*
X76679D01*
X77007Y113896D01*
Y113568D01*
X76679Y113240D01*
X76351D01*
X76679D01*
X77007Y112912D01*
Y112584D01*
X76679Y112256D01*
X76023D01*
X75695Y112584D01*
X38911Y126181D02*
Y124213D01*
X39895D01*
X40223Y124541D01*
Y125853D01*
X39895Y126181D01*
X38911D01*
X42191Y124213D02*
X40879D01*
X42191Y125525D01*
Y125853D01*
X41863Y126181D01*
X41207D01*
X40879Y125853D01*
X13649Y126181D02*
Y124213D01*
X14633D01*
X14961Y124541D01*
Y125853D01*
X14633Y126181D01*
X13649D01*
X15617Y124213D02*
X16273D01*
X15945D01*
Y126181D01*
X15617Y125853D01*
X238939Y133696D02*
X238611Y134024D01*
X237955D01*
X237627Y133696D01*
Y132384D01*
X237955Y132056D01*
X238611D01*
X238939Y132384D01*
X239595Y132056D02*
X240251D01*
X239923D01*
Y134024D01*
X239595Y133696D01*
X242546Y132056D02*
X241234D01*
X242546Y133368D01*
Y133696D01*
X242218Y134024D01*
X241563D01*
X241234Y133696D01*
X215739D02*
X215411Y134024D01*
X214755D01*
X214427Y133696D01*
Y132384D01*
X214755Y132056D01*
X215411D01*
X215739Y132384D01*
X216395Y132056D02*
X217051D01*
X216723D01*
Y134024D01*
X216395Y133696D01*
X218035Y132056D02*
X218690D01*
X218362D01*
Y134024D01*
X218035Y133696D01*
X191939D02*
X191611Y134024D01*
X190955D01*
X190627Y133696D01*
Y132384D01*
X190955Y132056D01*
X191611D01*
X191939Y132384D01*
X192595Y132056D02*
X193251D01*
X192923D01*
Y134024D01*
X192595Y133696D01*
X194235D02*
X194562Y134024D01*
X195218D01*
X195546Y133696D01*
Y132384D01*
X195218Y132056D01*
X194562D01*
X194235Y132384D01*
Y133696D01*
X169239D02*
X168911Y134024D01*
X168255D01*
X167927Y133696D01*
Y132384D01*
X168255Y132056D01*
X168911D01*
X169239Y132384D01*
X169895D02*
X170223Y132056D01*
X170879D01*
X171206Y132384D01*
Y133696D01*
X170879Y134024D01*
X170223D01*
X169895Y133696D01*
Y133368D01*
X170223Y133040D01*
X171206D01*
X145739Y133696D02*
X145411Y134024D01*
X144755D01*
X144427Y133696D01*
Y132384D01*
X144755Y132056D01*
X145411D01*
X145739Y132384D01*
X146395Y133696D02*
X146723Y134024D01*
X147379D01*
X147706Y133696D01*
Y133368D01*
X147379Y133040D01*
X147706Y132712D01*
Y132384D01*
X147379Y132056D01*
X146723D01*
X146395Y132384D01*
Y132712D01*
X146723Y133040D01*
X146395Y133368D01*
Y133696D01*
X146723Y133040D02*
X147379D01*
X122239Y133696D02*
X121911Y134024D01*
X121255D01*
X120927Y133696D01*
Y132384D01*
X121255Y132056D01*
X121911D01*
X122239Y132384D01*
X122895Y134024D02*
X124206D01*
Y133696D01*
X122895Y132384D01*
Y132056D01*
X98739Y133696D02*
X98411Y134024D01*
X97755D01*
X97427Y133696D01*
Y132384D01*
X97755Y132056D01*
X98411D01*
X98739Y132384D01*
X100707Y134024D02*
X100051Y133696D01*
X99395Y133040D01*
Y132384D01*
X99723Y132056D01*
X100379D01*
X100707Y132384D01*
Y132712D01*
X100379Y133040D01*
X99395D01*
X75239Y133696D02*
X74911Y134024D01*
X74255D01*
X73927Y133696D01*
Y132384D01*
X74255Y132056D01*
X74911D01*
X75239Y132384D01*
X77206Y134024D02*
X75895D01*
Y133040D01*
X76551Y133368D01*
X76878D01*
X77206Y133040D01*
Y132384D01*
X76878Y132056D01*
X76223D01*
X75895Y132384D01*
X51739Y133696D02*
X51411Y134024D01*
X50755D01*
X50427Y133696D01*
Y132384D01*
X50755Y132056D01*
X51411D01*
X51739Y132384D01*
X53378Y132056D02*
Y134024D01*
X52395Y133040D01*
X53707D01*
X28239Y133696D02*
X27911Y134024D01*
X27255D01*
X26927Y133696D01*
Y132384D01*
X27255Y132056D01*
X27911D01*
X28239Y132384D01*
X28895Y133696D02*
X29223Y134024D01*
X29879D01*
X30207Y133696D01*
Y133368D01*
X29879Y133040D01*
X29551D01*
X29879D01*
X30207Y132712D01*
Y132384D01*
X29879Y132056D01*
X29223D01*
X28895Y132384D01*
M02*
