G04*
G04 #@! TF.GenerationSoftware,Altium Limited,Altium Designer,25.0.2 (28)*
G04*
G04 Layer_Color=32896*
%FSLAX25Y25*%
%MOIN*%
G70*
G04*
G04 #@! TF.SameCoordinates,12AFB006-FD59-4992-93FC-E983570A1920*
G04*
G04*
G04 #@! TF.FilePolarity,Positive*
G04*
G01*
G75*
%ADD10C,0.00787*%
%ADD13C,0.00500*%
%ADD14C,0.00606*%
%ADD16C,0.00591*%
G36*
X259940Y456D02*
X258005Y467D01*
X257732D01*
X257612Y478D01*
X257448D01*
X257382Y489D01*
X257338D01*
X257448Y380D01*
X257557Y259D01*
X257688Y117D01*
X257808Y-14D01*
X257918Y-134D01*
X258005Y-233D01*
X258071Y-309D01*
X258082Y-320D01*
X258092Y-331D01*
X260136Y-2681D01*
Y-3829D01*
X255240D01*
Y-2550D01*
X257666D01*
X257786Y-2561D01*
X257918D01*
X258038Y-2572D01*
X258136D01*
X258180Y-2583D01*
X258235D01*
X257502Y-1785D01*
X255404Y631D01*
Y1658D01*
X259940D01*
Y456D01*
D02*
G37*
G36*
X232330Y456D02*
X230396Y467D01*
X230123D01*
X230002Y478D01*
X229838D01*
X229773Y489D01*
X229729D01*
X229838Y380D01*
X229948Y259D01*
X230079Y117D01*
X230199Y-14D01*
X230308Y-134D01*
X230396Y-233D01*
X230462Y-309D01*
X230472Y-320D01*
X230483Y-331D01*
X232527Y-2681D01*
Y-3829D01*
X227631D01*
Y-2550D01*
X230057D01*
X230177Y-2561D01*
X230308D01*
X230429Y-2572D01*
X230527D01*
X230571Y-2583D01*
X230625D01*
X229893Y-1785D01*
X227795Y631D01*
Y1658D01*
X232330D01*
Y456D01*
D02*
G37*
G36*
X204721D02*
X202787Y467D01*
X202514D01*
X202393Y478D01*
X202229D01*
X202164Y489D01*
X202120D01*
X202229Y380D01*
X202339Y259D01*
X202470Y117D01*
X202590Y-14D01*
X202699Y-134D01*
X202787Y-233D01*
X202852Y-309D01*
X202863Y-320D01*
X202874Y-331D01*
X204918Y-2681D01*
Y-3829D01*
X200021D01*
Y-2550D01*
X202448D01*
X202568Y-2561D01*
X202699D01*
X202819Y-2572D01*
X202918D01*
X202962Y-2583D01*
X203016D01*
X202284Y-1785D01*
X200185Y631D01*
Y1658D01*
X204721D01*
Y456D01*
D02*
G37*
G36*
X277165Y-309D02*
Y-539D01*
X277154Y-757D01*
Y-965D01*
X277144Y-1151D01*
X277133Y-1326D01*
X277122Y-1479D01*
X277111Y-1621D01*
X277089Y-1752D01*
X277078Y-1861D01*
X277067Y-1960D01*
X277056Y-2047D01*
X277045Y-2113D01*
X277034Y-2167D01*
Y-2200D01*
X277023Y-2222D01*
Y-2233D01*
X276969Y-2397D01*
X276914Y-2550D01*
X276837Y-2692D01*
X276772Y-2812D01*
X276706Y-2921D01*
X276652Y-3009D01*
X276608Y-3053D01*
X276597Y-3074D01*
X276466Y-3216D01*
X276324Y-3348D01*
X276171Y-3457D01*
X276029Y-3555D01*
X275908Y-3632D01*
X275799Y-3686D01*
X275733Y-3719D01*
X275723Y-3730D01*
X275712D01*
X275602Y-3774D01*
X275482Y-3807D01*
X275209Y-3872D01*
X274936Y-3916D01*
X274673Y-3938D01*
X274553Y-3949D01*
X274433Y-3960D01*
X274335D01*
X274236Y-3971D01*
X274061D01*
X273744Y-3960D01*
X273460Y-3938D01*
X273209Y-3894D01*
X273001Y-3850D01*
X272914Y-3839D01*
X272826Y-3818D01*
X272761Y-3796D01*
X272706Y-3774D01*
X272662Y-3763D01*
X272629Y-3752D01*
X272619Y-3741D01*
X272607D01*
X272411Y-3654D01*
X272236Y-3544D01*
X272083Y-3446D01*
X271952Y-3348D01*
X271853Y-3260D01*
X271777Y-3195D01*
X271733Y-3151D01*
X271722Y-3129D01*
X271602Y-2976D01*
X271504Y-2812D01*
X271427Y-2659D01*
X271361Y-2506D01*
X271318Y-2375D01*
X271285Y-2266D01*
X271274Y-2233D01*
Y-2200D01*
X271263Y-2189D01*
Y-2178D01*
X271241Y-2058D01*
X271219Y-1927D01*
X271198Y-1785D01*
X271187Y-1643D01*
X271165Y-1315D01*
X271143Y-998D01*
Y-856D01*
Y-714D01*
X271132Y-582D01*
Y-473D01*
Y-386D01*
Y-309D01*
Y-265D01*
Y-255D01*
Y3735D01*
X272662D01*
Y-462D01*
Y-626D01*
Y-779D01*
X272673Y-921D01*
Y-1052D01*
X272684Y-1162D01*
Y-1271D01*
X272695Y-1369D01*
Y-1457D01*
X272717Y-1588D01*
X272728Y-1686D01*
X272739Y-1741D01*
Y-1763D01*
X272772Y-1905D01*
X272826Y-2025D01*
X272892Y-2134D01*
X272957Y-2233D01*
X273023Y-2309D01*
X273078Y-2364D01*
X273121Y-2397D01*
X273132Y-2408D01*
X273263Y-2495D01*
X273427Y-2561D01*
X273580Y-2604D01*
X273744Y-2637D01*
X273886Y-2659D01*
X273996Y-2670D01*
X274105D01*
X274335Y-2659D01*
X274531Y-2626D01*
X274706Y-2583D01*
X274859Y-2528D01*
X274968Y-2484D01*
X275056Y-2441D01*
X275100Y-2408D01*
X275121Y-2397D01*
X275242Y-2287D01*
X275340Y-2156D01*
X275428Y-2036D01*
X275482Y-1916D01*
X275526Y-1806D01*
X275559Y-1719D01*
X275581Y-1664D01*
Y-1643D01*
X275591Y-1577D01*
X275602Y-1511D01*
Y-1424D01*
X275613Y-1326D01*
X275624Y-1118D01*
Y-899D01*
X275635Y-703D01*
Y-615D01*
Y-528D01*
Y-462D01*
Y-418D01*
Y-386D01*
Y-375D01*
Y3735D01*
X277165D01*
Y-309D01*
D02*
G37*
G36*
X263000Y2751D02*
Y1658D01*
X263667D01*
Y500D01*
X263000D01*
Y-1894D01*
Y-2036D01*
Y-2156D01*
Y-2276D01*
X262989Y-2375D01*
Y-2550D01*
X262978Y-2692D01*
X262967Y-2801D01*
Y-2867D01*
X262956Y-2911D01*
Y-2921D01*
X262934Y-3042D01*
X262902Y-3151D01*
X262869Y-3249D01*
X262836Y-3326D01*
X262803Y-3391D01*
X262782Y-3435D01*
X262771Y-3468D01*
X262760Y-3479D01*
X262694Y-3555D01*
X262617Y-3621D01*
X262464Y-3730D01*
X262399Y-3763D01*
X262344Y-3796D01*
X262301Y-3807D01*
X262290Y-3818D01*
X262169Y-3861D01*
X262049Y-3894D01*
X261929Y-3916D01*
X261820Y-3927D01*
X261721Y-3938D01*
X261645Y-3949D01*
X261579D01*
X261350Y-3938D01*
X261131Y-3916D01*
X260934Y-3883D01*
X260770Y-3839D01*
X260628Y-3807D01*
X260519Y-3774D01*
X260453Y-3752D01*
X260442Y-3741D01*
X260432D01*
X260563Y-2615D01*
X260694Y-2659D01*
X260814Y-2692D01*
X260912Y-2714D01*
X261000Y-2725D01*
X261066Y-2736D01*
X261109Y-2747D01*
X261153D01*
X261251Y-2736D01*
X261328Y-2714D01*
X261371Y-2692D01*
X261393Y-2681D01*
X261459Y-2615D01*
X261492Y-2561D01*
X261514Y-2517D01*
X261525Y-2495D01*
Y-2473D01*
X261536Y-2430D01*
Y-2331D01*
Y-2200D01*
X261546Y-2069D01*
Y-1938D01*
Y-1828D01*
Y-1785D01*
Y-1752D01*
Y-1730D01*
Y-1719D01*
Y500D01*
X260552D01*
Y1658D01*
X261546D01*
Y3604D01*
X263000Y2751D01*
D02*
G37*
G36*
X235391Y2751D02*
Y1658D01*
X236058D01*
Y500D01*
X235391D01*
Y-1894D01*
Y-2036D01*
Y-2156D01*
Y-2276D01*
X235380Y-2375D01*
Y-2550D01*
X235369Y-2692D01*
X235358Y-2801D01*
Y-2867D01*
X235347Y-2911D01*
Y-2921D01*
X235325Y-3042D01*
X235293Y-3151D01*
X235260Y-3249D01*
X235227Y-3326D01*
X235194Y-3391D01*
X235172Y-3435D01*
X235161Y-3468D01*
X235150Y-3479D01*
X235085Y-3555D01*
X235008Y-3621D01*
X234855Y-3730D01*
X234790Y-3763D01*
X234735Y-3796D01*
X234691Y-3807D01*
X234681Y-3818D01*
X234560Y-3861D01*
X234440Y-3894D01*
X234320Y-3916D01*
X234210Y-3927D01*
X234112Y-3938D01*
X234036Y-3949D01*
X233970D01*
X233740Y-3938D01*
X233522Y-3916D01*
X233325Y-3883D01*
X233161Y-3839D01*
X233019Y-3807D01*
X232910Y-3774D01*
X232844Y-3752D01*
X232833Y-3741D01*
X232822D01*
X232954Y-2615D01*
X233085Y-2659D01*
X233205Y-2692D01*
X233303Y-2714D01*
X233391Y-2725D01*
X233456Y-2736D01*
X233500Y-2747D01*
X233544D01*
X233642Y-2736D01*
X233719Y-2714D01*
X233762Y-2692D01*
X233784Y-2681D01*
X233850Y-2615D01*
X233883Y-2561D01*
X233904Y-2517D01*
X233915Y-2495D01*
Y-2473D01*
X233926Y-2430D01*
Y-2331D01*
Y-2200D01*
X233937Y-2069D01*
Y-1938D01*
Y-1828D01*
Y-1785D01*
Y-1752D01*
Y-1730D01*
Y-1719D01*
Y500D01*
X232943D01*
Y1658D01*
X233937D01*
Y3604D01*
X235391Y2751D01*
D02*
G37*
G36*
X207782D02*
Y1658D01*
X208449D01*
Y500D01*
X207782D01*
Y-1894D01*
Y-2036D01*
Y-2156D01*
Y-2276D01*
X207771Y-2375D01*
Y-2550D01*
X207760Y-2692D01*
X207749Y-2801D01*
Y-2867D01*
X207738Y-2911D01*
Y-2921D01*
X207716Y-3042D01*
X207683Y-3151D01*
X207651Y-3249D01*
X207618Y-3326D01*
X207585Y-3391D01*
X207563Y-3435D01*
X207552Y-3468D01*
X207541Y-3479D01*
X207476Y-3555D01*
X207399Y-3621D01*
X207246Y-3730D01*
X207181Y-3763D01*
X207126Y-3796D01*
X207082Y-3807D01*
X207071Y-3818D01*
X206951Y-3861D01*
X206831Y-3894D01*
X206711Y-3916D01*
X206601Y-3927D01*
X206503Y-3938D01*
X206426Y-3949D01*
X206361D01*
X206131Y-3938D01*
X205913Y-3916D01*
X205716Y-3883D01*
X205552Y-3839D01*
X205410Y-3807D01*
X205301Y-3774D01*
X205235Y-3752D01*
X205224Y-3741D01*
X205213D01*
X205344Y-2615D01*
X205475Y-2659D01*
X205596Y-2692D01*
X205694Y-2714D01*
X205782Y-2725D01*
X205847Y-2736D01*
X205891Y-2747D01*
X205935D01*
X206033Y-2736D01*
X206109Y-2714D01*
X206153Y-2692D01*
X206175Y-2681D01*
X206241Y-2615D01*
X206273Y-2561D01*
X206295Y-2517D01*
X206306Y-2495D01*
Y-2473D01*
X206317Y-2430D01*
Y-2331D01*
Y-2200D01*
X206328Y-2069D01*
Y-1938D01*
Y-1828D01*
Y-1785D01*
Y-1752D01*
Y-1730D01*
Y-1719D01*
Y500D01*
X205333D01*
Y1658D01*
X206328D01*
Y3604D01*
X207782Y2751D01*
D02*
G37*
G36*
X248409Y-1818D02*
X248398Y-2091D01*
X248376Y-2331D01*
X248343Y-2539D01*
X248310Y-2714D01*
X248277Y-2856D01*
X248245Y-2954D01*
X248223Y-3009D01*
X248212Y-3031D01*
X248124Y-3184D01*
X248026Y-3326D01*
X247928Y-3435D01*
X247818Y-3534D01*
X247731Y-3610D01*
X247643Y-3665D01*
X247600Y-3697D01*
X247578Y-3708D01*
X247414Y-3785D01*
X247239Y-3850D01*
X247075Y-3894D01*
X246911Y-3916D01*
X246780Y-3938D01*
X246682Y-3949D01*
X246583D01*
X246387Y-3938D01*
X246201Y-3916D01*
X246026Y-3872D01*
X245873Y-3829D01*
X245742Y-3785D01*
X245643Y-3741D01*
X245578Y-3719D01*
X245556Y-3708D01*
X245381Y-3610D01*
X245228Y-3490D01*
X245086Y-3381D01*
X244976Y-3260D01*
X244878Y-3162D01*
X244813Y-3085D01*
X244769Y-3031D01*
X244758Y-3009D01*
Y-3829D01*
X243413D01*
Y1658D01*
X244867D01*
Y-659D01*
Y-867D01*
Y-1052D01*
X244878Y-1227D01*
X244889Y-1380D01*
Y-1522D01*
X244900Y-1643D01*
X244911Y-1741D01*
X244922Y-1839D01*
X244933Y-1916D01*
X244944Y-1970D01*
X244955Y-2025D01*
Y-2069D01*
X244976Y-2124D01*
Y-2134D01*
X245020Y-2244D01*
X245086Y-2342D01*
X245151Y-2419D01*
X245217Y-2495D01*
X245283Y-2561D01*
X245337Y-2604D01*
X245370Y-2626D01*
X245381Y-2637D01*
X245490Y-2703D01*
X245610Y-2747D01*
X245720Y-2790D01*
X245829Y-2812D01*
X245917Y-2823D01*
X245982Y-2834D01*
X246048D01*
X246168Y-2823D01*
X246266Y-2812D01*
X246365Y-2790D01*
X246441Y-2757D01*
X246507Y-2736D01*
X246550Y-2714D01*
X246583Y-2703D01*
X246594Y-2692D01*
X246671Y-2626D01*
X246725Y-2561D01*
X246780Y-2495D01*
X246813Y-2430D01*
X246846Y-2364D01*
X246867Y-2320D01*
X246878Y-2287D01*
Y-2276D01*
X246889Y-2222D01*
X246900Y-2145D01*
X246911Y-2047D01*
X246922Y-1949D01*
X246933Y-1719D01*
X246944Y-1468D01*
X246955Y-1238D01*
Y-1140D01*
Y-1052D01*
Y-976D01*
Y-921D01*
Y-878D01*
Y-867D01*
Y1658D01*
X248409D01*
Y-1818D01*
D02*
G37*
G36*
X220799D02*
X220788Y-2091D01*
X220767Y-2331D01*
X220734Y-2539D01*
X220701Y-2714D01*
X220668Y-2856D01*
X220635Y-2954D01*
X220614Y-3009D01*
X220603Y-3031D01*
X220515Y-3184D01*
X220417Y-3326D01*
X220318Y-3435D01*
X220209Y-3534D01*
X220122Y-3610D01*
X220034Y-3665D01*
X219990Y-3697D01*
X219969Y-3708D01*
X219805Y-3785D01*
X219630Y-3850D01*
X219466Y-3894D01*
X219302Y-3916D01*
X219171Y-3938D01*
X219072Y-3949D01*
X218974D01*
X218777Y-3938D01*
X218591Y-3916D01*
X218417Y-3872D01*
X218264Y-3829D01*
X218132Y-3785D01*
X218034Y-3741D01*
X217969Y-3719D01*
X217947Y-3708D01*
X217772Y-3610D01*
X217619Y-3490D01*
X217477Y-3381D01*
X217367Y-3260D01*
X217269Y-3162D01*
X217203Y-3085D01*
X217160Y-3031D01*
X217149Y-3009D01*
Y-3829D01*
X215804D01*
Y1658D01*
X217258D01*
Y-659D01*
Y-867D01*
Y-1052D01*
X217269Y-1227D01*
X217280Y-1380D01*
Y-1522D01*
X217291Y-1643D01*
X217302Y-1741D01*
X217313Y-1839D01*
X217324Y-1916D01*
X217335Y-1970D01*
X217345Y-2025D01*
Y-2069D01*
X217367Y-2124D01*
Y-2134D01*
X217411Y-2244D01*
X217477Y-2342D01*
X217542Y-2419D01*
X217608Y-2495D01*
X217673Y-2561D01*
X217728Y-2604D01*
X217761Y-2626D01*
X217772Y-2637D01*
X217881Y-2703D01*
X218001Y-2747D01*
X218111Y-2790D01*
X218220Y-2812D01*
X218307Y-2823D01*
X218373Y-2834D01*
X218439D01*
X218559Y-2823D01*
X218657Y-2812D01*
X218755Y-2790D01*
X218832Y-2757D01*
X218898Y-2736D01*
X218941Y-2714D01*
X218974Y-2703D01*
X218985Y-2692D01*
X219061Y-2626D01*
X219116Y-2561D01*
X219171Y-2495D01*
X219204Y-2430D01*
X219236Y-2364D01*
X219258Y-2320D01*
X219269Y-2287D01*
Y-2276D01*
X219280Y-2222D01*
X219291Y-2145D01*
X219302Y-2047D01*
X219313Y-1949D01*
X219324Y-1719D01*
X219335Y-1468D01*
X219346Y-1238D01*
Y-1140D01*
Y-1052D01*
Y-976D01*
Y-921D01*
Y-878D01*
Y-867D01*
Y1658D01*
X220799D01*
Y-1818D01*
D02*
G37*
G36*
X266596Y1768D02*
X266793Y1735D01*
X266968Y1691D01*
X267143Y1636D01*
X267306Y1560D01*
X267449Y1483D01*
X267591Y1396D01*
X267711Y1319D01*
X267820Y1232D01*
X267919Y1145D01*
X268006Y1068D01*
X268072Y991D01*
X268126Y937D01*
X268170Y893D01*
X268192Y860D01*
X268203Y850D01*
Y1658D01*
X269547D01*
Y-3829D01*
X268093D01*
Y-1358D01*
Y-1194D01*
Y-1041D01*
X268082Y-899D01*
X268072Y-779D01*
Y-659D01*
X268061Y-561D01*
X268050Y-462D01*
X268039Y-386D01*
X268017Y-255D01*
X268006Y-167D01*
X267984Y-112D01*
Y-102D01*
X267940Y19D01*
X267875Y139D01*
X267809Y226D01*
X267744Y314D01*
X267678Y368D01*
X267623Y423D01*
X267591Y445D01*
X267580Y456D01*
X267460Y521D01*
X267339Y576D01*
X267230Y609D01*
X267121Y642D01*
X267033Y653D01*
X266968Y664D01*
X266902D01*
X266793Y653D01*
X266694Y642D01*
X266618Y620D01*
X266541Y587D01*
X266476Y554D01*
X266432Y532D01*
X266410Y521D01*
X266399Y511D01*
X266323Y456D01*
X266268Y390D01*
X266170Y259D01*
X266137Y194D01*
X266115Y150D01*
X266093Y117D01*
Y106D01*
X266071Y52D01*
X266060Y-14D01*
X266039Y-178D01*
X266017Y-375D01*
X266006Y-561D01*
X265995Y-746D01*
Y-823D01*
Y-899D01*
Y-954D01*
Y-998D01*
Y-1030D01*
Y-1041D01*
Y-3829D01*
X264541D01*
Y-429D01*
Y-200D01*
X264552Y-14D01*
X264563Y161D01*
X264585Y292D01*
X264596Y401D01*
X264618Y478D01*
X264629Y532D01*
Y543D01*
X264661Y675D01*
X264705Y784D01*
X264749Y893D01*
X264804Y981D01*
X264847Y1057D01*
X264880Y1112D01*
X264902Y1145D01*
X264913Y1156D01*
X265000Y1254D01*
X265099Y1341D01*
X265197Y1418D01*
X265295Y1483D01*
X265383Y1538D01*
X265459Y1571D01*
X265503Y1593D01*
X265525Y1604D01*
X265678Y1658D01*
X265831Y1702D01*
X265973Y1735D01*
X266104Y1757D01*
X266224Y1768D01*
X266323Y1778D01*
X266399D01*
X266596Y1768D01*
D02*
G37*
G36*
X238987Y1768D02*
X239184Y1735D01*
X239358Y1691D01*
X239533Y1636D01*
X239697Y1560D01*
X239839Y1483D01*
X239982Y1396D01*
X240102Y1319D01*
X240211Y1232D01*
X240309Y1144D01*
X240397Y1068D01*
X240462Y991D01*
X240517Y937D01*
X240561Y893D01*
X240583Y860D01*
X240594Y849D01*
Y1658D01*
X241938D01*
Y-3829D01*
X240484D01*
Y-1358D01*
Y-1194D01*
Y-1041D01*
X240473Y-899D01*
X240462Y-779D01*
Y-659D01*
X240452Y-561D01*
X240441Y-462D01*
X240430Y-386D01*
X240408Y-255D01*
X240397Y-167D01*
X240375Y-112D01*
Y-102D01*
X240331Y19D01*
X240266Y139D01*
X240200Y226D01*
X240135Y314D01*
X240069Y368D01*
X240014Y423D01*
X239982Y445D01*
X239971Y456D01*
X239850Y521D01*
X239730Y576D01*
X239621Y609D01*
X239511Y642D01*
X239424Y653D01*
X239358Y664D01*
X239293D01*
X239184Y653D01*
X239085Y642D01*
X239009Y620D01*
X238932Y587D01*
X238867Y554D01*
X238823Y532D01*
X238801Y521D01*
X238790Y511D01*
X238714Y456D01*
X238659Y390D01*
X238561Y259D01*
X238528Y194D01*
X238506Y150D01*
X238484Y117D01*
Y106D01*
X238462Y52D01*
X238451Y-14D01*
X238429Y-178D01*
X238408Y-375D01*
X238397Y-561D01*
X238386Y-746D01*
Y-823D01*
Y-899D01*
Y-954D01*
Y-998D01*
Y-1030D01*
Y-1041D01*
Y-3829D01*
X236932D01*
Y-429D01*
Y-200D01*
X236943Y-14D01*
X236954Y161D01*
X236976Y292D01*
X236987Y401D01*
X237009Y478D01*
X237019Y532D01*
Y543D01*
X237052Y675D01*
X237096Y784D01*
X237140Y893D01*
X237194Y981D01*
X237238Y1057D01*
X237271Y1112D01*
X237293Y1144D01*
X237304Y1156D01*
X237391Y1254D01*
X237490Y1341D01*
X237588Y1418D01*
X237686Y1483D01*
X237774Y1538D01*
X237850Y1571D01*
X237894Y1593D01*
X237916Y1604D01*
X238069Y1658D01*
X238222Y1702D01*
X238364Y1735D01*
X238495Y1757D01*
X238615Y1768D01*
X238714Y1778D01*
X238790D01*
X238987Y1768D01*
D02*
G37*
G36*
X211378D02*
X211574Y1735D01*
X211749Y1691D01*
X211924Y1636D01*
X212088Y1560D01*
X212230Y1483D01*
X212372Y1396D01*
X212492Y1319D01*
X212602Y1232D01*
X212700Y1144D01*
X212788Y1068D01*
X212853Y991D01*
X212908Y937D01*
X212952Y893D01*
X212973Y860D01*
X212984Y849D01*
Y1658D01*
X214329D01*
Y-3829D01*
X212875D01*
Y-1358D01*
Y-1194D01*
Y-1041D01*
X212864Y-899D01*
X212853Y-779D01*
Y-659D01*
X212842Y-561D01*
X212831Y-462D01*
X212820Y-386D01*
X212799Y-255D01*
X212788Y-167D01*
X212766Y-112D01*
Y-102D01*
X212722Y19D01*
X212656Y139D01*
X212591Y226D01*
X212525Y314D01*
X212460Y368D01*
X212405Y423D01*
X212372Y445D01*
X212361Y456D01*
X212241Y521D01*
X212121Y576D01*
X212012Y609D01*
X211902Y642D01*
X211815Y653D01*
X211749Y664D01*
X211684D01*
X211574Y653D01*
X211476Y642D01*
X211400Y620D01*
X211323Y587D01*
X211258Y554D01*
X211214Y532D01*
X211192Y521D01*
X211181Y511D01*
X211104Y456D01*
X211050Y390D01*
X210951Y259D01*
X210919Y194D01*
X210897Y150D01*
X210875Y117D01*
Y106D01*
X210853Y52D01*
X210842Y-14D01*
X210820Y-178D01*
X210798Y-375D01*
X210788Y-561D01*
X210776Y-746D01*
Y-823D01*
Y-899D01*
Y-954D01*
Y-998D01*
Y-1030D01*
Y-1041D01*
Y-3829D01*
X209323D01*
Y-429D01*
Y-200D01*
X209334Y-14D01*
X209345Y161D01*
X209367Y292D01*
X209378Y401D01*
X209399Y478D01*
X209410Y532D01*
Y543D01*
X209443Y675D01*
X209487Y784D01*
X209530Y893D01*
X209585Y981D01*
X209629Y1057D01*
X209662Y1112D01*
X209683Y1144D01*
X209695Y1156D01*
X209782Y1254D01*
X209880Y1341D01*
X209979Y1418D01*
X210077Y1483D01*
X210164Y1538D01*
X210241Y1571D01*
X210285Y1593D01*
X210307Y1604D01*
X210460Y1658D01*
X210613Y1702D01*
X210755Y1735D01*
X210886Y1757D01*
X211006Y1768D01*
X211104Y1778D01*
X211181D01*
X211378Y1768D01*
D02*
G37*
G36*
X254300Y-3829D02*
X253589D01*
X253600Y-3982D01*
X253622Y-4113D01*
X253655Y-4233D01*
X253699Y-4331D01*
X253731Y-4408D01*
X253764Y-4462D01*
X253786Y-4495D01*
X253797Y-4506D01*
X253873Y-4594D01*
X253972Y-4670D01*
X254070Y-4747D01*
X254180Y-4801D01*
X254267Y-4845D01*
X254344Y-4878D01*
X254398Y-4900D01*
X254420Y-4911D01*
X254136Y-5512D01*
X253972Y-5446D01*
X253819Y-5370D01*
X253688Y-5293D01*
X253578Y-5217D01*
X253491Y-5151D01*
X253425Y-5096D01*
X253382Y-5064D01*
X253371Y-5053D01*
X253261Y-4943D01*
X253174Y-4834D01*
X253108Y-4725D01*
X253043Y-4616D01*
X253010Y-4528D01*
X252977Y-4462D01*
X252955Y-4408D01*
Y-4397D01*
X252923Y-4255D01*
X252890Y-4091D01*
X252868Y-3927D01*
X252857Y-3774D01*
X252846Y-3632D01*
Y-3512D01*
Y-3468D01*
Y-3435D01*
Y-3424D01*
Y-3413D01*
Y-2375D01*
X254300D01*
Y-3829D01*
D02*
G37*
G36*
X226691Y-3829D02*
X225980D01*
X225991Y-3982D01*
X226013Y-4113D01*
X226046Y-4233D01*
X226090Y-4331D01*
X226122Y-4408D01*
X226155Y-4462D01*
X226177Y-4495D01*
X226188Y-4506D01*
X226264Y-4594D01*
X226363Y-4670D01*
X226461Y-4747D01*
X226570Y-4801D01*
X226658Y-4845D01*
X226734Y-4878D01*
X226789Y-4900D01*
X226811Y-4911D01*
X226527Y-5512D01*
X226363Y-5446D01*
X226210Y-5370D01*
X226079Y-5293D01*
X225969Y-5217D01*
X225882Y-5151D01*
X225816Y-5096D01*
X225773Y-5064D01*
X225762Y-5053D01*
X225652Y-4944D01*
X225565Y-4834D01*
X225499Y-4725D01*
X225434Y-4616D01*
X225401Y-4528D01*
X225368Y-4462D01*
X225346Y-4408D01*
Y-4397D01*
X225313Y-4255D01*
X225281Y-4091D01*
X225259Y-3927D01*
X225248Y-3774D01*
X225237Y-3632D01*
Y-3512D01*
Y-3468D01*
Y-3435D01*
Y-3424D01*
Y-3413D01*
Y-2375D01*
X226691D01*
Y-3829D01*
D02*
G37*
G36*
X110892Y11368D02*
X109439D01*
Y12713D01*
X110892D01*
Y11368D01*
D02*
G37*
G36*
X94421Y10735D02*
X94596Y10724D01*
X94749Y10691D01*
X94902Y10669D01*
X95033Y10636D01*
X95153Y10593D01*
X95262Y10560D01*
X95350Y10527D01*
X95437Y10483D01*
X95503Y10450D01*
X95568Y10429D01*
X95612Y10396D01*
X95645Y10385D01*
X95656Y10363D01*
X95667D01*
X95853Y10199D01*
X96006Y10013D01*
X96137Y9816D01*
X96246Y9631D01*
X96323Y9456D01*
X96355Y9379D01*
X96377Y9314D01*
X96399Y9259D01*
X96410Y9215D01*
X96421Y9193D01*
Y9183D01*
X95120Y8942D01*
X95066Y9073D01*
X95011Y9183D01*
X94956Y9281D01*
X94891Y9357D01*
X94847Y9412D01*
X94803Y9445D01*
X94782Y9467D01*
X94771Y9478D01*
X94683Y9532D01*
X94585Y9576D01*
X94475Y9598D01*
X94377Y9620D01*
X94290Y9631D01*
X94224Y9642D01*
X94159D01*
X93962Y9631D01*
X93798Y9609D01*
X93667Y9587D01*
X93557Y9554D01*
X93481Y9510D01*
X93426Y9488D01*
X93393Y9467D01*
X93382Y9456D01*
X93306Y9379D01*
X93251Y9292D01*
X93218Y9193D01*
X93186Y9095D01*
X93175Y8997D01*
X93164Y8920D01*
Y8877D01*
Y8855D01*
Y8713D01*
X93240Y8680D01*
X93339Y8647D01*
X93546Y8581D01*
X93787Y8527D01*
X94016Y8472D01*
X94235Y8417D01*
X94333Y8396D01*
X94421Y8385D01*
X94486Y8374D01*
X94541Y8363D01*
X94574Y8352D01*
X94585D01*
X94847Y8297D01*
X95087Y8242D01*
X95284Y8188D01*
X95448Y8133D01*
X95579Y8079D01*
X95667Y8046D01*
X95722Y8024D01*
X95743Y8013D01*
X95885Y7937D01*
X96006Y7849D01*
X96115Y7751D01*
X96191Y7663D01*
X96268Y7587D01*
X96312Y7521D01*
X96345Y7477D01*
X96355Y7456D01*
X96432Y7314D01*
X96487Y7171D01*
X96519Y7040D01*
X96541Y6909D01*
X96563Y6800D01*
X96574Y6712D01*
Y6658D01*
Y6636D01*
X96563Y6505D01*
X96552Y6384D01*
X96497Y6155D01*
X96421Y5958D01*
X96333Y5794D01*
X96246Y5663D01*
X96170Y5565D01*
X96115Y5499D01*
X96093Y5488D01*
Y5477D01*
X95896Y5324D01*
X95678Y5215D01*
X95459Y5138D01*
X95240Y5084D01*
X95055Y5051D01*
X94967Y5040D01*
X94902D01*
X94836Y5029D01*
X94760D01*
X94585Y5040D01*
X94410Y5062D01*
X94257Y5084D01*
X94126Y5117D01*
X94016Y5149D01*
X93929Y5182D01*
X93874Y5193D01*
X93852Y5204D01*
X93699Y5280D01*
X93546Y5357D01*
X93415Y5455D01*
X93295Y5543D01*
X93197Y5619D01*
X93120Y5685D01*
X93076Y5729D01*
X93054Y5740D01*
X93044Y5696D01*
X93022Y5641D01*
X93011Y5598D01*
X93000Y5587D01*
Y5576D01*
X92967Y5477D01*
X92945Y5390D01*
X92923Y5313D01*
X92901Y5259D01*
X92880Y5215D01*
X92869Y5171D01*
X92858Y5160D01*
Y5149D01*
X91426D01*
X91492Y5291D01*
X91546Y5423D01*
X91590Y5543D01*
X91634Y5652D01*
X91655Y5740D01*
X91677Y5816D01*
X91688Y5860D01*
Y5871D01*
X91710Y6013D01*
X91721Y6188D01*
X91743Y6363D01*
Y6537D01*
X91754Y6690D01*
Y6822D01*
Y6876D01*
Y6909D01*
Y6931D01*
Y6942D01*
X91732Y8636D01*
Y8811D01*
X91743Y8964D01*
X91754Y9106D01*
X91765Y9237D01*
X91776Y9357D01*
X91798Y9467D01*
X91808Y9565D01*
X91830Y9642D01*
X91852Y9718D01*
X91863Y9773D01*
X91896Y9871D01*
X91918Y9915D01*
X91929Y9937D01*
X92016Y10057D01*
X92115Y10177D01*
X92224Y10276D01*
X92344Y10363D01*
X92443Y10429D01*
X92530Y10472D01*
X92585Y10505D01*
X92595Y10516D01*
X92606D01*
X92705Y10560D01*
X92803Y10593D01*
X93033Y10658D01*
X93273Y10702D01*
X93503Y10724D01*
X93721Y10746D01*
X93809D01*
X93885Y10756D01*
X94246D01*
X94421Y10735D01*
D02*
G37*
G36*
X155585Y5149D02*
X154131D01*
Y6898D01*
X153476Y7609D01*
X152087Y5149D01*
X150524D01*
X152536Y8625D01*
X150656Y10636D01*
X152437D01*
X154131Y8702D01*
Y12713D01*
X155585D01*
Y5149D01*
D02*
G37*
G36*
X123276Y5149D02*
X121822D01*
Y6898D01*
X121167Y7609D01*
X119778Y5149D01*
X118215D01*
X120227Y8625D01*
X118347Y10636D01*
X120128D01*
X121822Y8702D01*
Y12713D01*
X123276D01*
Y5149D01*
D02*
G37*
G36*
X102115D02*
X100662D01*
Y6898D01*
X100006Y7609D01*
X98618Y5149D01*
X97055D01*
X99066Y8625D01*
X97186Y10636D01*
X98968D01*
X100662Y8702D01*
Y12713D01*
X102115D01*
Y5149D01*
D02*
G37*
G36*
X149584Y11729D02*
Y10636D01*
X150251D01*
Y9478D01*
X149584D01*
Y7084D01*
Y6942D01*
Y6822D01*
Y6701D01*
X149574Y6603D01*
Y6428D01*
X149563Y6286D01*
X149552Y6177D01*
Y6111D01*
X149541Y6067D01*
Y6056D01*
X149519Y5936D01*
X149486Y5827D01*
X149453Y5729D01*
X149421Y5652D01*
X149388Y5587D01*
X149366Y5543D01*
X149355Y5510D01*
X149344Y5499D01*
X149278Y5423D01*
X149202Y5357D01*
X149049Y5248D01*
X148983Y5215D01*
X148929Y5182D01*
X148885Y5171D01*
X148874Y5160D01*
X148754Y5117D01*
X148634Y5084D01*
X148513Y5062D01*
X148404Y5051D01*
X148306Y5040D01*
X148229Y5029D01*
X148164D01*
X147934Y5040D01*
X147715Y5062D01*
X147519Y5095D01*
X147355Y5138D01*
X147213Y5171D01*
X147103Y5204D01*
X147038Y5226D01*
X147027Y5237D01*
X147016D01*
X147147Y6363D01*
X147278Y6319D01*
X147398Y6286D01*
X147497Y6264D01*
X147584Y6253D01*
X147650Y6242D01*
X147694Y6231D01*
X147737D01*
X147836Y6242D01*
X147912Y6264D01*
X147956Y6286D01*
X147978Y6297D01*
X148043Y6363D01*
X148076Y6417D01*
X148098Y6461D01*
X148109Y6483D01*
Y6505D01*
X148120Y6548D01*
Y6647D01*
Y6778D01*
X148131Y6909D01*
Y7040D01*
Y7149D01*
Y7193D01*
Y7226D01*
Y7248D01*
Y7259D01*
Y9478D01*
X147136D01*
Y10636D01*
X148131D01*
Y12582D01*
X149584Y11729D01*
D02*
G37*
G36*
X159531Y10746D02*
X159717Y10724D01*
X159902Y10680D01*
X160066Y10636D01*
X160230Y10582D01*
X160372Y10516D01*
X160514Y10440D01*
X160635Y10374D01*
X160744Y10297D01*
X160842Y10221D01*
X160930Y10155D01*
X160995Y10101D01*
X161050Y10057D01*
X161094Y10013D01*
X161116Y9991D01*
X161127Y9980D01*
X161247Y9827D01*
X161356Y9663D01*
X161454Y9499D01*
X161542Y9325D01*
X161608Y9139D01*
X161662Y8964D01*
X161750Y8625D01*
X161782Y8461D01*
X161804Y8319D01*
X161815Y8188D01*
X161826Y8079D01*
X161837Y7980D01*
Y7904D01*
Y7860D01*
Y7849D01*
X161826Y7641D01*
X161815Y7434D01*
X161782Y7248D01*
X161750Y7073D01*
X161717Y6898D01*
X161662Y6745D01*
X161618Y6603D01*
X161564Y6472D01*
X161520Y6352D01*
X161465Y6253D01*
X161422Y6166D01*
X161389Y6089D01*
X161345Y6035D01*
X161323Y5991D01*
X161312Y5969D01*
X161302Y5958D01*
X161159Y5794D01*
X161017Y5652D01*
X160853Y5532D01*
X160678Y5423D01*
X160504Y5335D01*
X160329Y5259D01*
X160154Y5193D01*
X159979Y5149D01*
X159826Y5106D01*
X159673Y5084D01*
X159531Y5062D01*
X159411Y5040D01*
X159312D01*
X159247Y5029D01*
X159181D01*
X158864Y5051D01*
X158569Y5095D01*
X158318Y5160D01*
X158099Y5237D01*
X158001Y5280D01*
X157924Y5313D01*
X157848Y5346D01*
X157793Y5379D01*
X157749Y5412D01*
X157705Y5423D01*
X157695Y5444D01*
X157684D01*
X157476Y5619D01*
X157290Y5805D01*
X157137Y6013D01*
X157017Y6210D01*
X156919Y6384D01*
X156886Y6461D01*
X156853Y6526D01*
X156831Y6581D01*
X156809Y6625D01*
X156798Y6647D01*
Y6658D01*
X158241Y6898D01*
X158296Y6756D01*
X158350Y6625D01*
X158405Y6526D01*
X158471Y6439D01*
X158514Y6374D01*
X158558Y6330D01*
X158591Y6308D01*
X158602Y6297D01*
X158689Y6231D01*
X158788Y6188D01*
X158886Y6155D01*
X158973Y6133D01*
X159050Y6122D01*
X159116Y6111D01*
X159170D01*
X159345Y6122D01*
X159509Y6166D01*
X159662Y6221D01*
X159782Y6286D01*
X159881Y6352D01*
X159946Y6406D01*
X160001Y6450D01*
X160012Y6461D01*
X160121Y6603D01*
X160197Y6767D01*
X160263Y6942D01*
X160307Y7095D01*
X160329Y7248D01*
X160340Y7357D01*
X160351Y7401D01*
Y7434D01*
Y7456D01*
Y7467D01*
X156722D01*
Y7773D01*
X156744Y8046D01*
X156776Y8308D01*
X156820Y8549D01*
X156875Y8778D01*
X156930Y8975D01*
X156995Y9161D01*
X157061Y9325D01*
X157126Y9467D01*
X157192Y9598D01*
X157246Y9696D01*
X157301Y9784D01*
X157345Y9849D01*
X157378Y9904D01*
X157399Y9926D01*
X157410Y9937D01*
X157542Y10079D01*
X157695Y10210D01*
X157848Y10319D01*
X158001Y10407D01*
X158165Y10494D01*
X158328Y10560D01*
X158482Y10614D01*
X158634Y10658D01*
X158777Y10691D01*
X158908Y10713D01*
X159028Y10735D01*
X159126Y10746D01*
X159214Y10756D01*
X159334D01*
X159531Y10746D01*
D02*
G37*
G36*
X127222Y10746D02*
X127408Y10724D01*
X127593Y10680D01*
X127757Y10636D01*
X127921Y10582D01*
X128063Y10516D01*
X128205Y10440D01*
X128326Y10374D01*
X128435Y10297D01*
X128533Y10221D01*
X128621Y10155D01*
X128686Y10101D01*
X128741Y10057D01*
X128785Y10013D01*
X128807Y9991D01*
X128817Y9980D01*
X128938Y9827D01*
X129047Y9663D01*
X129145Y9499D01*
X129233Y9325D01*
X129298Y9139D01*
X129353Y8964D01*
X129440Y8625D01*
X129473Y8461D01*
X129495Y8319D01*
X129506Y8188D01*
X129517Y8079D01*
X129528Y7980D01*
Y7904D01*
Y7860D01*
Y7849D01*
X129517Y7641D01*
X129506Y7434D01*
X129473Y7248D01*
X129440Y7073D01*
X129408Y6898D01*
X129353Y6745D01*
X129309Y6603D01*
X129255Y6472D01*
X129211Y6352D01*
X129156Y6253D01*
X129113Y6166D01*
X129080Y6089D01*
X129036Y6035D01*
X129014Y5991D01*
X129003Y5969D01*
X128992Y5958D01*
X128850Y5794D01*
X128708Y5652D01*
X128544Y5532D01*
X128369Y5423D01*
X128194Y5335D01*
X128020Y5259D01*
X127845Y5193D01*
X127670Y5149D01*
X127517Y5106D01*
X127364Y5084D01*
X127222Y5062D01*
X127102Y5040D01*
X127003D01*
X126937Y5029D01*
X126872D01*
X126555Y5051D01*
X126260Y5095D01*
X126008Y5160D01*
X125790Y5237D01*
X125691Y5280D01*
X125615Y5313D01*
X125539Y5346D01*
X125484Y5379D01*
X125440Y5412D01*
X125396Y5423D01*
X125385Y5444D01*
X125374D01*
X125167Y5619D01*
X124981Y5805D01*
X124828Y6013D01*
X124708Y6210D01*
X124609Y6384D01*
X124577Y6461D01*
X124544Y6526D01*
X124522Y6581D01*
X124500Y6625D01*
X124489Y6647D01*
Y6658D01*
X125932Y6898D01*
X125987Y6756D01*
X126041Y6625D01*
X126096Y6526D01*
X126162Y6439D01*
X126205Y6374D01*
X126249Y6330D01*
X126282Y6308D01*
X126293Y6297D01*
X126380Y6231D01*
X126479Y6188D01*
X126577Y6155D01*
X126664Y6133D01*
X126741Y6122D01*
X126806Y6111D01*
X126861D01*
X127036Y6122D01*
X127200Y6166D01*
X127353Y6221D01*
X127473Y6286D01*
X127571Y6352D01*
X127637Y6406D01*
X127692Y6450D01*
X127703Y6461D01*
X127812Y6603D01*
X127888Y6767D01*
X127954Y6942D01*
X127998Y7095D01*
X128020Y7248D01*
X128031Y7357D01*
X128042Y7401D01*
Y7434D01*
Y7456D01*
Y7467D01*
X124413D01*
Y7773D01*
X124435Y8046D01*
X124467Y8308D01*
X124511Y8549D01*
X124566Y8778D01*
X124620Y8975D01*
X124686Y9161D01*
X124751Y9325D01*
X124817Y9467D01*
X124883Y9598D01*
X124937Y9696D01*
X124992Y9784D01*
X125036Y9849D01*
X125068Y9904D01*
X125090Y9926D01*
X125101Y9937D01*
X125233Y10079D01*
X125385Y10210D01*
X125539Y10319D01*
X125691Y10407D01*
X125856Y10494D01*
X126019Y10560D01*
X126172Y10614D01*
X126326Y10658D01*
X126468Y10691D01*
X126599Y10713D01*
X126719Y10735D01*
X126817Y10746D01*
X126905Y10756D01*
X127025D01*
X127222Y10746D01*
D02*
G37*
G36*
X171390Y5149D02*
X165641D01*
Y6428D01*
X169860D01*
Y8483D01*
X166067D01*
Y9762D01*
X169860D01*
Y11434D01*
X165783D01*
Y12713D01*
X171390D01*
Y5149D01*
D02*
G37*
G36*
X164362D02*
X162908D01*
Y12713D01*
X164362D01*
Y5149D01*
D02*
G37*
G36*
X143748Y10746D02*
X143857Y10735D01*
X143966Y10702D01*
X144054Y10669D01*
X144130Y10636D01*
X144196Y10614D01*
X144229Y10593D01*
X144240Y10582D01*
X144349Y10505D01*
X144447Y10396D01*
X144557Y10276D01*
X144644Y10155D01*
X144732Y10035D01*
X144797Y9937D01*
X144841Y9871D01*
X144852Y9860D01*
Y10636D01*
X146196D01*
Y5149D01*
X144743D01*
Y6833D01*
Y7084D01*
Y7314D01*
X144732Y7521D01*
X144721Y7707D01*
Y7882D01*
X144710Y8024D01*
X144699Y8166D01*
X144688Y8275D01*
X144677Y8374D01*
X144666Y8461D01*
X144655Y8527D01*
Y8581D01*
X144644Y8614D01*
X144633Y8647D01*
Y8669D01*
X144589Y8822D01*
X144535Y8953D01*
X144480Y9062D01*
X144425Y9139D01*
X144382Y9204D01*
X144338Y9248D01*
X144316Y9270D01*
X144305Y9281D01*
X144218Y9336D01*
X144130Y9379D01*
X144043Y9412D01*
X143966Y9434D01*
X143901Y9445D01*
X143835Y9456D01*
X143792D01*
X143671Y9445D01*
X143551Y9423D01*
X143442Y9379D01*
X143333Y9336D01*
X143245Y9292D01*
X143180Y9248D01*
X143125Y9226D01*
X143114Y9215D01*
X142655Y10472D01*
X142830Y10571D01*
X142994Y10636D01*
X143158Y10691D01*
X143311Y10724D01*
X143431Y10746D01*
X143529Y10756D01*
X143617D01*
X143748Y10746D01*
D02*
G37*
G36*
X136086Y11434D02*
X133845D01*
Y5149D01*
X132315D01*
Y11434D01*
X130085D01*
Y12713D01*
X136086D01*
Y11434D01*
D02*
G37*
G36*
X114412Y10746D02*
X114609Y10713D01*
X114783Y10669D01*
X114958Y10614D01*
X115122Y10538D01*
X115264Y10461D01*
X115406Y10374D01*
X115527Y10297D01*
X115636Y10210D01*
X115734Y10123D01*
X115822Y10046D01*
X115887Y9969D01*
X115942Y9915D01*
X115986Y9871D01*
X116007Y9838D01*
X116018Y9827D01*
Y10636D01*
X117363D01*
Y5149D01*
X115909D01*
Y7620D01*
Y7784D01*
Y7937D01*
X115898Y8079D01*
X115887Y8199D01*
Y8319D01*
X115876Y8417D01*
X115866Y8516D01*
X115855Y8592D01*
X115833Y8723D01*
X115822Y8811D01*
X115800Y8866D01*
Y8877D01*
X115756Y8997D01*
X115691Y9117D01*
X115625Y9204D01*
X115559Y9292D01*
X115494Y9347D01*
X115439Y9401D01*
X115406Y9423D01*
X115395Y9434D01*
X115275Y9499D01*
X115155Y9554D01*
X115046Y9587D01*
X114936Y9620D01*
X114849Y9631D01*
X114783Y9642D01*
X114718D01*
X114609Y9631D01*
X114510Y9620D01*
X114434Y9598D01*
X114357Y9565D01*
X114292Y9532D01*
X114248Y9510D01*
X114226Y9499D01*
X114215Y9488D01*
X114138Y9434D01*
X114084Y9368D01*
X113986Y9237D01*
X113953Y9172D01*
X113931Y9128D01*
X113909Y9095D01*
Y9084D01*
X113887Y9030D01*
X113876Y8964D01*
X113854Y8800D01*
X113832Y8603D01*
X113821Y8417D01*
X113811Y8232D01*
Y8155D01*
Y8079D01*
Y8024D01*
Y7980D01*
Y7947D01*
Y7937D01*
Y5149D01*
X112357D01*
Y8549D01*
Y8778D01*
X112368Y8964D01*
X112379Y9139D01*
X112401Y9270D01*
X112412Y9379D01*
X112433Y9456D01*
X112444Y9510D01*
Y9521D01*
X112477Y9652D01*
X112521Y9762D01*
X112565Y9871D01*
X112619Y9958D01*
X112663Y10035D01*
X112696Y10090D01*
X112718Y10123D01*
X112729Y10133D01*
X112816Y10232D01*
X112914Y10319D01*
X113013Y10396D01*
X113111Y10461D01*
X113198Y10516D01*
X113275Y10549D01*
X113319Y10571D01*
X113341Y10582D01*
X113494Y10636D01*
X113647Y10680D01*
X113789Y10713D01*
X113920Y10735D01*
X114040Y10746D01*
X114138Y10756D01*
X114215D01*
X114412Y10746D01*
D02*
G37*
G36*
X110892Y5149D02*
X109439D01*
Y10636D01*
X110892D01*
Y5149D01*
D02*
G37*
G36*
X139835Y10746D02*
X140108Y10702D01*
X140360Y10647D01*
X140578Y10582D01*
X140666Y10538D01*
X140753Y10505D01*
X140830Y10483D01*
X140884Y10450D01*
X140939Y10429D01*
X140972Y10407D01*
X140993Y10396D01*
X141004D01*
X141234Y10243D01*
X141431Y10079D01*
X141606Y9904D01*
X141748Y9740D01*
X141857Y9587D01*
X141944Y9467D01*
X141977Y9423D01*
X141988Y9390D01*
X142010Y9368D01*
Y9357D01*
X142130Y9106D01*
X142207Y8855D01*
X142272Y8625D01*
X142316Y8417D01*
X142338Y8232D01*
X142349Y8155D01*
Y8089D01*
X142360Y8046D01*
Y8002D01*
Y7980D01*
Y7969D01*
X142349Y7631D01*
X142305Y7314D01*
X142251Y7040D01*
X142218Y6920D01*
X142185Y6811D01*
X142152Y6712D01*
X142119Y6625D01*
X142087Y6548D01*
X142065Y6483D01*
X142043Y6428D01*
X142021Y6395D01*
X142010Y6374D01*
Y6363D01*
X141857Y6133D01*
X141693Y5936D01*
X141518Y5761D01*
X141354Y5619D01*
X141201Y5510D01*
X141081Y5434D01*
X141037Y5401D01*
X141004Y5379D01*
X140983Y5368D01*
X140972D01*
X140709Y5259D01*
X140458Y5171D01*
X140217Y5117D01*
X139988Y5073D01*
X139802Y5051D01*
X139726Y5040D01*
X139660D01*
X139605Y5029D01*
X139529D01*
X139299Y5040D01*
X139092Y5062D01*
X138884Y5106D01*
X138698Y5160D01*
X138512Y5215D01*
X138348Y5280D01*
X138195Y5357D01*
X138053Y5434D01*
X137933Y5510D01*
X137824Y5587D01*
X137725Y5652D01*
X137649Y5707D01*
X137583Y5761D01*
X137540Y5805D01*
X137518Y5827D01*
X137507Y5838D01*
X137365Y6002D01*
X137244Y6166D01*
X137135Y6330D01*
X137037Y6505D01*
X136960Y6679D01*
X136895Y6854D01*
X136840Y7018D01*
X136796Y7182D01*
X136764Y7324D01*
X136742Y7467D01*
X136720Y7587D01*
X136709Y7696D01*
X136698Y7784D01*
Y7849D01*
Y7893D01*
Y7904D01*
X136709Y8133D01*
X136731Y8352D01*
X136775Y8549D01*
X136818Y8745D01*
X136884Y8920D01*
X136949Y9095D01*
X137026Y9248D01*
X137092Y9390D01*
X137168Y9510D01*
X137244Y9631D01*
X137310Y9718D01*
X137376Y9805D01*
X137419Y9860D01*
X137463Y9915D01*
X137485Y9937D01*
X137496Y9948D01*
X137649Y10090D01*
X137813Y10210D01*
X137977Y10319D01*
X138152Y10418D01*
X138327Y10494D01*
X138491Y10560D01*
X138654Y10614D01*
X138819Y10658D01*
X138961Y10691D01*
X139103Y10713D01*
X139223Y10735D01*
X139332Y10746D01*
X139420Y10756D01*
X139540D01*
X139835Y10746D01*
D02*
G37*
G36*
X106367Y10735D02*
X106553Y10713D01*
X106728Y10680D01*
X106881Y10647D01*
X107023Y10603D01*
X107154Y10560D01*
X107274Y10516D01*
X107373Y10461D01*
X107460Y10418D01*
X107537Y10374D01*
X107591Y10341D01*
X107646Y10308D01*
X107679Y10286D01*
X107690Y10276D01*
X107701Y10265D01*
X107799Y10177D01*
X107887Y10079D01*
X107963Y9980D01*
X108018Y9871D01*
X108127Y9674D01*
X108193Y9488D01*
X108225Y9325D01*
X108236Y9248D01*
X108247Y9193D01*
X108258Y9139D01*
Y9106D01*
Y9084D01*
Y9073D01*
X108247Y8931D01*
X108225Y8800D01*
X108203Y8669D01*
X108160Y8549D01*
X108051Y8341D01*
X107930Y8166D01*
X107821Y8024D01*
X107712Y7926D01*
X107668Y7882D01*
X107646Y7860D01*
X107624Y7849D01*
X107613Y7838D01*
X107515Y7784D01*
X107384Y7718D01*
X107231Y7652D01*
X107067Y7598D01*
X106892Y7532D01*
X106706Y7477D01*
X106324Y7368D01*
X106138Y7314D01*
X105963Y7270D01*
X105810Y7226D01*
X105668Y7193D01*
X105547Y7171D01*
X105460Y7149D01*
X105405Y7128D01*
X105384D01*
X105252Y7095D01*
X105154Y7062D01*
X105067Y7029D01*
X105001Y7007D01*
X104957Y6975D01*
X104924Y6964D01*
X104903Y6942D01*
X104837Y6854D01*
X104804Y6767D01*
X104793Y6701D01*
Y6679D01*
Y6669D01*
X104804Y6581D01*
X104826Y6505D01*
X104859Y6439D01*
X104892Y6384D01*
X104924Y6341D01*
X104957Y6308D01*
X104979Y6286D01*
X104990Y6275D01*
X105110Y6210D01*
X105242Y6166D01*
X105384Y6122D01*
X105515Y6100D01*
X105635Y6089D01*
X105744Y6078D01*
X105832D01*
X106017Y6089D01*
X106170Y6111D01*
X106313Y6144D01*
X106422Y6188D01*
X106509Y6221D01*
X106575Y6253D01*
X106619Y6275D01*
X106630Y6286D01*
X106728Y6374D01*
X106805Y6483D01*
X106870Y6581D01*
X106925Y6690D01*
X106957Y6789D01*
X106979Y6865D01*
X107001Y6909D01*
Y6931D01*
X108455Y6712D01*
X108356Y6439D01*
X108236Y6188D01*
X108105Y5980D01*
X107963Y5805D01*
X107832Y5663D01*
X107712Y5565D01*
X107679Y5521D01*
X107646Y5499D01*
X107624Y5488D01*
X107613Y5477D01*
X107482Y5401D01*
X107351Y5324D01*
X107056Y5215D01*
X106761Y5138D01*
X106477Y5084D01*
X106345Y5062D01*
X106225Y5051D01*
X106116Y5040D01*
X106017D01*
X105941Y5029D01*
X105832D01*
X105613Y5040D01*
X105405Y5051D01*
X105209Y5084D01*
X105023Y5117D01*
X104859Y5149D01*
X104706Y5204D01*
X104564Y5248D01*
X104444Y5302D01*
X104334Y5346D01*
X104236Y5401D01*
X104159Y5444D01*
X104094Y5477D01*
X104039Y5521D01*
X104006Y5543D01*
X103984Y5554D01*
X103974Y5565D01*
X103864Y5674D01*
X103766Y5783D01*
X103679Y5893D01*
X103602Y6002D01*
X103547Y6111D01*
X103493Y6221D01*
X103416Y6417D01*
X103373Y6603D01*
X103361Y6679D01*
X103351Y6734D01*
X103340Y6789D01*
Y6833D01*
Y6854D01*
Y6865D01*
X103361Y7106D01*
X103416Y7324D01*
X103482Y7510D01*
X103569Y7663D01*
X103657Y7784D01*
X103722Y7871D01*
X103777Y7915D01*
X103799Y7937D01*
X103897Y8002D01*
X103996Y8079D01*
X104116Y8133D01*
X104247Y8199D01*
X104509Y8308D01*
X104782Y8406D01*
X105023Y8483D01*
X105132Y8505D01*
X105231Y8538D01*
X105307Y8559D01*
X105362Y8570D01*
X105405Y8581D01*
X105416D01*
X105624Y8636D01*
X105810Y8680D01*
X105974Y8723D01*
X106116Y8767D01*
X106247Y8800D01*
X106356Y8833D01*
X106444Y8866D01*
X106531Y8887D01*
X106597Y8920D01*
X106651Y8942D01*
X106695Y8953D01*
X106717Y8975D01*
X106761Y8986D01*
X106772Y8997D01*
X106815Y9040D01*
X106848Y9084D01*
X106892Y9172D01*
X106914Y9237D01*
Y9248D01*
Y9259D01*
X106903Y9325D01*
X106892Y9379D01*
X106826Y9478D01*
X106772Y9532D01*
X106761Y9554D01*
X106750D01*
X106641Y9609D01*
X106520Y9652D01*
X106389Y9674D01*
X106247Y9696D01*
X106127Y9707D01*
X106028Y9718D01*
X105930D01*
X105766Y9707D01*
X105624Y9696D01*
X105504Y9663D01*
X105405Y9631D01*
X105329Y9598D01*
X105274Y9576D01*
X105242Y9554D01*
X105231Y9543D01*
X105143Y9478D01*
X105078Y9401D01*
X105012Y9325D01*
X104968Y9237D01*
X104935Y9172D01*
X104914Y9117D01*
X104892Y9073D01*
Y9062D01*
X103525Y9314D01*
X103613Y9565D01*
X103733Y9784D01*
X103853Y9969D01*
X103984Y10112D01*
X104094Y10232D01*
X104192Y10319D01*
X104258Y10363D01*
X104269Y10385D01*
X104280D01*
X104389Y10450D01*
X104509Y10505D01*
X104771Y10603D01*
X105045Y10669D01*
X105318Y10713D01*
X105449Y10724D01*
X105569Y10735D01*
X105679Y10746D01*
X105766Y10756D01*
X106170D01*
X106367Y10735D01*
D02*
G37*
G36*
X130102Y2282D02*
X128648D01*
Y3627D01*
X130102D01*
Y2282D01*
D02*
G37*
G36*
X152213Y2260D02*
X150967D01*
Y3506D01*
X152213D01*
Y2260D01*
D02*
G37*
G36*
X149983D02*
X148737D01*
Y3506D01*
X149983D01*
Y2260D01*
D02*
G37*
G36*
X118888Y1659D02*
X119062Y1637D01*
X119226Y1605D01*
X119390Y1561D01*
X119664Y1441D01*
X119795Y1375D01*
X119904Y1309D01*
X120013Y1233D01*
X120101Y1167D01*
X120177Y1113D01*
X120243Y1058D01*
X120298Y1003D01*
X120330Y971D01*
X120352Y949D01*
X120363Y938D01*
X120483Y796D01*
X120582Y643D01*
X120669Y468D01*
X120746Y304D01*
X120800Y129D01*
X120855Y-46D01*
X120931Y-396D01*
X120964Y-549D01*
X120986Y-702D01*
X120997Y-833D01*
X121008Y-942D01*
X121019Y-1041D01*
Y-1106D01*
Y-1161D01*
Y-1172D01*
X121008Y-1369D01*
X120997Y-1565D01*
X120942Y-1915D01*
X120899Y-2079D01*
X120855Y-2232D01*
X120811Y-2374D01*
X120768Y-2494D01*
X120724Y-2615D01*
X120680Y-2713D01*
X120636Y-2800D01*
X120593Y-2877D01*
X120560Y-2932D01*
X120538Y-2975D01*
X120516Y-2997D01*
Y-3008D01*
X120385Y-3172D01*
X120254Y-3314D01*
X120112Y-3434D01*
X119970Y-3543D01*
X119828Y-3631D01*
X119675Y-3708D01*
X119533Y-3773D01*
X119401Y-3817D01*
X119270Y-3861D01*
X119150Y-3882D01*
X119041Y-3904D01*
X118953Y-3926D01*
X118877D01*
X118811Y-3937D01*
X118767D01*
X118581Y-3926D01*
X118407Y-3893D01*
X118243Y-3850D01*
X118090Y-3795D01*
X117816Y-3653D01*
X117685Y-3576D01*
X117576Y-3489D01*
X117478Y-3412D01*
X117379Y-3336D01*
X117303Y-3259D01*
X117248Y-3194D01*
X117193Y-3128D01*
X117161Y-3084D01*
X117139Y-3063D01*
X117128Y-3052D01*
Y-3850D01*
Y-4013D01*
X117139Y-4156D01*
X117150Y-4265D01*
X117161Y-4352D01*
X117183Y-4429D01*
X117193Y-4473D01*
X117204Y-4494D01*
Y-4505D01*
X117248Y-4593D01*
X117292Y-4669D01*
X117335Y-4735D01*
X117379Y-4790D01*
X117423Y-4833D01*
X117456Y-4855D01*
X117478Y-4866D01*
X117489Y-4877D01*
X117609Y-4932D01*
X117740Y-4975D01*
X117882Y-5008D01*
X118024Y-5030D01*
X118144Y-5041D01*
X118243Y-5052D01*
X118341D01*
X118494Y-5041D01*
X118625Y-5030D01*
X118735Y-4997D01*
X118822Y-4964D01*
X118898Y-4943D01*
X118942Y-4910D01*
X118975Y-4899D01*
X118986Y-4888D01*
X119041Y-4844D01*
X119084Y-4779D01*
X119139Y-4648D01*
X119150Y-4593D01*
X119161Y-4538D01*
X119172Y-4505D01*
Y-4494D01*
X120833Y-4298D01*
X120844Y-4363D01*
Y-4418D01*
Y-4462D01*
Y-4473D01*
X120833Y-4604D01*
X120822Y-4735D01*
X120757Y-4975D01*
X120658Y-5183D01*
X120549Y-5358D01*
X120451Y-5500D01*
X120352Y-5598D01*
X120287Y-5664D01*
X120276Y-5675D01*
X120265Y-5686D01*
X120144Y-5773D01*
X120013Y-5839D01*
X119860Y-5904D01*
X119707Y-5959D01*
X119379Y-6047D01*
X119052Y-6101D01*
X118898Y-6123D01*
X118756Y-6145D01*
X118625Y-6156D01*
X118516D01*
X118418Y-6167D01*
X118286D01*
X118024Y-6156D01*
X117784Y-6145D01*
X117576Y-6112D01*
X117390Y-6079D01*
X117248Y-6057D01*
X117150Y-6025D01*
X117084Y-6014D01*
X117062Y-6003D01*
X116887Y-5937D01*
X116734Y-5872D01*
X116603Y-5795D01*
X116494Y-5729D01*
X116417Y-5675D01*
X116352Y-5620D01*
X116308Y-5587D01*
X116297Y-5576D01*
X116188Y-5467D01*
X116100Y-5347D01*
X116024Y-5216D01*
X115958Y-5096D01*
X115904Y-4986D01*
X115871Y-4899D01*
X115849Y-4844D01*
X115838Y-4822D01*
X115805Y-4724D01*
X115784Y-4626D01*
X115740Y-4396D01*
X115718Y-4156D01*
X115696Y-3915D01*
X115685Y-3708D01*
X115674Y-3620D01*
Y-3533D01*
Y-3467D01*
Y-3423D01*
Y-3390D01*
Y-3380D01*
Y1550D01*
X117030D01*
Y763D01*
X117161Y927D01*
X117292Y1058D01*
X117434Y1189D01*
X117576Y1288D01*
X117718Y1375D01*
X117860Y1452D01*
X117991Y1506D01*
X118122Y1561D01*
X118243Y1594D01*
X118352Y1626D01*
X118461Y1637D01*
X118538Y1659D01*
X118614D01*
X118669Y1670D01*
X118713D01*
X118888Y1659D01*
D02*
G37*
G36*
X140551Y1659D02*
X140737Y1637D01*
X140922Y1594D01*
X141086Y1550D01*
X141250Y1495D01*
X141393Y1430D01*
X141534Y1353D01*
X141655Y1288D01*
X141764Y1211D01*
X141862Y1135D01*
X141950Y1069D01*
X142016Y1014D01*
X142070Y971D01*
X142114Y927D01*
X142136Y905D01*
X142147Y894D01*
X142267Y741D01*
X142376Y577D01*
X142474Y413D01*
X142562Y238D01*
X142628Y52D01*
X142682Y-122D01*
X142770Y-461D01*
X142802Y-625D01*
X142824Y-767D01*
X142835Y-898D01*
X142846Y-1008D01*
X142857Y-1106D01*
Y-1183D01*
Y-1226D01*
Y-1237D01*
X142846Y-1445D01*
X142835Y-1653D01*
X142802Y-1838D01*
X142770Y-2013D01*
X142737Y-2188D01*
X142682Y-2341D01*
X142639Y-2483D01*
X142584Y-2615D01*
X142540Y-2735D01*
X142485Y-2833D01*
X142442Y-2921D01*
X142409Y-2997D01*
X142365Y-3052D01*
X142343Y-3095D01*
X142332Y-3117D01*
X142322Y-3128D01*
X142179Y-3292D01*
X142037Y-3434D01*
X141873Y-3554D01*
X141699Y-3664D01*
X141524Y-3751D01*
X141349Y-3828D01*
X141174Y-3893D01*
X140999Y-3937D01*
X140846Y-3981D01*
X140693Y-4003D01*
X140551Y-4025D01*
X140431Y-4046D01*
X140332D01*
X140267Y-4057D01*
X140201D01*
X139884Y-4035D01*
X139589Y-3992D01*
X139338Y-3926D01*
X139119Y-3850D01*
X139021Y-3806D01*
X138944Y-3773D01*
X138868Y-3740D01*
X138813Y-3708D01*
X138769Y-3675D01*
X138725Y-3664D01*
X138715Y-3642D01*
X138704D01*
X138496Y-3467D01*
X138310Y-3281D01*
X138157Y-3073D01*
X138037Y-2877D01*
X137939Y-2702D01*
X137906Y-2625D01*
X137873Y-2560D01*
X137851Y-2505D01*
X137829Y-2461D01*
X137818Y-2440D01*
Y-2429D01*
X139261Y-2188D01*
X139316Y-2330D01*
X139370Y-2461D01*
X139425Y-2560D01*
X139491Y-2647D01*
X139534Y-2713D01*
X139578Y-2757D01*
X139611Y-2778D01*
X139622Y-2789D01*
X139709Y-2855D01*
X139808Y-2899D01*
X139906Y-2931D01*
X139993Y-2953D01*
X140070Y-2964D01*
X140136Y-2975D01*
X140190D01*
X140365Y-2964D01*
X140529Y-2921D01*
X140682Y-2866D01*
X140802Y-2800D01*
X140901Y-2735D01*
X140966Y-2680D01*
X141021Y-2636D01*
X141032Y-2625D01*
X141141Y-2483D01*
X141218Y-2319D01*
X141283Y-2145D01*
X141327Y-1991D01*
X141349Y-1838D01*
X141360Y-1729D01*
X141371Y-1685D01*
Y-1653D01*
Y-1631D01*
Y-1620D01*
X137742D01*
Y-1314D01*
X137764Y-1041D01*
X137796Y-778D01*
X137840Y-538D01*
X137895Y-308D01*
X137950Y-111D01*
X138015Y74D01*
X138081Y238D01*
X138146Y380D01*
X138212Y512D01*
X138267Y610D01*
X138321Y697D01*
X138365Y763D01*
X138398Y817D01*
X138419Y839D01*
X138430Y850D01*
X138562Y992D01*
X138715Y1124D01*
X138868Y1233D01*
X139021Y1320D01*
X139185Y1408D01*
X139349Y1473D01*
X139502Y1528D01*
X139655Y1572D01*
X139797Y1605D01*
X139928Y1626D01*
X140048Y1648D01*
X140146Y1659D01*
X140234Y1670D01*
X140354D01*
X140551Y1659D01*
D02*
G37*
G36*
X112351Y1659D02*
X112537Y1637D01*
X112723Y1594D01*
X112887Y1550D01*
X113051Y1495D01*
X113193Y1430D01*
X113335Y1353D01*
X113455Y1288D01*
X113565Y1211D01*
X113663Y1135D01*
X113751Y1069D01*
X113816Y1014D01*
X113871Y971D01*
X113914Y927D01*
X113936Y905D01*
X113947Y894D01*
X114067Y741D01*
X114177Y577D01*
X114275Y413D01*
X114363Y238D01*
X114428Y52D01*
X114483Y-122D01*
X114570Y-461D01*
X114603Y-625D01*
X114625Y-767D01*
X114636Y-898D01*
X114647Y-1008D01*
X114658Y-1106D01*
Y-1183D01*
Y-1226D01*
Y-1237D01*
X114647Y-1445D01*
X114636Y-1653D01*
X114603Y-1839D01*
X114570Y-2013D01*
X114537Y-2188D01*
X114483Y-2341D01*
X114439Y-2483D01*
X114384Y-2615D01*
X114341Y-2735D01*
X114286Y-2833D01*
X114242Y-2921D01*
X114209Y-2997D01*
X114166Y-3052D01*
X114144Y-3095D01*
X114133Y-3117D01*
X114122Y-3128D01*
X113980Y-3292D01*
X113838Y-3434D01*
X113674Y-3554D01*
X113499Y-3664D01*
X113324Y-3751D01*
X113149Y-3828D01*
X112975Y-3893D01*
X112800Y-3937D01*
X112647Y-3981D01*
X112494Y-4003D01*
X112351Y-4025D01*
X112231Y-4046D01*
X112133D01*
X112067Y-4057D01*
X112002D01*
X111685Y-4035D01*
X111390Y-3992D01*
X111138Y-3926D01*
X110920Y-3850D01*
X110821Y-3806D01*
X110745Y-3773D01*
X110668Y-3740D01*
X110614Y-3708D01*
X110570Y-3675D01*
X110526Y-3664D01*
X110515Y-3642D01*
X110504D01*
X110297Y-3467D01*
X110111Y-3281D01*
X109958Y-3073D01*
X109838Y-2877D01*
X109739Y-2702D01*
X109706Y-2625D01*
X109674Y-2560D01*
X109652Y-2505D01*
X109630Y-2461D01*
X109619Y-2440D01*
Y-2429D01*
X111062Y-2188D01*
X111116Y-2330D01*
X111171Y-2461D01*
X111226Y-2560D01*
X111291Y-2647D01*
X111335Y-2713D01*
X111379Y-2757D01*
X111411Y-2778D01*
X111422Y-2789D01*
X111510Y-2855D01*
X111608Y-2899D01*
X111707Y-2932D01*
X111794Y-2953D01*
X111871Y-2964D01*
X111936Y-2975D01*
X111991D01*
X112166Y-2964D01*
X112330Y-2921D01*
X112483Y-2866D01*
X112603Y-2800D01*
X112701Y-2735D01*
X112767Y-2680D01*
X112821Y-2636D01*
X112832Y-2625D01*
X112942Y-2483D01*
X113018Y-2319D01*
X113084Y-2145D01*
X113128Y-1991D01*
X113149Y-1839D01*
X113160Y-1729D01*
X113171Y-1685D01*
Y-1653D01*
Y-1631D01*
Y-1620D01*
X109542D01*
Y-1314D01*
X109564Y-1041D01*
X109597Y-778D01*
X109641Y-538D01*
X109695Y-308D01*
X109750Y-111D01*
X109816Y74D01*
X109881Y238D01*
X109947Y380D01*
X110012Y512D01*
X110067Y610D01*
X110122Y697D01*
X110166Y763D01*
X110198Y817D01*
X110220Y839D01*
X110231Y850D01*
X110362Y992D01*
X110515Y1124D01*
X110668Y1233D01*
X110821Y1320D01*
X110985Y1408D01*
X111149Y1473D01*
X111302Y1528D01*
X111455Y1572D01*
X111597Y1605D01*
X111728Y1626D01*
X111849Y1648D01*
X111947Y1659D01*
X112034Y1670D01*
X112155D01*
X112351Y1659D01*
D02*
G37*
G36*
X159449Y-3937D02*
X157919D01*
Y-724D01*
X154760D01*
Y555D01*
X157919D01*
Y2348D01*
X154257D01*
Y3627D01*
X159449D01*
Y-3937D01*
D02*
G37*
G36*
X144158Y1659D02*
X144267Y1648D01*
X144376Y1615D01*
X144464Y1583D01*
X144540Y1550D01*
X144606Y1528D01*
X144639Y1506D01*
X144650Y1495D01*
X144759Y1419D01*
X144857Y1309D01*
X144967Y1189D01*
X145054Y1069D01*
X145141Y949D01*
X145207Y850D01*
X145251Y785D01*
X145262Y774D01*
Y1550D01*
X146606D01*
Y-3937D01*
X145152D01*
Y-2254D01*
Y-2002D01*
Y-1773D01*
X145141Y-1565D01*
X145131Y-1379D01*
Y-1204D01*
X145120Y-1062D01*
X145109Y-920D01*
X145098Y-811D01*
X145087Y-713D01*
X145076Y-625D01*
X145065Y-560D01*
Y-505D01*
X145054Y-472D01*
X145043Y-439D01*
Y-418D01*
X144999Y-264D01*
X144945Y-133D01*
X144890Y-24D01*
X144835Y52D01*
X144792Y118D01*
X144748Y162D01*
X144726Y184D01*
X144715Y195D01*
X144628Y249D01*
X144540Y293D01*
X144453Y326D01*
X144376Y347D01*
X144311Y359D01*
X144245Y369D01*
X144202D01*
X144081Y359D01*
X143961Y337D01*
X143852Y293D01*
X143742Y249D01*
X143655Y206D01*
X143589Y162D01*
X143535Y140D01*
X143524Y129D01*
X143065Y1386D01*
X143240Y1484D01*
X143404Y1550D01*
X143568Y1605D01*
X143721Y1637D01*
X143841Y1659D01*
X143939Y1670D01*
X144027D01*
X144158Y1659D01*
D02*
G37*
G36*
X133621D02*
X133818Y1626D01*
X133993Y1583D01*
X134168Y1528D01*
X134332Y1452D01*
X134474Y1375D01*
X134616Y1288D01*
X134736Y1211D01*
X134845Y1124D01*
X134944Y1036D01*
X135031Y960D01*
X135097Y883D01*
X135151Y828D01*
X135195Y785D01*
X135217Y752D01*
X135228Y741D01*
Y1550D01*
X136572D01*
Y-3937D01*
X135119D01*
Y-1467D01*
Y-1303D01*
Y-1150D01*
X135108Y-1008D01*
X135097Y-888D01*
Y-767D01*
X135086Y-669D01*
X135075Y-571D01*
X135064Y-494D01*
X135042Y-363D01*
X135031Y-276D01*
X135009Y-221D01*
Y-210D01*
X134966Y-90D01*
X134900Y31D01*
X134835Y118D01*
X134769Y206D01*
X134703Y260D01*
X134649Y315D01*
X134616Y337D01*
X134605Y347D01*
X134485Y413D01*
X134364Y468D01*
X134255Y501D01*
X134146Y533D01*
X134058Y544D01*
X133993Y555D01*
X133927D01*
X133818Y544D01*
X133720Y533D01*
X133643Y512D01*
X133567Y479D01*
X133501Y446D01*
X133457Y424D01*
X133435Y413D01*
X133424Y402D01*
X133348Y347D01*
X133293Y282D01*
X133195Y151D01*
X133162Y85D01*
X133140Y41D01*
X133118Y9D01*
Y-2D01*
X133097Y-57D01*
X133086Y-122D01*
X133064Y-286D01*
X133042Y-483D01*
X133031Y-669D01*
X133020Y-855D01*
Y-931D01*
Y-1008D01*
Y-1062D01*
Y-1106D01*
Y-1139D01*
Y-1150D01*
Y-3937D01*
X131566D01*
Y-538D01*
Y-308D01*
X131577Y-122D01*
X131588Y52D01*
X131610Y184D01*
X131621Y293D01*
X131643Y369D01*
X131654Y424D01*
Y435D01*
X131687Y566D01*
X131730Y675D01*
X131774Y785D01*
X131829Y872D01*
X131872Y949D01*
X131905Y1003D01*
X131927Y1036D01*
X131938Y1047D01*
X132026Y1145D01*
X132124Y1233D01*
X132222Y1309D01*
X132321Y1375D01*
X132408Y1430D01*
X132484Y1462D01*
X132528Y1484D01*
X132550Y1495D01*
X132703Y1550D01*
X132856Y1594D01*
X132998Y1626D01*
X133129Y1648D01*
X133250Y1659D01*
X133348Y1670D01*
X133424D01*
X133621Y1659D01*
D02*
G37*
G36*
X130102Y-3937D02*
X128648D01*
Y1550D01*
X130102D01*
Y-3937D01*
D02*
G37*
G36*
X124221Y1659D02*
X124418Y1626D01*
X124593Y1583D01*
X124768Y1528D01*
X124932Y1452D01*
X125074Y1375D01*
X125216Y1288D01*
X125336Y1211D01*
X125446Y1124D01*
X125544Y1036D01*
X125631Y960D01*
X125697Y883D01*
X125752Y828D01*
X125795Y785D01*
X125817Y752D01*
X125828Y741D01*
Y1550D01*
X127173D01*
Y-3937D01*
X125719D01*
Y-1467D01*
Y-1303D01*
Y-1150D01*
X125708Y-1008D01*
X125697Y-888D01*
Y-767D01*
X125686Y-669D01*
X125675Y-571D01*
X125664Y-494D01*
X125642Y-363D01*
X125631Y-276D01*
X125610Y-221D01*
Y-210D01*
X125566Y-90D01*
X125500Y31D01*
X125435Y118D01*
X125369Y205D01*
X125303Y260D01*
X125249Y315D01*
X125216Y337D01*
X125205Y347D01*
X125085Y413D01*
X124965Y468D01*
X124855Y501D01*
X124746Y533D01*
X124659Y544D01*
X124593Y555D01*
X124528D01*
X124418Y544D01*
X124320Y533D01*
X124243Y512D01*
X124167Y479D01*
X124101Y446D01*
X124057Y424D01*
X124036Y413D01*
X124025Y402D01*
X123948Y347D01*
X123893Y282D01*
X123795Y151D01*
X123762Y85D01*
X123740Y41D01*
X123719Y9D01*
Y-2D01*
X123697Y-57D01*
X123686Y-122D01*
X123664Y-286D01*
X123642Y-483D01*
X123631Y-669D01*
X123620Y-855D01*
Y-931D01*
Y-1008D01*
Y-1062D01*
Y-1106D01*
Y-1139D01*
Y-1150D01*
Y-3937D01*
X122167D01*
Y-538D01*
Y-308D01*
X122178Y-122D01*
X122188Y52D01*
X122210Y184D01*
X122221Y293D01*
X122243Y369D01*
X122254Y424D01*
Y435D01*
X122287Y566D01*
X122330Y675D01*
X122374Y785D01*
X122429Y872D01*
X122473Y949D01*
X122505Y1003D01*
X122527Y1036D01*
X122538Y1047D01*
X122626Y1145D01*
X122724Y1233D01*
X122822Y1309D01*
X122921Y1375D01*
X123008Y1430D01*
X123085Y1462D01*
X123128Y1484D01*
X123150Y1495D01*
X123303Y1550D01*
X123456Y1594D01*
X123598Y1626D01*
X123730Y1648D01*
X123850Y1659D01*
X123948Y1670D01*
X124025D01*
X124221Y1659D01*
D02*
G37*
G36*
X105422D02*
X105619Y1626D01*
X105793Y1583D01*
X105968Y1528D01*
X106132Y1452D01*
X106274Y1375D01*
X106416Y1288D01*
X106537Y1211D01*
X106646Y1124D01*
X106744Y1036D01*
X106832Y960D01*
X106897Y883D01*
X106952Y828D01*
X106996Y785D01*
X107018Y752D01*
X107028Y741D01*
Y1550D01*
X108373D01*
Y-3937D01*
X106919D01*
Y-1467D01*
Y-1303D01*
Y-1150D01*
X106908Y-1008D01*
X106897Y-888D01*
Y-767D01*
X106886Y-669D01*
X106876Y-571D01*
X106865Y-494D01*
X106843Y-363D01*
X106832Y-276D01*
X106810Y-221D01*
Y-210D01*
X106766Y-90D01*
X106701Y31D01*
X106635Y118D01*
X106570Y205D01*
X106504Y260D01*
X106449Y315D01*
X106416Y337D01*
X106405Y347D01*
X106285Y413D01*
X106165Y468D01*
X106056Y501D01*
X105947Y533D01*
X105859Y544D01*
X105793Y555D01*
X105728D01*
X105619Y544D01*
X105520Y533D01*
X105444Y512D01*
X105367Y479D01*
X105302Y446D01*
X105258Y424D01*
X105236Y413D01*
X105225Y402D01*
X105149Y347D01*
X105094Y282D01*
X104996Y151D01*
X104963Y85D01*
X104941Y41D01*
X104919Y9D01*
Y-2D01*
X104897Y-57D01*
X104886Y-122D01*
X104864Y-286D01*
X104842Y-483D01*
X104832Y-669D01*
X104821Y-855D01*
Y-931D01*
Y-1008D01*
Y-1062D01*
Y-1106D01*
Y-1139D01*
Y-1150D01*
Y-3937D01*
X103367D01*
Y-538D01*
Y-308D01*
X103378Y-122D01*
X103389Y52D01*
X103411Y184D01*
X103422Y293D01*
X103444Y369D01*
X103454Y424D01*
Y435D01*
X103487Y566D01*
X103531Y675D01*
X103575Y785D01*
X103629Y872D01*
X103673Y949D01*
X103706Y1003D01*
X103728Y1036D01*
X103739Y1047D01*
X103826Y1145D01*
X103924Y1233D01*
X104023Y1309D01*
X104121Y1375D01*
X104209Y1430D01*
X104285Y1462D01*
X104329Y1484D01*
X104351Y1495D01*
X104504Y1550D01*
X104657Y1594D01*
X104799Y1626D01*
X104930Y1648D01*
X105050Y1659D01*
X105149Y1670D01*
X105225D01*
X105422Y1659D01*
D02*
G37*
G36*
X150814Y1659D02*
X151087Y1615D01*
X151339Y1561D01*
X151557Y1495D01*
X151645Y1452D01*
X151732Y1419D01*
X151809Y1397D01*
X151863Y1364D01*
X151918Y1342D01*
X151951Y1320D01*
X151973Y1309D01*
X151984D01*
X152213Y1156D01*
X152410Y992D01*
X152585Y817D01*
X152727Y654D01*
X152836Y501D01*
X152924Y380D01*
X152956Y337D01*
X152967Y304D01*
X152989Y282D01*
Y271D01*
X153109Y20D01*
X153186Y-232D01*
X153252Y-461D01*
X153295Y-669D01*
X153317Y-855D01*
X153328Y-931D01*
Y-997D01*
X153339Y-1041D01*
Y-1084D01*
Y-1106D01*
Y-1117D01*
X153328Y-1456D01*
X153284Y-1773D01*
X153230Y-2046D01*
X153197Y-2166D01*
X153164Y-2276D01*
X153131Y-2374D01*
X153098Y-2461D01*
X153066Y-2538D01*
X153044Y-2603D01*
X153022Y-2658D01*
X153000Y-2691D01*
X152989Y-2713D01*
Y-2724D01*
X152836Y-2953D01*
X152672Y-3150D01*
X152497Y-3325D01*
X152333Y-3467D01*
X152180Y-3576D01*
X152060Y-3653D01*
X152016Y-3686D01*
X151984Y-3708D01*
X151962Y-3718D01*
X151951D01*
X151689Y-3828D01*
X151437Y-3915D01*
X151197Y-3970D01*
X150967Y-4013D01*
X150781Y-4035D01*
X150705Y-4046D01*
X150639D01*
X150585Y-4057D01*
X150508D01*
X150278Y-4046D01*
X150071Y-4025D01*
X149863Y-3981D01*
X149677Y-3926D01*
X149492Y-3871D01*
X149328Y-3806D01*
X149175Y-3729D01*
X149032Y-3653D01*
X148912Y-3576D01*
X148803Y-3500D01*
X148705Y-3434D01*
X148628Y-3380D01*
X148563Y-3325D01*
X148519Y-3281D01*
X148497Y-3259D01*
X148486Y-3248D01*
X148344Y-3084D01*
X148224Y-2921D01*
X148114Y-2757D01*
X148016Y-2582D01*
X147940Y-2407D01*
X147874Y-2232D01*
X147819Y-2068D01*
X147776Y-1904D01*
X147743Y-1762D01*
X147721Y-1620D01*
X147699Y-1500D01*
X147688Y-1390D01*
X147677Y-1303D01*
Y-1237D01*
Y-1194D01*
Y-1183D01*
X147688Y-953D01*
X147710Y-734D01*
X147754Y-538D01*
X147797Y-341D01*
X147863Y-166D01*
X147929Y9D01*
X148005Y162D01*
X148071Y304D01*
X148147Y424D01*
X148224Y544D01*
X148289Y632D01*
X148355Y719D01*
X148399Y774D01*
X148442Y828D01*
X148464Y850D01*
X148475Y861D01*
X148628Y1003D01*
X148792Y1124D01*
X148956Y1233D01*
X149131Y1331D01*
X149306Y1408D01*
X149470Y1473D01*
X149634Y1528D01*
X149798Y1572D01*
X149940Y1605D01*
X150082Y1626D01*
X150202Y1648D01*
X150311Y1659D01*
X150399Y1670D01*
X150519D01*
X150814Y1659D01*
D02*
G37*
G36*
X-9007Y11580D02*
X-7028D01*
Y10224D01*
X-9007D01*
Y8268D01*
X-10329D01*
Y10224D01*
X-12318D01*
Y11580D01*
X-10329D01*
Y13536D01*
X-9007D01*
Y11580D01*
D02*
G37*
G36*
X28702Y1593D02*
X28822Y1582D01*
X28935Y1564D01*
X29044Y1542D01*
X29142Y1516D01*
X29237Y1487D01*
X29324Y1454D01*
X29401Y1422D01*
X29470Y1389D01*
X29536Y1356D01*
X29587Y1327D01*
X29634Y1302D01*
X29667Y1280D01*
X29692Y1261D01*
X29710Y1251D01*
X29714Y1247D01*
X29794Y1178D01*
X29867Y1098D01*
X29932Y1014D01*
X29987Y923D01*
X30038Y828D01*
X30082Y734D01*
X30118Y639D01*
X30151Y544D01*
X30176Y457D01*
X30198Y373D01*
X30216Y301D01*
X30227Y235D01*
X30238Y180D01*
X30242Y159D01*
X30245Y140D01*
Y126D01*
X30249Y115D01*
Y108D01*
Y104D01*
X29288Y9D01*
X29281Y86D01*
X29274Y155D01*
X29259Y220D01*
X29245Y282D01*
X29230Y337D01*
X29212Y388D01*
X29193Y432D01*
X29175Y472D01*
X29157Y504D01*
X29142Y533D01*
X29128Y559D01*
X29113Y577D01*
X29103Y595D01*
X29092Y606D01*
X29088Y610D01*
X29084Y614D01*
X29048Y646D01*
X29011Y675D01*
X28971Y697D01*
X28935Y719D01*
X28851Y752D01*
X28775Y774D01*
X28706Y785D01*
X28677Y792D01*
X28651D01*
X28629Y796D01*
X28600D01*
X28546Y792D01*
X28491Y788D01*
X28396Y770D01*
X28313Y741D01*
X28243Y708D01*
X28218Y694D01*
X28192Y675D01*
X28171Y661D01*
X28152Y650D01*
X28138Y635D01*
X28127Y628D01*
X28123Y624D01*
X28120Y621D01*
X28091Y588D01*
X28062Y548D01*
X28018Y472D01*
X27989Y388D01*
X27967Y308D01*
X27952Y235D01*
X27949Y206D01*
Y180D01*
X27945Y155D01*
Y140D01*
Y129D01*
Y126D01*
X27949Y71D01*
X27952Y17D01*
X27978Y-93D01*
X28007Y-191D01*
X28043Y-282D01*
X28065Y-322D01*
X28083Y-358D01*
X28098Y-387D01*
X28112Y-416D01*
X28127Y-438D01*
X28138Y-453D01*
X28141Y-464D01*
X28145Y-467D01*
X28178Y-511D01*
X28222Y-566D01*
X28273Y-624D01*
X28334Y-686D01*
X28396Y-755D01*
X28466Y-821D01*
X28600Y-959D01*
X28669Y-1024D01*
X28731Y-1086D01*
X28789Y-1141D01*
X28840Y-1192D01*
X28884Y-1232D01*
X28917Y-1265D01*
X28939Y-1283D01*
X28942Y-1287D01*
X28946Y-1290D01*
X29092Y-1429D01*
X29226Y-1560D01*
X29346Y-1680D01*
X29459Y-1796D01*
X29557Y-1905D01*
X29649Y-2004D01*
X29725Y-2095D01*
X29794Y-2178D01*
X29852Y-2251D01*
X29903Y-2317D01*
X29947Y-2371D01*
X29980Y-2415D01*
X30002Y-2451D01*
X30020Y-2477D01*
X30031Y-2495D01*
X30034Y-2499D01*
X30082Y-2586D01*
X30125Y-2670D01*
X30165Y-2757D01*
X30202Y-2841D01*
X30231Y-2925D01*
X30256Y-3001D01*
X30282Y-3077D01*
X30300Y-3150D01*
X30318Y-3216D01*
X30329Y-3274D01*
X30340Y-3328D01*
X30347Y-3372D01*
X30355Y-3409D01*
X30358Y-3438D01*
X30362Y-3452D01*
Y-3460D01*
X26977D01*
Y-2564D01*
X28899D01*
X28870Y-2517D01*
X28837Y-2469D01*
X28804Y-2422D01*
X28771Y-2382D01*
X28746Y-2349D01*
X28720Y-2320D01*
X28706Y-2306D01*
X28702Y-2298D01*
X28677Y-2269D01*
X28640Y-2233D01*
X28604Y-2197D01*
X28560Y-2153D01*
X28462Y-2062D01*
X28364Y-1967D01*
X28316Y-1924D01*
X28273Y-1880D01*
X28229Y-1843D01*
X28192Y-1811D01*
X28163Y-1782D01*
X28138Y-1760D01*
X28123Y-1745D01*
X28120Y-1742D01*
X28036Y-1665D01*
X27959Y-1592D01*
X27890Y-1527D01*
X27828Y-1465D01*
X27770Y-1407D01*
X27719Y-1352D01*
X27672Y-1305D01*
X27632Y-1261D01*
X27595Y-1225D01*
X27566Y-1192D01*
X27541Y-1163D01*
X27519Y-1137D01*
X27505Y-1119D01*
X27494Y-1108D01*
X27490Y-1101D01*
X27486Y-1097D01*
X27395Y-974D01*
X27315Y-857D01*
X27250Y-748D01*
X27221Y-697D01*
X27195Y-649D01*
X27173Y-610D01*
X27155Y-569D01*
X27137Y-537D01*
X27122Y-511D01*
X27115Y-486D01*
X27108Y-471D01*
X27101Y-460D01*
Y-457D01*
X27060Y-340D01*
X27028Y-224D01*
X27006Y-114D01*
X26991Y-16D01*
X26988Y27D01*
X26984Y68D01*
X26980Y104D01*
X26977Y133D01*
Y159D01*
Y177D01*
Y188D01*
Y191D01*
X26980Y301D01*
X26995Y406D01*
X27017Y508D01*
X27042Y603D01*
X27075Y690D01*
X27111Y774D01*
X27151Y847D01*
X27191Y916D01*
X27231Y978D01*
X27272Y1036D01*
X27308Y1080D01*
X27341Y1120D01*
X27366Y1152D01*
X27388Y1174D01*
X27403Y1189D01*
X27406Y1192D01*
X27490Y1265D01*
X27577Y1327D01*
X27672Y1378D01*
X27770Y1425D01*
X27865Y1465D01*
X27963Y1498D01*
X28062Y1524D01*
X28152Y1545D01*
X28240Y1564D01*
X28320Y1575D01*
X28393Y1585D01*
X28455Y1589D01*
X28506Y1593D01*
X28546Y1596D01*
X28578D01*
X28702Y1593D01*
D02*
G37*
G36*
X22718Y1513D02*
X22758Y1429D01*
X22802Y1349D01*
X22849Y1276D01*
X22900Y1203D01*
X22951Y1138D01*
X23002Y1076D01*
X23049Y1018D01*
X23100Y967D01*
X23144Y923D01*
X23184Y883D01*
X23220Y850D01*
X23249Y825D01*
X23275Y803D01*
X23289Y792D01*
X23293Y788D01*
X23377Y726D01*
X23457Y668D01*
X23533Y617D01*
X23610Y570D01*
X23679Y526D01*
X23748Y490D01*
X23810Y457D01*
X23868Y424D01*
X23923Y399D01*
X23970Y377D01*
X24010Y362D01*
X24047Y348D01*
X24076Y337D01*
X24094Y330D01*
X24108Y322D01*
X24112D01*
Y-555D01*
X23981Y-508D01*
X23854Y-457D01*
X23730Y-398D01*
X23613Y-340D01*
X23504Y-282D01*
X23402Y-220D01*
X23308Y-158D01*
X23220Y-100D01*
X23140Y-45D01*
X23071Y9D01*
X23009Y57D01*
X22958Y97D01*
X22918Y129D01*
X22889Y155D01*
X22871Y169D01*
X22863Y177D01*
Y-3460D01*
X21899D01*
Y1596D01*
X22685D01*
X22718Y1513D01*
D02*
G37*
G36*
X34894Y-3460D02*
X34024D01*
X32575Y191D01*
X33569D01*
X34260Y-1672D01*
X34282Y-1731D01*
X34300Y-1785D01*
X34319Y-1840D01*
X34333Y-1887D01*
X34348Y-1924D01*
X34359Y-1956D01*
X34362Y-1974D01*
X34366Y-1982D01*
X34370Y-1996D01*
X34377Y-2018D01*
X34388Y-2062D01*
X34406Y-2113D01*
X34420Y-2167D01*
X34439Y-2215D01*
X34450Y-2255D01*
X34457Y-2273D01*
X34461Y-2284D01*
X34464Y-2291D01*
Y-2295D01*
X34664Y-1672D01*
X35352Y191D01*
X36364D01*
X34894Y-3460D01*
D02*
G37*
G36*
X38556Y264D02*
X38683Y250D01*
X38803Y224D01*
X38916Y191D01*
X39022Y151D01*
X39120Y108D01*
X39211Y60D01*
X39294Y13D01*
X39367Y-34D01*
X39433Y-82D01*
X39491Y-125D01*
X39538Y-165D01*
X39575Y-198D01*
X39600Y-224D01*
X39615Y-238D01*
X39622Y-246D01*
X39706Y-347D01*
X39779Y-453D01*
X39840Y-566D01*
X39895Y-682D01*
X39942Y-802D01*
X39979Y-919D01*
X40012Y-1035D01*
X40037Y-1148D01*
X40055Y-1254D01*
X40070Y-1352D01*
X40081Y-1439D01*
X40088Y-1516D01*
X40092Y-1549D01*
Y-1578D01*
Y-1603D01*
X40095Y-1625D01*
Y-1643D01*
Y-1654D01*
Y-1661D01*
Y-1665D01*
X40092Y-1803D01*
X40081Y-1938D01*
X40062Y-2066D01*
X40037Y-2182D01*
X40012Y-2295D01*
X39983Y-2397D01*
X39950Y-2491D01*
X39913Y-2579D01*
X39880Y-2659D01*
X39848Y-2728D01*
X39819Y-2786D01*
X39790Y-2833D01*
X39768Y-2874D01*
X39750Y-2903D01*
X39739Y-2917D01*
X39735Y-2925D01*
X39644Y-3034D01*
X39542Y-3128D01*
X39437Y-3212D01*
X39324Y-3281D01*
X39207Y-3343D01*
X39091Y-3390D01*
X38974Y-3434D01*
X38861Y-3467D01*
X38752Y-3492D01*
X38650Y-3511D01*
X38563Y-3525D01*
X38483Y-3532D01*
X38446Y-3536D01*
X38417Y-3540D01*
X38392D01*
X38366Y-3543D01*
X38326D01*
X38217Y-3540D01*
X38111Y-3532D01*
X38010Y-3518D01*
X37915Y-3500D01*
X37828Y-3481D01*
X37744Y-3456D01*
X37671Y-3430D01*
X37602Y-3405D01*
X37540Y-3379D01*
X37482Y-3358D01*
X37438Y-3332D01*
X37398Y-3314D01*
X37365Y-3296D01*
X37343Y-3281D01*
X37329Y-3274D01*
X37325Y-3270D01*
X37252Y-3216D01*
X37183Y-3158D01*
X37121Y-3092D01*
X37063Y-3026D01*
X37012Y-2961D01*
X36961Y-2892D01*
X36918Y-2826D01*
X36881Y-2761D01*
X36845Y-2702D01*
X36816Y-2644D01*
X36790Y-2593D01*
X36772Y-2550D01*
X36754Y-2513D01*
X36743Y-2484D01*
X36739Y-2469D01*
X36736Y-2462D01*
X37696Y-2302D01*
X37729Y-2400D01*
X37766Y-2480D01*
X37806Y-2550D01*
X37846Y-2604D01*
X37879Y-2648D01*
X37908Y-2677D01*
X37926Y-2695D01*
X37929Y-2702D01*
X37933D01*
X37995Y-2743D01*
X38057Y-2772D01*
X38122Y-2794D01*
X38181Y-2808D01*
X38235Y-2815D01*
X38275Y-2819D01*
X38293Y-2823D01*
X38315D01*
X38377Y-2819D01*
X38435Y-2812D01*
X38490Y-2801D01*
X38545Y-2786D01*
X38639Y-2746D01*
X38683Y-2728D01*
X38719Y-2702D01*
X38756Y-2681D01*
X38785Y-2662D01*
X38814Y-2641D01*
X38836Y-2622D01*
X38854Y-2608D01*
X38865Y-2597D01*
X38872Y-2590D01*
X38876Y-2586D01*
X38916Y-2539D01*
X38949Y-2488D01*
X38978Y-2433D01*
X39007Y-2379D01*
X39029Y-2324D01*
X39047Y-2269D01*
X39072Y-2160D01*
X39083Y-2109D01*
X39091Y-2066D01*
X39098Y-2022D01*
X39102Y-1985D01*
Y-1956D01*
X39105Y-1934D01*
Y-1920D01*
Y-1916D01*
X36685D01*
X36688Y-1716D01*
X36699Y-1527D01*
X36721Y-1352D01*
X36746Y-1192D01*
X36783Y-1043D01*
X36819Y-908D01*
X36863Y-784D01*
X36907Y-675D01*
X36950Y-580D01*
X36990Y-497D01*
X37030Y-428D01*
X37067Y-369D01*
X37096Y-326D01*
X37118Y-293D01*
X37136Y-275D01*
X37140Y-267D01*
X37231Y-173D01*
X37329Y-89D01*
X37431Y-16D01*
X37536Y46D01*
X37646Y97D01*
X37751Y140D01*
X37857Y177D01*
X37955Y206D01*
X38050Y228D01*
X38141Y242D01*
X38217Y257D01*
X38286Y264D01*
X38344Y268D01*
X38366D01*
X38385Y271D01*
X38421D01*
X38556Y264D01*
D02*
G37*
G36*
X44882Y-3460D02*
X43866D01*
Y-1356D01*
X43601D01*
X43539Y-1359D01*
X43484D01*
X43437Y-1363D01*
X43389Y-1370D01*
X43346Y-1374D01*
X43309Y-1378D01*
X43277Y-1385D01*
X43248Y-1388D01*
X43222Y-1396D01*
X43200Y-1399D01*
X43182Y-1403D01*
X43171Y-1407D01*
X43160Y-1410D01*
X43153Y-1414D01*
X43091Y-1439D01*
X43036Y-1472D01*
X42985Y-1505D01*
X42938Y-1541D01*
X42902Y-1574D01*
X42873Y-1599D01*
X42854Y-1618D01*
X42847Y-1625D01*
X42818Y-1658D01*
X42782Y-1702D01*
X42742Y-1749D01*
X42702Y-1803D01*
X42658Y-1865D01*
X42614Y-1927D01*
X42523Y-2051D01*
X42480Y-2113D01*
X42439Y-2171D01*
X42403Y-2222D01*
X42370Y-2269D01*
X42345Y-2309D01*
X42327Y-2338D01*
X42312Y-2357D01*
X42308Y-2364D01*
X41577Y-3460D01*
X40357D01*
X40973Y-2477D01*
X41038Y-2371D01*
X41104Y-2273D01*
X41162Y-2186D01*
X41216Y-2102D01*
X41267Y-2029D01*
X41315Y-1960D01*
X41358Y-1902D01*
X41398Y-1851D01*
X41435Y-1803D01*
X41464Y-1763D01*
X41489Y-1731D01*
X41511Y-1705D01*
X41530Y-1687D01*
X41540Y-1672D01*
X41548Y-1665D01*
X41551Y-1661D01*
X41635Y-1578D01*
X41726Y-1498D01*
X41817Y-1425D01*
X41904Y-1359D01*
X41944Y-1334D01*
X41981Y-1308D01*
X42014Y-1287D01*
X42043Y-1268D01*
X42064Y-1254D01*
X42083Y-1243D01*
X42094Y-1239D01*
X42097Y-1235D01*
X41977Y-1214D01*
X41864Y-1188D01*
X41759Y-1159D01*
X41660Y-1123D01*
X41570Y-1086D01*
X41489Y-1046D01*
X41417Y-1010D01*
X41347Y-970D01*
X41289Y-930D01*
X41238Y-893D01*
X41198Y-861D01*
X41162Y-831D01*
X41136Y-806D01*
X41115Y-788D01*
X41104Y-777D01*
X41100Y-773D01*
X41042Y-701D01*
X40991Y-628D01*
X40943Y-548D01*
X40907Y-471D01*
X40874Y-391D01*
X40845Y-315D01*
X40823Y-238D01*
X40805Y-165D01*
X40794Y-96D01*
X40783Y-34D01*
X40776Y24D01*
X40769Y71D01*
Y111D01*
X40765Y140D01*
Y159D01*
Y166D01*
X40769Y250D01*
X40776Y326D01*
X40787Y402D01*
X40798Y475D01*
X40816Y544D01*
X40834Y610D01*
X40856Y672D01*
X40874Y726D01*
X40896Y777D01*
X40918Y825D01*
X40936Y861D01*
X40951Y894D01*
X40965Y919D01*
X40976Y941D01*
X40983Y952D01*
X40987Y956D01*
X41031Y1018D01*
X41074Y1076D01*
X41122Y1130D01*
X41169Y1178D01*
X41220Y1221D01*
X41267Y1261D01*
X41315Y1298D01*
X41362Y1331D01*
X41406Y1356D01*
X41446Y1378D01*
X41482Y1400D01*
X41511Y1414D01*
X41537Y1425D01*
X41559Y1433D01*
X41570Y1440D01*
X41573D01*
X41646Y1465D01*
X41730Y1487D01*
X41817Y1505D01*
X41908Y1520D01*
X42105Y1545D01*
X42199Y1553D01*
X42294Y1560D01*
X42385Y1567D01*
X42469Y1571D01*
X42545Y1575D01*
X42614D01*
X42669Y1578D01*
X44882D01*
Y-3460D01*
D02*
G37*
G36*
X26118D02*
X25153D01*
Y-2495D01*
X26118D01*
Y-3460D01*
D02*
G37*
G36*
X146524Y128921D02*
X145070D01*
Y130266D01*
X146524D01*
Y128921D01*
D02*
G37*
G36*
X92464Y128921D02*
X91010D01*
Y130266D01*
X92464D01*
Y128921D01*
D02*
G37*
G36*
X180057Y122702D02*
X178713D01*
Y123500D01*
X178581Y123336D01*
X178450Y123194D01*
X178319Y123085D01*
X178199Y122986D01*
X178089Y122910D01*
X178002Y122855D01*
X177947Y122822D01*
X177926Y122811D01*
X177751Y122735D01*
X177587Y122680D01*
X177434Y122637D01*
X177292Y122615D01*
X177171Y122593D01*
X177073Y122582D01*
X176997D01*
X176822Y122593D01*
X176647Y122615D01*
X176494Y122648D01*
X176341Y122702D01*
X176057Y122822D01*
X175936Y122888D01*
X175816Y122965D01*
X175718Y123030D01*
X175630Y123096D01*
X175554Y123161D01*
X175488Y123216D01*
X175434Y123270D01*
X175401Y123303D01*
X175379Y123325D01*
X175368Y123336D01*
X175248Y123489D01*
X175149Y123642D01*
X175051Y123817D01*
X174975Y123992D01*
X174909Y124178D01*
X174854Y124353D01*
X174778Y124702D01*
X174745Y124866D01*
X174723Y125019D01*
X174712Y125151D01*
X174701Y125271D01*
X174690Y125369D01*
Y125435D01*
Y125489D01*
Y125500D01*
X174701Y125752D01*
X174723Y125981D01*
X174756Y126200D01*
X174789Y126397D01*
X174843Y126582D01*
X174898Y126757D01*
X174964Y126910D01*
X175018Y127052D01*
X175084Y127173D01*
X175149Y127282D01*
X175204Y127369D01*
X175248Y127446D01*
X175292Y127500D01*
X175324Y127544D01*
X175346Y127566D01*
X175357Y127577D01*
X175488Y127708D01*
X175619Y127817D01*
X175751Y127916D01*
X175893Y128003D01*
X176035Y128069D01*
X176166Y128134D01*
X176428Y128222D01*
X176559Y128244D01*
X176669Y128266D01*
X176767Y128287D01*
X176854Y128298D01*
X176920Y128309D01*
X177018D01*
X177182Y128298D01*
X177346Y128276D01*
X177510Y128244D01*
X177652Y128189D01*
X177926Y128069D01*
X178155Y127927D01*
X178253Y127861D01*
X178341Y127785D01*
X178417Y127719D01*
X178483Y127664D01*
X178538Y127610D01*
X178570Y127577D01*
X178592Y127555D01*
X178603Y127544D01*
Y130266D01*
X180057D01*
Y122702D01*
D02*
G37*
G36*
X153038D02*
X151694D01*
Y123500D01*
X151562Y123336D01*
X151431Y123194D01*
X151300Y123085D01*
X151180Y122986D01*
X151071Y122910D01*
X150983Y122855D01*
X150928Y122822D01*
X150907Y122811D01*
X150732Y122735D01*
X150568Y122680D01*
X150415Y122637D01*
X150273Y122615D01*
X150153Y122593D01*
X150054Y122582D01*
X149978D01*
X149803Y122593D01*
X149628Y122615D01*
X149475Y122648D01*
X149322Y122702D01*
X149038Y122822D01*
X148917Y122888D01*
X148797Y122965D01*
X148699Y123030D01*
X148611Y123096D01*
X148535Y123161D01*
X148469Y123216D01*
X148415Y123270D01*
X148382Y123303D01*
X148360Y123325D01*
X148349Y123336D01*
X148229Y123489D01*
X148130Y123642D01*
X148032Y123817D01*
X147956Y123992D01*
X147890Y124178D01*
X147835Y124353D01*
X147759Y124702D01*
X147726Y124866D01*
X147704Y125019D01*
X147693Y125151D01*
X147682Y125271D01*
X147671Y125369D01*
Y125435D01*
Y125489D01*
Y125500D01*
X147682Y125752D01*
X147704Y125981D01*
X147737Y126200D01*
X147770Y126397D01*
X147824Y126582D01*
X147879Y126757D01*
X147945Y126910D01*
X147999Y127052D01*
X148065Y127173D01*
X148130Y127282D01*
X148185Y127369D01*
X148229Y127446D01*
X148273Y127500D01*
X148305Y127544D01*
X148327Y127566D01*
X148338Y127577D01*
X148469Y127708D01*
X148600Y127817D01*
X148732Y127916D01*
X148874Y128003D01*
X149016Y128069D01*
X149147Y128134D01*
X149409Y128222D01*
X149540Y128244D01*
X149650Y128266D01*
X149748Y128287D01*
X149836Y128298D01*
X149901Y128309D01*
X149999D01*
X150163Y128298D01*
X150327Y128276D01*
X150491Y128244D01*
X150633Y128189D01*
X150907Y128069D01*
X151136Y127927D01*
X151234Y127861D01*
X151322Y127785D01*
X151399Y127719D01*
X151464Y127664D01*
X151519Y127610D01*
X151551Y127577D01*
X151573Y127555D01*
X151584Y127544D01*
Y130266D01*
X153038D01*
Y122702D01*
D02*
G37*
G36*
X87709Y128298D02*
X87884Y128276D01*
X88048Y128244D01*
X88212Y128200D01*
X88485Y128080D01*
X88617Y128014D01*
X88726Y127948D01*
X88835Y127872D01*
X88923Y127806D01*
X88999Y127752D01*
X89065Y127697D01*
X89119Y127643D01*
X89152Y127610D01*
X89174Y127588D01*
X89185Y127577D01*
X89305Y127435D01*
X89403Y127282D01*
X89491Y127107D01*
X89568Y126943D01*
X89622Y126768D01*
X89677Y126593D01*
X89753Y126243D01*
X89786Y126090D01*
X89808Y125937D01*
X89819Y125806D01*
X89830Y125697D01*
X89841Y125599D01*
Y125533D01*
Y125478D01*
Y125467D01*
X89830Y125271D01*
X89819Y125074D01*
X89764Y124724D01*
X89720Y124560D01*
X89677Y124407D01*
X89633Y124265D01*
X89589Y124145D01*
X89546Y124025D01*
X89502Y123926D01*
X89458Y123839D01*
X89414Y123762D01*
X89382Y123708D01*
X89360Y123664D01*
X89338Y123642D01*
Y123631D01*
X89207Y123467D01*
X89076Y123325D01*
X88933Y123205D01*
X88791Y123096D01*
X88649Y123008D01*
X88496Y122932D01*
X88354Y122866D01*
X88223Y122822D01*
X88092Y122779D01*
X87972Y122757D01*
X87862Y122735D01*
X87775Y122713D01*
X87698D01*
X87633Y122702D01*
X87589D01*
X87403Y122713D01*
X87228Y122746D01*
X87064Y122790D01*
X86911Y122844D01*
X86638Y122986D01*
X86507Y123063D01*
X86398Y123150D01*
X86299Y123227D01*
X86201Y123303D01*
X86124Y123380D01*
X86070Y123445D01*
X86015Y123511D01*
X85982Y123555D01*
X85961Y123576D01*
X85950Y123588D01*
Y122790D01*
Y122626D01*
X85961Y122484D01*
X85971Y122374D01*
X85982Y122287D01*
X86004Y122210D01*
X86015Y122167D01*
X86026Y122145D01*
Y122134D01*
X86070Y122046D01*
X86114Y121970D01*
X86157Y121904D01*
X86201Y121850D01*
X86245Y121806D01*
X86278Y121784D01*
X86299Y121773D01*
X86310Y121762D01*
X86431Y121707D01*
X86562Y121664D01*
X86704Y121631D01*
X86846Y121609D01*
X86966Y121598D01*
X87064Y121587D01*
X87163D01*
X87316Y121598D01*
X87447Y121609D01*
X87556Y121642D01*
X87644Y121675D01*
X87720Y121697D01*
X87764Y121729D01*
X87797Y121740D01*
X87808Y121751D01*
X87862Y121795D01*
X87906Y121861D01*
X87961Y121992D01*
X87972Y122046D01*
X87983Y122101D01*
X87994Y122134D01*
Y122145D01*
X89655Y122342D01*
X89666Y122276D01*
Y122221D01*
Y122178D01*
Y122167D01*
X89655Y122035D01*
X89644Y121904D01*
X89578Y121664D01*
X89480Y121456D01*
X89371Y121281D01*
X89272Y121139D01*
X89174Y121041D01*
X89108Y120975D01*
X89097Y120964D01*
X89087Y120953D01*
X88966Y120866D01*
X88835Y120800D01*
X88682Y120735D01*
X88529Y120680D01*
X88201Y120593D01*
X87873Y120538D01*
X87720Y120516D01*
X87578Y120494D01*
X87447Y120483D01*
X87338D01*
X87239Y120472D01*
X87108D01*
X86846Y120483D01*
X86605Y120494D01*
X86398Y120527D01*
X86212Y120560D01*
X86070Y120582D01*
X85971Y120615D01*
X85906Y120625D01*
X85884Y120636D01*
X85709Y120702D01*
X85556Y120767D01*
X85425Y120844D01*
X85316Y120910D01*
X85239Y120964D01*
X85174Y121019D01*
X85130Y121052D01*
X85119Y121063D01*
X85010Y121172D01*
X84922Y121292D01*
X84846Y121423D01*
X84780Y121544D01*
X84725Y121653D01*
X84693Y121740D01*
X84671Y121795D01*
X84660Y121817D01*
X84627Y121915D01*
X84605Y122014D01*
X84562Y122243D01*
X84540Y122484D01*
X84518Y122724D01*
X84507Y122932D01*
X84496Y123019D01*
Y123107D01*
Y123172D01*
Y123216D01*
Y123249D01*
Y123260D01*
Y128189D01*
X85851D01*
Y127402D01*
X85982Y127566D01*
X86114Y127697D01*
X86256Y127828D01*
X86398Y127927D01*
X86540Y128014D01*
X86682Y128091D01*
X86813Y128145D01*
X86944Y128200D01*
X87064Y128233D01*
X87174Y128266D01*
X87283Y128276D01*
X87360Y128298D01*
X87436D01*
X87491Y128309D01*
X87534D01*
X87709Y128298D01*
D02*
G37*
G36*
X134184Y128287D02*
X134359Y128276D01*
X134512Y128244D01*
X134665Y128222D01*
X134796Y128189D01*
X134916Y128145D01*
X135025Y128112D01*
X135113Y128080D01*
X135200Y128036D01*
X135266Y128003D01*
X135331Y127981D01*
X135375Y127948D01*
X135408Y127938D01*
X135419Y127916D01*
X135430D01*
X135616Y127752D01*
X135769Y127566D01*
X135900Y127369D01*
X136009Y127183D01*
X136085Y127009D01*
X136118Y126932D01*
X136140Y126866D01*
X136162Y126812D01*
X136173Y126768D01*
X136184Y126746D01*
Y126735D01*
X134883Y126495D01*
X134829Y126626D01*
X134774Y126735D01*
X134719Y126834D01*
X134654Y126910D01*
X134610Y126965D01*
X134566Y126998D01*
X134544Y127020D01*
X134534Y127030D01*
X134446Y127085D01*
X134348Y127129D01*
X134238Y127151D01*
X134140Y127173D01*
X134053Y127183D01*
X133987Y127194D01*
X133921D01*
X133725Y127183D01*
X133561Y127162D01*
X133430Y127140D01*
X133320Y127107D01*
X133244Y127063D01*
X133189Y127041D01*
X133156Y127020D01*
X133145Y127009D01*
X133069Y126932D01*
X133014Y126845D01*
X132981Y126746D01*
X132949Y126648D01*
X132938Y126549D01*
X132927Y126473D01*
Y126429D01*
Y126407D01*
Y126265D01*
X133003Y126233D01*
X133102Y126200D01*
X133309Y126134D01*
X133550Y126079D01*
X133779Y126025D01*
X133998Y125970D01*
X134096Y125948D01*
X134184Y125937D01*
X134249Y125926D01*
X134304Y125916D01*
X134337Y125905D01*
X134348D01*
X134610Y125850D01*
X134851Y125795D01*
X135047Y125741D01*
X135211Y125686D01*
X135342Y125631D01*
X135430Y125599D01*
X135484Y125577D01*
X135506Y125566D01*
X135648Y125489D01*
X135769Y125402D01*
X135878Y125303D01*
X135954Y125216D01*
X136031Y125139D01*
X136075Y125074D01*
X136107Y125030D01*
X136118Y125008D01*
X136195Y124866D01*
X136249Y124724D01*
X136282Y124593D01*
X136304Y124462D01*
X136326Y124353D01*
X136337Y124265D01*
Y124211D01*
Y124189D01*
X136326Y124057D01*
X136315Y123937D01*
X136260Y123708D01*
X136184Y123511D01*
X136097Y123347D01*
X136009Y123216D01*
X135933Y123117D01*
X135878Y123052D01*
X135856Y123041D01*
Y123030D01*
X135659Y122877D01*
X135441Y122768D01*
X135222Y122691D01*
X135003Y122637D01*
X134818Y122604D01*
X134730Y122593D01*
X134665D01*
X134599Y122582D01*
X134523D01*
X134348Y122593D01*
X134173Y122615D01*
X134020Y122637D01*
X133889Y122669D01*
X133779Y122702D01*
X133692Y122735D01*
X133637Y122746D01*
X133615Y122757D01*
X133462Y122833D01*
X133309Y122910D01*
X133178Y123008D01*
X133058Y123096D01*
X132960Y123172D01*
X132883Y123238D01*
X132839Y123281D01*
X132817Y123292D01*
X132807Y123249D01*
X132785Y123194D01*
X132774Y123150D01*
X132763Y123139D01*
Y123128D01*
X132730Y123030D01*
X132708Y122943D01*
X132686Y122866D01*
X132665Y122811D01*
X132643Y122768D01*
X132632Y122724D01*
X132621Y122713D01*
Y122702D01*
X131189D01*
X131254Y122844D01*
X131309Y122975D01*
X131353Y123096D01*
X131397Y123205D01*
X131418Y123292D01*
X131440Y123369D01*
X131451Y123413D01*
Y123424D01*
X131473Y123566D01*
X131484Y123740D01*
X131506Y123915D01*
Y124090D01*
X131517Y124243D01*
Y124374D01*
Y124429D01*
Y124462D01*
Y124484D01*
Y124495D01*
X131495Y126189D01*
Y126364D01*
X131506Y126517D01*
X131517Y126659D01*
X131528Y126790D01*
X131539Y126910D01*
X131561Y127020D01*
X131571Y127118D01*
X131593Y127194D01*
X131615Y127271D01*
X131626Y127325D01*
X131659Y127424D01*
X131681Y127468D01*
X131692Y127489D01*
X131779Y127610D01*
X131878Y127730D01*
X131987Y127828D01*
X132107Y127916D01*
X132205Y127981D01*
X132293Y128025D01*
X132348Y128058D01*
X132358Y128069D01*
X132369D01*
X132468Y128112D01*
X132566Y128145D01*
X132796Y128211D01*
X133036Y128255D01*
X133266Y128276D01*
X133484Y128298D01*
X133572D01*
X133648Y128309D01*
X134009D01*
X134184Y128287D01*
D02*
G37*
G36*
X212475Y122702D02*
X211065D01*
X210136Y126222D01*
X209196Y122702D01*
X207797D01*
X206038Y128189D01*
X207469D01*
X208519Y124593D01*
X209426Y128189D01*
X210825D01*
X211776Y124593D01*
X212803Y128189D01*
X214202D01*
X212475Y122702D01*
D02*
G37*
G36*
X172144Y122691D02*
X172198Y122527D01*
X172253Y122385D01*
X172318Y122254D01*
X172373Y122145D01*
X172428Y122057D01*
X172471Y121992D01*
X172504Y121948D01*
X172515Y121937D01*
X172614Y121839D01*
X172734Y121762D01*
X172854Y121707D01*
X172974Y121675D01*
X173084Y121653D01*
X173171Y121631D01*
X173258D01*
X173466Y121642D01*
X173575Y121653D01*
X173663Y121675D01*
X173750Y121686D01*
X173816Y121697D01*
X173860Y121707D01*
X173871D01*
X173739Y120571D01*
X173444Y120516D01*
X173313Y120494D01*
X173182Y120483D01*
X173084D01*
X172996Y120472D01*
X172778D01*
X172635Y120483D01*
X172515Y120505D01*
X172406Y120527D01*
X172308Y120538D01*
X172242Y120560D01*
X172198Y120571D01*
X172187D01*
X172067Y120604D01*
X171958Y120647D01*
X171870Y120691D01*
X171794Y120724D01*
X171728Y120757D01*
X171685Y120789D01*
X171652Y120800D01*
X171641Y120811D01*
X171477Y120942D01*
X171357Y121074D01*
X171313Y121139D01*
X171280Y121183D01*
X171258Y121216D01*
X171247Y121227D01*
X171182Y121336D01*
X171116Y121445D01*
X171051Y121565D01*
X170996Y121686D01*
X170952Y121795D01*
X170908Y121882D01*
X170887Y121937D01*
X170876Y121959D01*
X170526Y122899D01*
X168591Y128189D01*
X170089D01*
X171379Y124287D01*
X172679Y128189D01*
X174220D01*
X172144Y122691D01*
D02*
G37*
G36*
X124565Y122691D02*
X124620Y122527D01*
X124675Y122385D01*
X124740Y122254D01*
X124795Y122145D01*
X124849Y122057D01*
X124893Y121992D01*
X124926Y121948D01*
X124937Y121937D01*
X125035Y121839D01*
X125155Y121762D01*
X125276Y121707D01*
X125396Y121675D01*
X125505Y121653D01*
X125593Y121631D01*
X125680D01*
X125888Y121642D01*
X125997Y121653D01*
X126085Y121675D01*
X126172Y121686D01*
X126238Y121697D01*
X126281Y121707D01*
X126292D01*
X126161Y120571D01*
X125866Y120516D01*
X125735Y120494D01*
X125604Y120483D01*
X125505D01*
X125418Y120472D01*
X125199D01*
X125057Y120483D01*
X124937Y120505D01*
X124828Y120527D01*
X124729Y120538D01*
X124664Y120560D01*
X124620Y120571D01*
X124609D01*
X124489Y120604D01*
X124380Y120647D01*
X124292Y120691D01*
X124216Y120724D01*
X124150Y120757D01*
X124106Y120789D01*
X124074Y120800D01*
X124063Y120811D01*
X123899Y120942D01*
X123778Y121074D01*
X123735Y121139D01*
X123702Y121183D01*
X123680Y121216D01*
X123669Y121227D01*
X123603Y121336D01*
X123538Y121445D01*
X123472Y121565D01*
X123418Y121686D01*
X123374Y121795D01*
X123330Y121882D01*
X123308Y121937D01*
X123298Y121959D01*
X122948Y122899D01*
X121013Y128189D01*
X122511D01*
X123800Y124287D01*
X125101Y128189D01*
X126642D01*
X124565Y122691D01*
D02*
G37*
G36*
X143507Y129282D02*
Y128189D01*
X144174D01*
Y127030D01*
X143507D01*
Y124637D01*
Y124495D01*
Y124374D01*
Y124254D01*
X143496Y124156D01*
Y123981D01*
X143485Y123839D01*
X143474Y123730D01*
Y123664D01*
X143463Y123620D01*
Y123609D01*
X143441Y123489D01*
X143409Y123380D01*
X143376Y123281D01*
X143343Y123205D01*
X143310Y123139D01*
X143288Y123096D01*
X143278Y123063D01*
X143267Y123052D01*
X143201Y122975D01*
X143124Y122910D01*
X142972Y122801D01*
X142906Y122768D01*
X142851Y122735D01*
X142807Y122724D01*
X142797Y122713D01*
X142676Y122669D01*
X142556Y122637D01*
X142436Y122615D01*
X142327Y122604D01*
X142228Y122593D01*
X142152Y122582D01*
X142086D01*
X141857Y122593D01*
X141638Y122615D01*
X141441Y122648D01*
X141277Y122691D01*
X141135Y122724D01*
X141026Y122757D01*
X140960Y122779D01*
X140949Y122790D01*
X140938D01*
X141070Y123915D01*
X141201Y123872D01*
X141321Y123839D01*
X141419Y123817D01*
X141507Y123806D01*
X141572Y123795D01*
X141616Y123784D01*
X141660D01*
X141758Y123795D01*
X141835Y123817D01*
X141878Y123839D01*
X141900Y123850D01*
X141966Y123915D01*
X141999Y123970D01*
X142020Y124014D01*
X142032Y124036D01*
Y124057D01*
X142042Y124101D01*
Y124200D01*
Y124331D01*
X142053Y124462D01*
Y124593D01*
Y124702D01*
Y124746D01*
Y124779D01*
Y124801D01*
Y124812D01*
Y127030D01*
X141059Y127030D01*
Y128189D01*
X142053Y128189D01*
Y130134D01*
X143507Y129282D01*
D02*
G37*
G36*
X107668Y129282D02*
Y128189D01*
X108334D01*
Y127030D01*
X107668D01*
Y124637D01*
Y124495D01*
Y124374D01*
Y124254D01*
X107657Y124156D01*
Y123981D01*
X107646Y123839D01*
X107635Y123730D01*
Y123664D01*
X107624Y123620D01*
Y123609D01*
X107602Y123489D01*
X107569Y123380D01*
X107536Y123281D01*
X107504Y123205D01*
X107471Y123139D01*
X107449Y123096D01*
X107438Y123063D01*
X107427Y123052D01*
X107361Y122975D01*
X107285Y122910D01*
X107132Y122801D01*
X107066Y122768D01*
X107012Y122735D01*
X106968Y122724D01*
X106957Y122713D01*
X106837Y122669D01*
X106717Y122637D01*
X106596Y122615D01*
X106487Y122604D01*
X106389Y122593D01*
X106312Y122582D01*
X106247D01*
X106017Y122593D01*
X105798Y122615D01*
X105602Y122648D01*
X105438Y122691D01*
X105296Y122724D01*
X105186Y122757D01*
X105121Y122779D01*
X105110Y122790D01*
X105099D01*
X105230Y123915D01*
X105361Y123872D01*
X105482Y123839D01*
X105580Y123817D01*
X105667Y123806D01*
X105733Y123795D01*
X105777Y123784D01*
X105820D01*
X105919Y123795D01*
X105995Y123817D01*
X106039Y123839D01*
X106061Y123850D01*
X106126Y123915D01*
X106159Y123970D01*
X106181Y124014D01*
X106192Y124036D01*
Y124057D01*
X106203Y124101D01*
Y124199D01*
Y124331D01*
X106214Y124462D01*
Y124593D01*
Y124702D01*
Y124746D01*
Y124779D01*
Y124801D01*
Y124812D01*
Y127030D01*
X105219D01*
Y128189D01*
X106214D01*
Y130134D01*
X107668Y129282D01*
D02*
G37*
G36*
X68615Y128298D02*
X68822Y128276D01*
X69030Y128244D01*
X69205Y128189D01*
X69380Y128134D01*
X69544Y128069D01*
X69686Y128003D01*
X69817Y127927D01*
X69937Y127861D01*
X70036Y127785D01*
X70123Y127719D01*
X70200Y127664D01*
X70254Y127610D01*
X70298Y127577D01*
X70320Y127555D01*
X70331Y127544D01*
X70451Y127391D01*
X70560Y127238D01*
X70659Y127074D01*
X70746Y126899D01*
X70812Y126724D01*
X70866Y126549D01*
X70954Y126211D01*
X70986Y126047D01*
X71008Y125905D01*
X71019Y125774D01*
X71030Y125653D01*
X71041Y125566D01*
Y125489D01*
Y125446D01*
Y125435D01*
X71030Y125194D01*
X71008Y124954D01*
X70976Y124746D01*
X70932Y124538D01*
X70877Y124353D01*
X70812Y124178D01*
X70757Y124025D01*
X70680Y123883D01*
X70615Y123751D01*
X70560Y123642D01*
X70495Y123555D01*
X70440Y123478D01*
X70396Y123413D01*
X70363Y123369D01*
X70342Y123347D01*
X70331Y123336D01*
X70189Y123205D01*
X70047Y123085D01*
X69893Y122986D01*
X69730Y122899D01*
X69577Y122822D01*
X69412Y122768D01*
X69260Y122713D01*
X69107Y122680D01*
X68964Y122648D01*
X68833Y122626D01*
X68713Y122604D01*
X68615Y122593D01*
X68538Y122582D01*
X68418D01*
X68221Y122593D01*
X68046Y122604D01*
X67871Y122626D01*
X67708Y122658D01*
X67554Y122691D01*
X67423Y122735D01*
X67292Y122779D01*
X67183Y122833D01*
X67074Y122877D01*
X66986Y122921D01*
X66910Y122965D01*
X66844Y122997D01*
X66800Y123030D01*
X66768Y123052D01*
X66746Y123074D01*
X66735D01*
X66625Y123172D01*
X66516Y123281D01*
X66330Y123522D01*
X66177Y123762D01*
X66068Y124003D01*
X65980Y124221D01*
X65948Y124320D01*
X65915Y124396D01*
X65893Y124462D01*
X65882Y124516D01*
X65871Y124549D01*
Y124560D01*
X67292Y124801D01*
X67336Y124604D01*
X67401Y124429D01*
X67456Y124287D01*
X67522Y124178D01*
X67587Y124090D01*
X67631Y124036D01*
X67664Y124003D01*
X67675Y123992D01*
X67784Y123915D01*
X67893Y123861D01*
X68003Y123817D01*
X68112Y123795D01*
X68210Y123773D01*
X68287Y123762D01*
X68352D01*
X68549Y123784D01*
X68724Y123828D01*
X68866Y123883D01*
X68997Y123959D01*
X69096Y124036D01*
X69161Y124090D01*
X69216Y124134D01*
X69227Y124156D01*
X69281Y124243D01*
X69336Y124331D01*
X69412Y124538D01*
X69478Y124768D01*
X69511Y124997D01*
X69533Y125216D01*
X69544Y125303D01*
Y125380D01*
X69555Y125446D01*
Y125500D01*
Y125533D01*
Y125544D01*
Y125697D01*
X69544Y125850D01*
X69522Y125981D01*
X69500Y126112D01*
X69478Y126222D01*
X69456Y126320D01*
X69391Y126495D01*
X69336Y126626D01*
X69281Y126713D01*
X69249Y126768D01*
X69238Y126790D01*
X69107Y126921D01*
X68964Y127008D01*
X68822Y127074D01*
X68691Y127129D01*
X68560Y127151D01*
X68462Y127162D01*
X68396Y127173D01*
X68374D01*
X68232Y127162D01*
X68101Y127140D01*
X67992Y127107D01*
X67893Y127063D01*
X67817Y127020D01*
X67762Y126987D01*
X67729Y126965D01*
X67718Y126954D01*
X67631Y126866D01*
X67554Y126768D01*
X67500Y126659D01*
X67445Y126560D01*
X67412Y126462D01*
X67391Y126385D01*
X67380Y126342D01*
Y126320D01*
X65948Y126582D01*
X66057Y126888D01*
X66188Y127151D01*
X66330Y127369D01*
X66472Y127555D01*
X66603Y127697D01*
X66702Y127796D01*
X66746Y127828D01*
X66778Y127850D01*
X66789Y127872D01*
X66800D01*
X67041Y128014D01*
X67303Y128123D01*
X67565Y128200D01*
X67817Y128255D01*
X67937Y128276D01*
X68046Y128287D01*
X68145Y128298D01*
X68232D01*
X68298Y128309D01*
X68396D01*
X68615Y128298D01*
D02*
G37*
G36*
X203382Y128298D02*
X203567Y128277D01*
X203753Y128233D01*
X203917Y128189D01*
X204081Y128134D01*
X204223Y128069D01*
X204365Y127992D01*
X204486Y127927D01*
X204595Y127850D01*
X204693Y127774D01*
X204781Y127708D01*
X204846Y127653D01*
X204901Y127610D01*
X204944Y127566D01*
X204966Y127544D01*
X204977Y127533D01*
X205098Y127380D01*
X205207Y127216D01*
X205305Y127052D01*
X205393Y126877D01*
X205458Y126692D01*
X205513Y126517D01*
X205600Y126178D01*
X205633Y126014D01*
X205655Y125872D01*
X205666Y125741D01*
X205677Y125631D01*
X205688Y125533D01*
Y125457D01*
Y125413D01*
Y125402D01*
X205677Y125194D01*
X205666Y124987D01*
X205633Y124801D01*
X205600Y124626D01*
X205568Y124451D01*
X205513Y124298D01*
X205469Y124156D01*
X205415Y124025D01*
X205371Y123905D01*
X205316Y123806D01*
X205272Y123719D01*
X205240Y123642D01*
X205196Y123588D01*
X205174Y123544D01*
X205163Y123522D01*
X205152Y123511D01*
X205010Y123347D01*
X204868Y123205D01*
X204704Y123085D01*
X204529Y122975D01*
X204354Y122888D01*
X204179Y122811D01*
X204005Y122746D01*
X203830Y122702D01*
X203677Y122658D01*
X203524Y122637D01*
X203382Y122615D01*
X203261Y122593D01*
X203163D01*
X203097Y122582D01*
X203032D01*
X202715Y122604D01*
X202420Y122648D01*
X202168Y122713D01*
X201950Y122790D01*
X201851Y122833D01*
X201775Y122866D01*
X201698Y122899D01*
X201644Y122932D01*
X201600Y122965D01*
X201556Y122975D01*
X201545Y122997D01*
X201534D01*
X201327Y123172D01*
X201141Y123358D01*
X200988Y123566D01*
X200868Y123762D01*
X200769Y123937D01*
X200736Y124014D01*
X200704Y124079D01*
X200682Y124134D01*
X200660Y124178D01*
X200649Y124200D01*
Y124211D01*
X202092Y124451D01*
X202147Y124309D01*
X202201Y124178D01*
X202256Y124079D01*
X202321Y123992D01*
X202365Y123926D01*
X202409Y123883D01*
X202442Y123861D01*
X202452Y123850D01*
X202540Y123784D01*
X202638Y123740D01*
X202737Y123708D01*
X202824Y123686D01*
X202901Y123675D01*
X202966Y123664D01*
X203021D01*
X203196Y123675D01*
X203360Y123719D01*
X203513Y123773D01*
X203633Y123839D01*
X203731Y123905D01*
X203797Y123959D01*
X203852Y124003D01*
X203863Y124014D01*
X203972Y124156D01*
X204048Y124320D01*
X204114Y124495D01*
X204158Y124648D01*
X204179Y124801D01*
X204190Y124910D01*
X204201Y124954D01*
Y124987D01*
Y125008D01*
Y125019D01*
X200573D01*
Y125325D01*
X200594Y125599D01*
X200627Y125861D01*
X200671Y126101D01*
X200726Y126331D01*
X200780Y126528D01*
X200846Y126714D01*
X200911Y126877D01*
X200977Y127020D01*
X201043Y127151D01*
X201097Y127249D01*
X201152Y127337D01*
X201196Y127402D01*
X201228Y127457D01*
X201250Y127479D01*
X201261Y127489D01*
X201392Y127632D01*
X201545Y127763D01*
X201698Y127872D01*
X201851Y127960D01*
X202015Y128047D01*
X202179Y128112D01*
X202332Y128167D01*
X202485Y128211D01*
X202627Y128244D01*
X202759Y128266D01*
X202879Y128287D01*
X202977Y128298D01*
X203065Y128309D01*
X203185D01*
X203382Y128298D01*
D02*
G37*
G36*
X193392Y128298D02*
X193577Y128276D01*
X193763Y128233D01*
X193927Y128189D01*
X194091Y128134D01*
X194233Y128069D01*
X194375Y127992D01*
X194495Y127927D01*
X194605Y127850D01*
X194703Y127774D01*
X194791Y127708D01*
X194856Y127653D01*
X194911Y127610D01*
X194955Y127566D01*
X194976Y127544D01*
X194987Y127533D01*
X195107Y127380D01*
X195217Y127216D01*
X195315Y127052D01*
X195403Y126877D01*
X195468Y126692D01*
X195523Y126517D01*
X195610Y126178D01*
X195643Y126014D01*
X195665Y125872D01*
X195676Y125741D01*
X195687Y125631D01*
X195698Y125533D01*
Y125457D01*
Y125413D01*
Y125402D01*
X195687Y125194D01*
X195676Y124987D01*
X195643Y124801D01*
X195610Y124626D01*
X195578Y124451D01*
X195523Y124298D01*
X195479Y124156D01*
X195424Y124025D01*
X195381Y123904D01*
X195326Y123806D01*
X195282Y123719D01*
X195250Y123642D01*
X195206Y123588D01*
X195184Y123544D01*
X195173Y123522D01*
X195162Y123511D01*
X195020Y123347D01*
X194878Y123205D01*
X194714Y123085D01*
X194539Y122975D01*
X194364Y122888D01*
X194189Y122811D01*
X194015Y122746D01*
X193840Y122702D01*
X193687Y122658D01*
X193534Y122637D01*
X193392Y122615D01*
X193271Y122593D01*
X193173D01*
X193107Y122582D01*
X193042D01*
X192725Y122604D01*
X192430Y122648D01*
X192178Y122713D01*
X191960Y122790D01*
X191861Y122833D01*
X191785Y122866D01*
X191708Y122899D01*
X191654Y122932D01*
X191610Y122965D01*
X191566Y122975D01*
X191555Y122997D01*
X191544D01*
X191337Y123172D01*
X191151Y123358D01*
X190998Y123566D01*
X190878Y123762D01*
X190779Y123937D01*
X190746Y124014D01*
X190714Y124079D01*
X190692Y124134D01*
X190670Y124178D01*
X190659Y124200D01*
Y124211D01*
X192102Y124451D01*
X192156Y124309D01*
X192211Y124178D01*
X192266Y124079D01*
X192331Y123992D01*
X192375Y123926D01*
X192419Y123883D01*
X192452Y123861D01*
X192463Y123850D01*
X192550Y123784D01*
X192648Y123740D01*
X192747Y123708D01*
X192834Y123686D01*
X192911Y123675D01*
X192976Y123664D01*
X193031D01*
X193206Y123675D01*
X193370Y123719D01*
X193523Y123773D01*
X193643Y123839D01*
X193741Y123904D01*
X193807Y123959D01*
X193861Y124003D01*
X193872Y124014D01*
X193982Y124156D01*
X194058Y124320D01*
X194124Y124495D01*
X194168Y124648D01*
X194189Y124801D01*
X194200Y124910D01*
X194211Y124954D01*
Y124987D01*
Y125008D01*
Y125019D01*
X190583D01*
Y125325D01*
X190604Y125599D01*
X190637Y125861D01*
X190681Y126101D01*
X190735Y126331D01*
X190790Y126528D01*
X190856Y126714D01*
X190921Y126877D01*
X190987Y127020D01*
X191052Y127151D01*
X191107Y127249D01*
X191162Y127337D01*
X191206Y127402D01*
X191238Y127457D01*
X191260Y127479D01*
X191271Y127489D01*
X191402Y127632D01*
X191555Y127763D01*
X191708Y127872D01*
X191861Y127960D01*
X192025Y128047D01*
X192189Y128112D01*
X192342Y128167D01*
X192495Y128211D01*
X192637Y128244D01*
X192769Y128266D01*
X192889Y128287D01*
X192987Y128298D01*
X193075Y128309D01*
X193195D01*
X193392Y128298D01*
D02*
G37*
G36*
X102334Y128298D02*
X102520Y128276D01*
X102705Y128233D01*
X102869Y128189D01*
X103033Y128134D01*
X103175Y128069D01*
X103317Y127992D01*
X103438Y127927D01*
X103547Y127850D01*
X103645Y127774D01*
X103733Y127708D01*
X103798Y127653D01*
X103853Y127610D01*
X103897Y127566D01*
X103919Y127544D01*
X103929Y127533D01*
X104050Y127380D01*
X104159Y127216D01*
X104257Y127052D01*
X104345Y126877D01*
X104410Y126692D01*
X104465Y126517D01*
X104552Y126178D01*
X104585Y126014D01*
X104607Y125872D01*
X104618Y125741D01*
X104629Y125631D01*
X104640Y125533D01*
Y125457D01*
Y125413D01*
Y125402D01*
X104629Y125194D01*
X104618Y124987D01*
X104585Y124801D01*
X104552Y124626D01*
X104520Y124451D01*
X104465Y124298D01*
X104421Y124156D01*
X104367Y124025D01*
X104323Y123904D01*
X104268Y123806D01*
X104225Y123719D01*
X104192Y123642D01*
X104148Y123588D01*
X104126Y123544D01*
X104115Y123522D01*
X104104Y123511D01*
X103962Y123347D01*
X103820Y123205D01*
X103656Y123085D01*
X103481Y122975D01*
X103306Y122888D01*
X103132Y122811D01*
X102957Y122746D01*
X102782Y122702D01*
X102629Y122658D01*
X102476Y122637D01*
X102334Y122615D01*
X102214Y122593D01*
X102115D01*
X102050Y122582D01*
X101984D01*
X101667Y122604D01*
X101372Y122648D01*
X101120Y122713D01*
X100902Y122790D01*
X100803Y122833D01*
X100727Y122866D01*
X100651Y122899D01*
X100596Y122932D01*
X100552Y122965D01*
X100508Y122975D01*
X100497Y122997D01*
X100487D01*
X100279Y123172D01*
X100093Y123358D01*
X99940Y123566D01*
X99820Y123762D01*
X99721Y123937D01*
X99689Y124014D01*
X99656Y124079D01*
X99634Y124134D01*
X99612Y124178D01*
X99601Y124199D01*
Y124211D01*
X101044Y124451D01*
X101099Y124309D01*
X101153Y124178D01*
X101208Y124079D01*
X101274Y123992D01*
X101317Y123926D01*
X101361Y123883D01*
X101394Y123861D01*
X101405Y123850D01*
X101492Y123784D01*
X101591Y123740D01*
X101689Y123708D01*
X101776Y123686D01*
X101853Y123675D01*
X101918Y123664D01*
X101973D01*
X102148Y123675D01*
X102312Y123719D01*
X102465Y123773D01*
X102585Y123839D01*
X102683Y123904D01*
X102749Y123959D01*
X102804Y124003D01*
X102815Y124014D01*
X102924Y124156D01*
X103000Y124320D01*
X103066Y124495D01*
X103110Y124648D01*
X103132Y124801D01*
X103142Y124910D01*
X103154Y124954D01*
Y124987D01*
Y125008D01*
Y125019D01*
X99525D01*
Y125325D01*
X99547Y125599D01*
X99579Y125861D01*
X99623Y126101D01*
X99678Y126331D01*
X99732Y126528D01*
X99798Y126713D01*
X99863Y126877D01*
X99929Y127020D01*
X99995Y127151D01*
X100049Y127249D01*
X100104Y127337D01*
X100148Y127402D01*
X100180Y127457D01*
X100202Y127479D01*
X100213Y127489D01*
X100344Y127632D01*
X100497Y127763D01*
X100651Y127872D01*
X100803Y127960D01*
X100968Y128047D01*
X101131Y128112D01*
X101284Y128167D01*
X101437Y128211D01*
X101579Y128244D01*
X101711Y128266D01*
X101831Y128287D01*
X101929Y128298D01*
X102017Y128309D01*
X102137D01*
X102334Y128298D01*
D02*
G37*
G36*
X81173Y128298D02*
X81359Y128276D01*
X81545Y128233D01*
X81709Y128189D01*
X81873Y128134D01*
X82015Y128069D01*
X82157Y127992D01*
X82277Y127927D01*
X82386Y127850D01*
X82485Y127774D01*
X82572Y127708D01*
X82638Y127653D01*
X82692Y127610D01*
X82736Y127566D01*
X82758Y127544D01*
X82769Y127533D01*
X82889Y127380D01*
X82999Y127216D01*
X83097Y127052D01*
X83184Y126877D01*
X83250Y126692D01*
X83305Y126517D01*
X83392Y126178D01*
X83425Y126014D01*
X83447Y125872D01*
X83458Y125741D01*
X83469Y125631D01*
X83479Y125533D01*
Y125457D01*
Y125413D01*
Y125402D01*
X83469Y125194D01*
X83458Y124987D01*
X83425Y124801D01*
X83392Y124626D01*
X83359Y124451D01*
X83305Y124298D01*
X83261Y124156D01*
X83206Y124025D01*
X83162Y123904D01*
X83108Y123806D01*
X83064Y123719D01*
X83031Y123642D01*
X82988Y123588D01*
X82966Y123544D01*
X82955Y123522D01*
X82944Y123511D01*
X82802Y123347D01*
X82660Y123205D01*
X82496Y123085D01*
X82321Y122975D01*
X82146Y122888D01*
X81971Y122811D01*
X81796Y122746D01*
X81621Y122702D01*
X81468Y122658D01*
X81315Y122637D01*
X81173Y122615D01*
X81053Y122593D01*
X80955D01*
X80889Y122582D01*
X80823D01*
X80506Y122604D01*
X80211Y122648D01*
X79960Y122713D01*
X79741Y122790D01*
X79643Y122833D01*
X79567Y122866D01*
X79490Y122899D01*
X79435Y122932D01*
X79392Y122965D01*
X79348Y122975D01*
X79337Y122997D01*
X79326D01*
X79118Y123172D01*
X78933Y123358D01*
X78780Y123566D01*
X78659Y123762D01*
X78561Y123937D01*
X78528Y124014D01*
X78495Y124079D01*
X78474Y124134D01*
X78452Y124178D01*
X78441Y124199D01*
Y124211D01*
X79883Y124451D01*
X79938Y124309D01*
X79993Y124178D01*
X80047Y124079D01*
X80113Y123992D01*
X80157Y123926D01*
X80200Y123883D01*
X80233Y123861D01*
X80244Y123850D01*
X80332Y123784D01*
X80430Y123740D01*
X80528Y123708D01*
X80616Y123686D01*
X80692Y123675D01*
X80758Y123664D01*
X80813D01*
X80987Y123675D01*
X81151Y123719D01*
X81304Y123773D01*
X81425Y123839D01*
X81523Y123904D01*
X81589Y123959D01*
X81643Y124003D01*
X81654Y124014D01*
X81763Y124156D01*
X81840Y124320D01*
X81906Y124495D01*
X81949Y124648D01*
X81971Y124801D01*
X81982Y124910D01*
X81993Y124954D01*
Y124987D01*
Y125008D01*
Y125019D01*
X78364D01*
Y125325D01*
X78386Y125599D01*
X78419Y125861D01*
X78463Y126101D01*
X78517Y126331D01*
X78572Y126528D01*
X78637Y126713D01*
X78703Y126877D01*
X78769Y127020D01*
X78834Y127151D01*
X78889Y127249D01*
X78944Y127336D01*
X78987Y127402D01*
X79020Y127457D01*
X79042Y127479D01*
X79053Y127489D01*
X79184Y127632D01*
X79337Y127763D01*
X79490Y127872D01*
X79643Y127960D01*
X79807Y128047D01*
X79971Y128112D01*
X80124Y128167D01*
X80277Y128211D01*
X80419Y128244D01*
X80550Y128266D01*
X80670Y128287D01*
X80769Y128298D01*
X80856Y128309D01*
X80976D01*
X81173Y128298D01*
D02*
G37*
G36*
X62953D02*
X63139Y128276D01*
X63324Y128233D01*
X63489Y128189D01*
X63652Y128134D01*
X63794Y128069D01*
X63937Y127992D01*
X64057Y127927D01*
X64166Y127850D01*
X64265Y127774D01*
X64352Y127708D01*
X64417Y127653D01*
X64472Y127610D01*
X64516Y127566D01*
X64538Y127544D01*
X64549Y127533D01*
X64669Y127380D01*
X64778Y127216D01*
X64877Y127052D01*
X64964Y126877D01*
X65030Y126692D01*
X65084Y126517D01*
X65172Y126178D01*
X65205Y126014D01*
X65226Y125872D01*
X65237Y125741D01*
X65248Y125631D01*
X65259Y125533D01*
Y125457D01*
Y125413D01*
Y125402D01*
X65248Y125194D01*
X65237Y124987D01*
X65205Y124801D01*
X65172Y124626D01*
X65139Y124451D01*
X65084Y124298D01*
X65040Y124156D01*
X64986Y124025D01*
X64942Y123904D01*
X64887Y123806D01*
X64844Y123719D01*
X64811Y123642D01*
X64767Y123588D01*
X64745Y123544D01*
X64735Y123522D01*
X64724Y123511D01*
X64582Y123347D01*
X64439Y123205D01*
X64275Y123085D01*
X64101Y122975D01*
X63926Y122888D01*
X63751Y122811D01*
X63576Y122746D01*
X63401Y122702D01*
X63248Y122658D01*
X63095Y122637D01*
X62953Y122615D01*
X62833Y122593D01*
X62734D01*
X62669Y122582D01*
X62603D01*
X62286Y122604D01*
X61991Y122648D01*
X61740Y122713D01*
X61521Y122790D01*
X61423Y122833D01*
X61346Y122866D01*
X61270Y122899D01*
X61215Y122932D01*
X61171Y122965D01*
X61128Y122975D01*
X61117Y122997D01*
X61106D01*
X60898Y123172D01*
X60712Y123358D01*
X60559Y123566D01*
X60439Y123762D01*
X60341Y123937D01*
X60308Y124014D01*
X60275Y124079D01*
X60253Y124134D01*
X60231Y124178D01*
X60220Y124199D01*
Y124211D01*
X61663Y124451D01*
X61718Y124309D01*
X61773Y124178D01*
X61827Y124079D01*
X61893Y123992D01*
X61936Y123926D01*
X61980Y123883D01*
X62013Y123861D01*
X62024Y123850D01*
X62111Y123784D01*
X62210Y123740D01*
X62308Y123708D01*
X62396Y123686D01*
X62472Y123675D01*
X62538Y123664D01*
X62592D01*
X62767Y123675D01*
X62931Y123719D01*
X63084Y123773D01*
X63204Y123839D01*
X63303Y123904D01*
X63368Y123959D01*
X63423Y124003D01*
X63434Y124014D01*
X63543Y124156D01*
X63620Y124320D01*
X63685Y124495D01*
X63729Y124648D01*
X63751Y124801D01*
X63762Y124910D01*
X63773Y124954D01*
Y124987D01*
Y125008D01*
Y125019D01*
X60144D01*
Y125325D01*
X60166Y125599D01*
X60199Y125861D01*
X60242Y126101D01*
X60297Y126331D01*
X60352Y126528D01*
X60417Y126713D01*
X60483Y126877D01*
X60548Y127020D01*
X60614Y127151D01*
X60669Y127249D01*
X60723Y127336D01*
X60767Y127402D01*
X60800Y127457D01*
X60822Y127479D01*
X60833Y127489D01*
X60964Y127632D01*
X61117Y127763D01*
X61270Y127872D01*
X61423Y127960D01*
X61587Y128047D01*
X61751Y128112D01*
X61904Y128167D01*
X62057Y128211D01*
X62199Y128244D01*
X62330Y128266D01*
X62450Y128287D01*
X62549Y128298D01*
X62636Y128309D01*
X62756D01*
X62953Y128298D01*
D02*
G37*
G36*
X226979Y122702D02*
X225449D01*
Y125555D01*
X224094D01*
X223930Y125566D01*
X223777D01*
X223635Y125577D01*
X223504Y125588D01*
X223383Y125599D01*
X223285Y125610D01*
X223187D01*
X223110Y125620D01*
X223034Y125631D01*
X222979Y125642D01*
X222935D01*
X222902Y125653D01*
X222881D01*
X222728Y125697D01*
X222586Y125752D01*
X222454Y125806D01*
X222334Y125872D01*
X222236Y125926D01*
X222159Y125970D01*
X222116Y126003D01*
X222094Y126014D01*
X221952Y126123D01*
X221831Y126243D01*
X221711Y126375D01*
X221624Y126484D01*
X221547Y126593D01*
X221493Y126681D01*
X221460Y126735D01*
X221449Y126757D01*
X221361Y126943D01*
X221296Y127140D01*
X221252Y127347D01*
X221219Y127533D01*
X221198Y127686D01*
Y127763D01*
X221186Y127817D01*
Y127872D01*
Y127905D01*
Y127927D01*
Y127938D01*
X221208Y128255D01*
X221252Y128550D01*
X221329Y128790D01*
X221405Y129009D01*
X221449Y129096D01*
X221493Y129173D01*
X221525Y129238D01*
X221569Y129304D01*
X221591Y129348D01*
X221613Y129380D01*
X221635Y129391D01*
Y129402D01*
X221810Y129599D01*
X221984Y129763D01*
X222170Y129894D01*
X222334Y129992D01*
X222487Y130058D01*
X222607Y130113D01*
X222651Y130124D01*
X222684Y130135D01*
X222706Y130146D01*
X222717D01*
X222804Y130167D01*
X222914Y130189D01*
X223045Y130200D01*
X223176Y130211D01*
X223482Y130233D01*
X223788Y130255D01*
X224072D01*
X224192Y130266D01*
X226979D01*
Y122702D01*
D02*
G37*
G36*
X196998Y128298D02*
X197108Y128287D01*
X197217Y128255D01*
X197304Y128222D01*
X197381Y128189D01*
X197447Y128167D01*
X197479Y128145D01*
X197490Y128134D01*
X197600Y128058D01*
X197698Y127949D01*
X197807Y127828D01*
X197895Y127708D01*
X197982Y127588D01*
X198048Y127489D01*
X198091Y127424D01*
X198102Y127413D01*
Y128189D01*
X199447Y128189D01*
Y122702D01*
X197993Y122702D01*
Y124385D01*
Y124637D01*
Y124866D01*
X197982Y125074D01*
X197971Y125260D01*
Y125435D01*
X197960Y125577D01*
X197949Y125719D01*
X197938Y125828D01*
X197927Y125926D01*
X197917Y126014D01*
X197906Y126079D01*
Y126134D01*
X197895Y126167D01*
X197884Y126200D01*
Y126222D01*
X197840Y126375D01*
X197785Y126506D01*
X197731Y126615D01*
X197676Y126692D01*
X197632Y126757D01*
X197589Y126801D01*
X197567Y126823D01*
X197556Y126834D01*
X197468Y126888D01*
X197381Y126932D01*
X197294Y126965D01*
X197217Y126987D01*
X197152Y126998D01*
X197086Y127009D01*
X197042D01*
X196922Y126998D01*
X196802Y126976D01*
X196692Y126932D01*
X196583Y126888D01*
X196496Y126845D01*
X196430Y126801D01*
X196375Y126779D01*
X196364Y126768D01*
X195905Y128025D01*
X196080Y128123D01*
X196244Y128189D01*
X196408Y128244D01*
X196561Y128276D01*
X196681Y128298D01*
X196780Y128309D01*
X196867D01*
X196998Y128298D01*
D02*
G37*
G36*
X165476Y122702D02*
X163859D01*
X163236Y124418D01*
X160197D01*
X159541Y122702D01*
X157891D01*
X160929Y130266D01*
X162547D01*
X165476Y122702D01*
D02*
G37*
G36*
X154699Y128298D02*
X154809Y128287D01*
X154918Y128255D01*
X155005Y128222D01*
X155082Y128189D01*
X155148Y128167D01*
X155180Y128145D01*
X155191Y128134D01*
X155300Y128058D01*
X155399Y127949D01*
X155508Y127828D01*
X155596Y127708D01*
X155683Y127588D01*
X155749Y127489D01*
X155792Y127424D01*
X155803Y127413D01*
Y128189D01*
X157148D01*
Y122702D01*
X155694D01*
Y124385D01*
Y124637D01*
Y124866D01*
X155683Y125074D01*
X155672Y125260D01*
Y125435D01*
X155661Y125577D01*
X155650Y125719D01*
X155639Y125828D01*
X155628Y125926D01*
X155617Y126014D01*
X155606Y126079D01*
Y126134D01*
X155596Y126167D01*
X155585Y126200D01*
Y126222D01*
X155541Y126375D01*
X155486Y126506D01*
X155432Y126615D01*
X155377Y126692D01*
X155333Y126757D01*
X155290Y126801D01*
X155268Y126823D01*
X155257Y126834D01*
X155169Y126888D01*
X155082Y126932D01*
X154994Y126965D01*
X154918Y126987D01*
X154852Y126998D01*
X154787Y127009D01*
X154743D01*
X154623Y126998D01*
X154503Y126976D01*
X154393Y126932D01*
X154284Y126888D01*
X154197Y126845D01*
X154131Y126801D01*
X154076Y126779D01*
X154065Y126768D01*
X153606Y128025D01*
X153781Y128123D01*
X153945Y128189D01*
X154109Y128244D01*
X154262Y128276D01*
X154382Y128298D01*
X154481Y128309D01*
X154568D01*
X154699Y128298D01*
D02*
G37*
G36*
X146524Y122702D02*
X145070D01*
Y128189D01*
X146524D01*
Y122702D01*
D02*
G37*
G36*
X137670Y128298D02*
X137780Y128287D01*
X137889Y128255D01*
X137976Y128222D01*
X138053Y128189D01*
X138119Y128167D01*
X138151Y128145D01*
X138162Y128134D01*
X138272Y128058D01*
X138370Y127948D01*
X138479Y127828D01*
X138567Y127708D01*
X138654Y127588D01*
X138720Y127489D01*
X138763Y127424D01*
X138774Y127413D01*
Y128189D01*
X140119D01*
Y122702D01*
X138665D01*
Y124385D01*
Y124637D01*
Y124866D01*
X138654Y125074D01*
X138643Y125260D01*
Y125435D01*
X138632Y125577D01*
X138621Y125719D01*
X138610Y125828D01*
X138600Y125926D01*
X138589Y126014D01*
X138578Y126079D01*
Y126134D01*
X138567Y126167D01*
X138556Y126200D01*
Y126222D01*
X138512Y126375D01*
X138457Y126506D01*
X138403Y126615D01*
X138348Y126692D01*
X138304Y126757D01*
X138261Y126801D01*
X138239Y126823D01*
X138228Y126834D01*
X138140Y126888D01*
X138053Y126932D01*
X137966Y126965D01*
X137889Y126987D01*
X137823Y126998D01*
X137758Y127009D01*
X137714D01*
X137594Y126998D01*
X137474Y126976D01*
X137364Y126932D01*
X137255Y126888D01*
X137168Y126845D01*
X137102Y126801D01*
X137047Y126779D01*
X137037Y126768D01*
X136577Y128025D01*
X136752Y128123D01*
X136916Y128189D01*
X137080Y128244D01*
X137233Y128276D01*
X137353Y128298D01*
X137452Y128309D01*
X137539D01*
X137670Y128298D01*
D02*
G37*
G36*
X127680D02*
X127790Y128287D01*
X127899Y128255D01*
X127986Y128222D01*
X128063Y128189D01*
X128129Y128167D01*
X128161Y128145D01*
X128172Y128134D01*
X128281Y128058D01*
X128380Y127948D01*
X128489Y127828D01*
X128577Y127708D01*
X128664Y127588D01*
X128730Y127489D01*
X128773Y127424D01*
X128784Y127413D01*
Y128189D01*
X130129D01*
Y122702D01*
X128675D01*
Y124385D01*
Y124637D01*
Y124866D01*
X128664Y125074D01*
X128653Y125260D01*
Y125435D01*
X128642Y125577D01*
X128631Y125719D01*
X128620Y125828D01*
X128609Y125926D01*
X128598Y126014D01*
X128588Y126079D01*
Y126134D01*
X128577Y126167D01*
X128566Y126200D01*
Y126222D01*
X128522Y126375D01*
X128467Y126506D01*
X128413Y126615D01*
X128358Y126692D01*
X128314Y126757D01*
X128271Y126801D01*
X128249Y126823D01*
X128238Y126834D01*
X128150Y126888D01*
X128063Y126932D01*
X127975Y126965D01*
X127899Y126987D01*
X127833Y126998D01*
X127768Y127009D01*
X127724D01*
X127604Y126998D01*
X127484Y126976D01*
X127374Y126932D01*
X127265Y126888D01*
X127178Y126845D01*
X127112Y126801D01*
X127057Y126779D01*
X127046Y126768D01*
X126587Y128025D01*
X126762Y128123D01*
X126926Y128189D01*
X127090Y128244D01*
X127243Y128276D01*
X127363Y128298D01*
X127462Y128309D01*
X127549D01*
X127680Y128298D01*
D02*
G37*
G36*
X117177Y122702D02*
X115647D01*
Y130266D01*
X117177D01*
Y122702D01*
D02*
G37*
G36*
X111264Y128298D02*
X111460Y128266D01*
X111635Y128222D01*
X111810Y128167D01*
X111974Y128091D01*
X112116Y128014D01*
X112258Y127927D01*
X112378Y127850D01*
X112488Y127763D01*
X112586Y127675D01*
X112673Y127599D01*
X112739Y127522D01*
X112794Y127468D01*
X112837Y127424D01*
X112859Y127391D01*
X112870Y127380D01*
Y128189D01*
X114215D01*
Y122702D01*
X112761D01*
Y125172D01*
Y125336D01*
Y125489D01*
X112750Y125631D01*
X112739Y125752D01*
Y125872D01*
X112728Y125970D01*
X112717Y126069D01*
X112706Y126145D01*
X112684Y126276D01*
X112673Y126364D01*
X112652Y126418D01*
Y126429D01*
X112608Y126549D01*
X112542Y126670D01*
X112477Y126757D01*
X112411Y126845D01*
X112346Y126899D01*
X112291Y126954D01*
X112258Y126976D01*
X112247Y126987D01*
X112127Y127052D01*
X112007Y127107D01*
X111898Y127140D01*
X111788Y127173D01*
X111701Y127183D01*
X111635Y127194D01*
X111570D01*
X111460Y127183D01*
X111362Y127173D01*
X111285Y127151D01*
X111209Y127118D01*
X111143Y127085D01*
X111100Y127063D01*
X111078Y127052D01*
X111067Y127041D01*
X110990Y126987D01*
X110936Y126921D01*
X110837Y126790D01*
X110804Y126724D01*
X110783Y126681D01*
X110761Y126648D01*
Y126637D01*
X110739Y126582D01*
X110728Y126517D01*
X110706Y126353D01*
X110684Y126156D01*
X110673Y125970D01*
X110662Y125784D01*
Y125708D01*
Y125631D01*
Y125577D01*
Y125533D01*
Y125500D01*
Y125489D01*
Y122702D01*
X109209D01*
Y126101D01*
Y126331D01*
X109220Y126517D01*
X109230Y126692D01*
X109252Y126823D01*
X109263Y126932D01*
X109285Y127009D01*
X109296Y127063D01*
Y127074D01*
X109329Y127205D01*
X109373Y127315D01*
X109416Y127424D01*
X109471Y127511D01*
X109515Y127588D01*
X109547Y127643D01*
X109569Y127675D01*
X109580Y127686D01*
X109668Y127785D01*
X109766Y127872D01*
X109864Y127948D01*
X109963Y128014D01*
X110050Y128069D01*
X110127Y128102D01*
X110170Y128123D01*
X110192Y128134D01*
X110345Y128189D01*
X110498Y128233D01*
X110641Y128266D01*
X110772Y128287D01*
X110892Y128298D01*
X110990Y128309D01*
X111067D01*
X111264Y128298D01*
D02*
G37*
G36*
X98344Y122702D02*
X96891D01*
Y130266D01*
X98344D01*
Y122702D01*
D02*
G37*
G36*
X95404D02*
X93950D01*
Y130266D01*
X95404D01*
Y122702D01*
D02*
G37*
G36*
X92464D02*
X91010D01*
Y128189D01*
X92464D01*
Y122702D01*
D02*
G37*
G36*
X74244Y128298D02*
X74440Y128266D01*
X74615Y128222D01*
X74790Y128167D01*
X74954Y128091D01*
X75096Y128014D01*
X75238Y127927D01*
X75358Y127850D01*
X75468Y127763D01*
X75566Y127675D01*
X75654Y127599D01*
X75719Y127522D01*
X75774Y127468D01*
X75818Y127424D01*
X75839Y127391D01*
X75850Y127380D01*
Y128189D01*
X77195D01*
Y122702D01*
X75741D01*
Y125172D01*
Y125336D01*
Y125489D01*
X75730Y125631D01*
X75719Y125752D01*
Y125872D01*
X75708Y125970D01*
X75697Y126069D01*
X75686Y126145D01*
X75665Y126276D01*
X75654Y126364D01*
X75632Y126418D01*
Y126429D01*
X75588Y126549D01*
X75522Y126670D01*
X75457Y126757D01*
X75391Y126845D01*
X75326Y126899D01*
X75271Y126954D01*
X75238Y126976D01*
X75227Y126987D01*
X75107Y127052D01*
X74987Y127107D01*
X74878Y127140D01*
X74768Y127173D01*
X74681Y127183D01*
X74615Y127194D01*
X74550D01*
X74440Y127183D01*
X74342Y127173D01*
X74265Y127151D01*
X74189Y127118D01*
X74123Y127085D01*
X74080Y127063D01*
X74058Y127052D01*
X74047Y127041D01*
X73970Y126987D01*
X73916Y126921D01*
X73817Y126790D01*
X73785Y126724D01*
X73763Y126681D01*
X73741Y126648D01*
Y126637D01*
X73719Y126582D01*
X73708Y126517D01*
X73686Y126353D01*
X73664Y126156D01*
X73653Y125970D01*
X73642Y125784D01*
Y125708D01*
Y125631D01*
Y125577D01*
Y125533D01*
Y125500D01*
Y125489D01*
Y122702D01*
X72189D01*
Y126101D01*
Y126331D01*
X72200Y126517D01*
X72211Y126692D01*
X72233Y126823D01*
X72243Y126932D01*
X72265Y127008D01*
X72276Y127063D01*
Y127074D01*
X72309Y127205D01*
X72353Y127315D01*
X72396Y127424D01*
X72451Y127511D01*
X72495Y127588D01*
X72528Y127643D01*
X72549Y127675D01*
X72560Y127686D01*
X72648Y127785D01*
X72746Y127872D01*
X72845Y127948D01*
X72943Y128014D01*
X73030Y128069D01*
X73107Y128102D01*
X73151Y128123D01*
X73172Y128134D01*
X73326Y128189D01*
X73479Y128233D01*
X73621Y128266D01*
X73752Y128287D01*
X73872Y128298D01*
X73970Y128309D01*
X74047D01*
X74244Y128298D01*
D02*
G37*
G36*
X217755Y128298D02*
X218028Y128255D01*
X218279Y128200D01*
X218498Y128134D01*
X218585Y128091D01*
X218673Y128058D01*
X218749Y128036D01*
X218804Y128003D01*
X218858Y127981D01*
X218891Y127960D01*
X218913Y127949D01*
X218924D01*
X219153Y127796D01*
X219350Y127632D01*
X219525Y127457D01*
X219667Y127293D01*
X219777Y127140D01*
X219864Y127020D01*
X219897Y126976D01*
X219908Y126943D01*
X219930Y126921D01*
Y126910D01*
X220050Y126659D01*
X220126Y126407D01*
X220192Y126178D01*
X220236Y125970D01*
X220257Y125784D01*
X220268Y125708D01*
Y125642D01*
X220279Y125599D01*
Y125555D01*
Y125533D01*
Y125522D01*
X220268Y125183D01*
X220225Y124866D01*
X220170Y124593D01*
X220137Y124473D01*
X220105Y124364D01*
X220072Y124265D01*
X220039Y124178D01*
X220006Y124101D01*
X219984Y124036D01*
X219962Y123981D01*
X219940Y123948D01*
X219930Y123926D01*
Y123915D01*
X219777Y123686D01*
X219613Y123489D01*
X219438Y123314D01*
X219274Y123172D01*
X219121Y123063D01*
X219001Y122986D01*
X218957Y122953D01*
X218924Y122932D01*
X218902Y122921D01*
X218891D01*
X218629Y122811D01*
X218377Y122724D01*
X218137Y122669D01*
X217908Y122626D01*
X217722Y122604D01*
X217645Y122593D01*
X217580D01*
X217525Y122582D01*
X217448D01*
X217219Y122593D01*
X217011Y122615D01*
X216804Y122658D01*
X216618Y122713D01*
X216432Y122768D01*
X216268Y122833D01*
X216115Y122910D01*
X215973Y122986D01*
X215853Y123063D01*
X215743Y123139D01*
X215645Y123205D01*
X215568Y123260D01*
X215503Y123314D01*
X215459Y123358D01*
X215437Y123380D01*
X215426Y123391D01*
X215284Y123555D01*
X215164Y123719D01*
X215055Y123883D01*
X214956Y124057D01*
X214880Y124232D01*
X214814Y124407D01*
X214760Y124571D01*
X214716Y124735D01*
X214683Y124877D01*
X214661Y125019D01*
X214639Y125140D01*
X214629Y125249D01*
X214618Y125336D01*
Y125402D01*
Y125446D01*
Y125457D01*
X214629Y125686D01*
X214650Y125905D01*
X214694Y126101D01*
X214738Y126298D01*
X214803Y126473D01*
X214869Y126648D01*
X214946Y126801D01*
X215011Y126943D01*
X215088Y127063D01*
X215164Y127183D01*
X215230Y127271D01*
X215295Y127358D01*
X215339Y127413D01*
X215383Y127468D01*
X215405Y127489D01*
X215416Y127500D01*
X215568Y127643D01*
X215733Y127763D01*
X215896Y127872D01*
X216071Y127970D01*
X216246Y128047D01*
X216410Y128112D01*
X216574Y128167D01*
X216738Y128211D01*
X216880Y128244D01*
X217022Y128266D01*
X217142Y128287D01*
X217252Y128298D01*
X217339Y128309D01*
X217459D01*
X217755Y128298D01*
D02*
G37*
G36*
X185817Y127544D02*
X185948Y127675D01*
X186079Y127796D01*
X186211Y127894D01*
X186353Y127992D01*
X186484Y128058D01*
X186615Y128123D01*
X186746Y128178D01*
X186866Y128211D01*
X186987Y128244D01*
X187085Y128266D01*
X187183Y128287D01*
X187260Y128298D01*
X187325Y128309D01*
X187413D01*
X187599Y128298D01*
X187774Y128276D01*
X187937Y128244D01*
X188101Y128200D01*
X188375Y128080D01*
X188506Y128014D01*
X188615Y127949D01*
X188724Y127872D01*
X188812Y127806D01*
X188888Y127752D01*
X188954Y127697D01*
X189009Y127643D01*
X189041Y127610D01*
X189063Y127588D01*
X189074Y127577D01*
X189183Y127435D01*
X189282Y127282D01*
X189369Y127118D01*
X189446Y126943D01*
X189511Y126768D01*
X189566Y126593D01*
X189643Y126243D01*
X189664Y126091D01*
X189686Y125937D01*
X189697Y125806D01*
X189708Y125686D01*
X189719Y125588D01*
Y125522D01*
Y125467D01*
Y125457D01*
X189708Y125205D01*
X189686Y124976D01*
X189654Y124757D01*
X189610Y124549D01*
X189566Y124364D01*
X189511Y124189D01*
X189446Y124036D01*
X189380Y123893D01*
X189326Y123762D01*
X189260Y123653D01*
X189205Y123555D01*
X189151Y123478D01*
X189118Y123413D01*
X189085Y123369D01*
X189063Y123347D01*
X189052Y123336D01*
X188921Y123205D01*
X188790Y123085D01*
X188648Y122986D01*
X188517Y122899D01*
X188375Y122822D01*
X188243Y122768D01*
X188112Y122713D01*
X187992Y122680D01*
X187872Y122648D01*
X187763Y122626D01*
X187675Y122604D01*
X187588Y122593D01*
X187522Y122582D01*
X187435D01*
X187260Y122593D01*
X187096Y122615D01*
X186932Y122648D01*
X186790Y122691D01*
X186680Y122735D01*
X186582Y122768D01*
X186528Y122790D01*
X186506Y122801D01*
X186342Y122899D01*
X186189Y123008D01*
X186047Y123128D01*
X185937Y123238D01*
X185839Y123336D01*
X185762Y123424D01*
X185719Y123478D01*
X185708Y123500D01*
Y122702D01*
X184363D01*
Y130266D01*
X185817D01*
Y127544D01*
D02*
G37*
%LPC*%
G36*
X93175Y7773D02*
X93164D01*
Y7477D01*
Y7303D01*
X93175Y7149D01*
X93186Y7029D01*
X93197Y6931D01*
X93208Y6865D01*
X93218Y6811D01*
X93229Y6789D01*
Y6778D01*
X93262Y6679D01*
X93317Y6581D01*
X93371Y6505D01*
X93426Y6428D01*
X93481Y6374D01*
X93524Y6330D01*
X93557Y6308D01*
X93568Y6297D01*
X93699Y6210D01*
X93841Y6155D01*
X93962Y6111D01*
X94082Y6078D01*
X94180Y6056D01*
X94257Y6046D01*
X94322D01*
X94443Y6056D01*
X94563Y6078D01*
X94661Y6111D01*
X94738Y6155D01*
X94814Y6199D01*
X94858Y6231D01*
X94891Y6253D01*
X94902Y6264D01*
X94978Y6352D01*
X95033Y6439D01*
X95066Y6526D01*
X95087Y6614D01*
X95109Y6679D01*
X95120Y6734D01*
Y6778D01*
Y6789D01*
X95109Y6898D01*
X95077Y6996D01*
X95033Y7084D01*
X94978Y7160D01*
X94934Y7215D01*
X94891Y7259D01*
X94858Y7281D01*
X94847Y7292D01*
X94760Y7335D01*
X94650Y7390D01*
X94519Y7434D01*
X94388Y7467D01*
X94257Y7499D01*
X94159Y7521D01*
X94115Y7532D01*
X94082Y7543D01*
X94060D01*
X93841Y7587D01*
X93667Y7631D01*
X93503Y7674D01*
X93382Y7707D01*
X93284Y7740D01*
X93218Y7751D01*
X93175Y7773D01*
D02*
G37*
G36*
X159323Y9642D02*
X159247D01*
X159083Y9631D01*
X158941Y9587D01*
X158809Y9532D01*
X158700Y9478D01*
X158613Y9412D01*
X158547Y9357D01*
X158503Y9314D01*
X158493Y9303D01*
X158394Y9172D01*
X158307Y9019D01*
X158252Y8855D01*
X158208Y8702D01*
X158186Y8570D01*
X158176Y8450D01*
X158165Y8406D01*
Y8385D01*
Y8363D01*
Y8352D01*
X160329D01*
X160318Y8559D01*
X160285Y8745D01*
X160241Y8909D01*
X160176Y9040D01*
X160121Y9150D01*
X160066Y9226D01*
X160034Y9281D01*
X160023Y9292D01*
X159902Y9412D01*
X159771Y9499D01*
X159640Y9554D01*
X159520Y9598D01*
X159411Y9620D01*
X159323Y9642D01*
D02*
G37*
G36*
X127014Y9642D02*
X126937D01*
X126774Y9631D01*
X126631Y9587D01*
X126500Y9532D01*
X126391Y9478D01*
X126304Y9412D01*
X126238Y9357D01*
X126194Y9314D01*
X126183Y9303D01*
X126085Y9172D01*
X125998Y9019D01*
X125943Y8855D01*
X125899Y8702D01*
X125877Y8570D01*
X125866Y8450D01*
X125856Y8406D01*
Y8385D01*
Y8363D01*
Y8352D01*
X128020D01*
X128009Y8559D01*
X127976Y8745D01*
X127932Y8909D01*
X127867Y9040D01*
X127812Y9150D01*
X127757Y9226D01*
X127725Y9281D01*
X127714Y9292D01*
X127593Y9412D01*
X127462Y9499D01*
X127331Y9554D01*
X127211Y9598D01*
X127102Y9620D01*
X127014Y9642D01*
D02*
G37*
G36*
X139584Y9576D02*
X139529D01*
X139321Y9554D01*
X139135Y9510D01*
X138982Y9434D01*
X138840Y9357D01*
X138731Y9281D01*
X138644Y9204D01*
X138600Y9161D01*
X138578Y9139D01*
X138447Y8964D01*
X138348Y8756D01*
X138283Y8549D01*
X138228Y8352D01*
X138206Y8177D01*
X138195Y8089D01*
Y8024D01*
X138184Y7969D01*
Y7926D01*
Y7904D01*
Y7893D01*
X138206Y7609D01*
X138250Y7346D01*
X138305Y7139D01*
X138381Y6953D01*
X138458Y6822D01*
X138512Y6712D01*
X138556Y6658D01*
X138578Y6636D01*
X138731Y6494D01*
X138884Y6384D01*
X139048Y6319D01*
X139201Y6264D01*
X139332Y6231D01*
X139430Y6221D01*
X139474Y6210D01*
X139529D01*
X139737Y6231D01*
X139922Y6275D01*
X140086Y6341D01*
X140217Y6428D01*
X140338Y6505D01*
X140425Y6570D01*
X140469Y6614D01*
X140491Y6636D01*
X140622Y6811D01*
X140709Y7018D01*
X140775Y7226D01*
X140830Y7434D01*
X140851Y7609D01*
X140862Y7685D01*
Y7762D01*
X140873Y7816D01*
Y7860D01*
Y7882D01*
Y7893D01*
X140851Y8177D01*
X140808Y8428D01*
X140753Y8647D01*
X140676Y8822D01*
X140611Y8953D01*
X140545Y9062D01*
X140502Y9117D01*
X140491Y9139D01*
X140338Y9281D01*
X140174Y9390D01*
X140010Y9467D01*
X139857Y9521D01*
X139726Y9554D01*
X139627Y9565D01*
X139584Y9576D01*
D02*
G37*
G36*
X118363Y555D02*
X118341D01*
X118144Y533D01*
X117980Y490D01*
X117827Y424D01*
X117696Y347D01*
X117598Y271D01*
X117521Y205D01*
X117467Y162D01*
X117456Y140D01*
X117335Y-35D01*
X117248Y-232D01*
X117193Y-439D01*
X117150Y-647D01*
X117128Y-833D01*
X117117Y-920D01*
X117106Y-986D01*
Y-1051D01*
Y-1095D01*
Y-1117D01*
Y-1128D01*
X117117Y-1412D01*
X117161Y-1664D01*
X117226Y-1871D01*
X117292Y-2046D01*
X117357Y-2177D01*
X117423Y-2276D01*
X117467Y-2330D01*
X117478Y-2352D01*
X117620Y-2494D01*
X117773Y-2593D01*
X117915Y-2669D01*
X118057Y-2713D01*
X118188Y-2746D01*
X118286Y-2757D01*
X118352Y-2767D01*
X118374D01*
X118549Y-2746D01*
X118713Y-2702D01*
X118855Y-2636D01*
X118975Y-2560D01*
X119073Y-2494D01*
X119139Y-2429D01*
X119194Y-2385D01*
X119205Y-2363D01*
X119314Y-2188D01*
X119390Y-1991D01*
X119456Y-1784D01*
X119489Y-1576D01*
X119511Y-1390D01*
X119521Y-1303D01*
Y-1237D01*
X119533Y-1183D01*
Y-1128D01*
Y-1106D01*
Y-1095D01*
X119521Y-800D01*
X119478Y-549D01*
X119423Y-341D01*
X119369Y-166D01*
X119303Y-35D01*
X119259Y63D01*
X119216Y118D01*
X119205Y140D01*
X119073Y282D01*
X118931Y380D01*
X118778Y457D01*
X118647Y501D01*
X118527Y533D01*
X118429Y544D01*
X118363Y555D01*
D02*
G37*
G36*
X140343Y555D02*
X140267D01*
X140103Y544D01*
X139961Y501D01*
X139830Y446D01*
X139720Y391D01*
X139633Y326D01*
X139567Y271D01*
X139523Y227D01*
X139513Y216D01*
X139414Y85D01*
X139327Y-68D01*
X139272Y-232D01*
X139228Y-385D01*
X139207Y-516D01*
X139196Y-636D01*
X139185Y-680D01*
Y-702D01*
Y-724D01*
Y-734D01*
X141349D01*
X141338Y-527D01*
X141305Y-341D01*
X141261Y-177D01*
X141196Y-46D01*
X141141Y63D01*
X141086Y140D01*
X141054Y195D01*
X141043Y206D01*
X140922Y326D01*
X140791Y413D01*
X140660Y468D01*
X140540Y512D01*
X140431Y533D01*
X140343Y555D01*
D02*
G37*
G36*
X112144Y555D02*
X112067D01*
X111903Y544D01*
X111761Y501D01*
X111630Y446D01*
X111521Y391D01*
X111433Y326D01*
X111368Y271D01*
X111324Y227D01*
X111313Y216D01*
X111215Y85D01*
X111127Y-68D01*
X111073Y-232D01*
X111029Y-385D01*
X111007Y-516D01*
X110996Y-636D01*
X110985Y-680D01*
Y-702D01*
Y-724D01*
Y-734D01*
X113149D01*
X113138Y-527D01*
X113106Y-341D01*
X113062Y-177D01*
X112996Y-46D01*
X112942Y63D01*
X112887Y140D01*
X112854Y195D01*
X112843Y205D01*
X112723Y326D01*
X112592Y413D01*
X112461Y468D01*
X112340Y512D01*
X112231Y533D01*
X112144Y555D01*
D02*
G37*
G36*
X150563Y490D02*
X150508D01*
X150300Y468D01*
X150115Y424D01*
X149962Y347D01*
X149820Y271D01*
X149710Y195D01*
X149623Y118D01*
X149579Y74D01*
X149557Y52D01*
X149426Y-122D01*
X149328Y-330D01*
X149262Y-538D01*
X149207Y-734D01*
X149186Y-909D01*
X149175Y-997D01*
Y-1062D01*
X149164Y-1117D01*
Y-1161D01*
Y-1183D01*
Y-1194D01*
X149186Y-1478D01*
X149229Y-1740D01*
X149284Y-1948D01*
X149360Y-2134D01*
X149437Y-2265D01*
X149492Y-2374D01*
X149535Y-2429D01*
X149557Y-2451D01*
X149710Y-2593D01*
X149863Y-2702D01*
X150027Y-2767D01*
X150180Y-2822D01*
X150311Y-2855D01*
X150410Y-2866D01*
X150453Y-2877D01*
X150508D01*
X150716Y-2855D01*
X150902Y-2811D01*
X151066Y-2746D01*
X151197Y-2658D01*
X151317Y-2582D01*
X151404Y-2516D01*
X151448Y-2472D01*
X151470Y-2451D01*
X151601Y-2276D01*
X151689Y-2068D01*
X151754Y-1860D01*
X151809Y-1653D01*
X151831Y-1478D01*
X151841Y-1401D01*
Y-1325D01*
X151853Y-1270D01*
Y-1226D01*
Y-1204D01*
Y-1194D01*
X151831Y-909D01*
X151787Y-658D01*
X151732Y-439D01*
X151656Y-264D01*
X151590Y-133D01*
X151525Y-24D01*
X151481Y31D01*
X151470Y52D01*
X151317Y195D01*
X151153Y304D01*
X150989Y380D01*
X150836Y435D01*
X150705Y468D01*
X150606Y479D01*
X150563Y490D01*
D02*
G37*
G36*
X38392Y-467D02*
X38363D01*
X38308Y-471D01*
X38257Y-478D01*
X38206Y-489D01*
X38159Y-500D01*
X38075Y-537D01*
X38002Y-577D01*
X37969Y-599D01*
X37940Y-620D01*
X37919Y-639D01*
X37897Y-653D01*
X37882Y-668D01*
X37871Y-679D01*
X37864Y-686D01*
X37860Y-690D01*
X37824Y-733D01*
X37791Y-781D01*
X37762Y-828D01*
X37740Y-883D01*
X37700Y-988D01*
X37675Y-1090D01*
X37664Y-1137D01*
X37657Y-1181D01*
X37649Y-1221D01*
X37646Y-1257D01*
Y-1287D01*
X37642Y-1308D01*
Y-1323D01*
Y-1326D01*
X39091D01*
Y-1254D01*
X39083Y-1185D01*
X39072Y-1123D01*
X39061Y-1061D01*
X39043Y-1006D01*
X39029Y-955D01*
X39011Y-908D01*
X38989Y-864D01*
X38971Y-828D01*
X38952Y-795D01*
X38934Y-766D01*
X38920Y-744D01*
X38905Y-726D01*
X38894Y-711D01*
X38890Y-704D01*
X38887Y-701D01*
X38847Y-660D01*
X38803Y-624D01*
X38763Y-591D01*
X38716Y-566D01*
X38672Y-544D01*
X38628Y-526D01*
X38548Y-497D01*
X38508Y-486D01*
X38475Y-478D01*
X38443Y-475D01*
X38414Y-471D01*
X38392Y-467D01*
D02*
G37*
G36*
X43866Y726D02*
X42778D01*
X42698Y723D01*
X42629D01*
X42570Y719D01*
X42472D01*
X42436Y716D01*
X42407D01*
X42381Y712D01*
X42363D01*
X42349Y708D01*
X42334D01*
X42246Y686D01*
X42170Y657D01*
X42105Y624D01*
X42050Y592D01*
X42006Y559D01*
X41977Y533D01*
X41959Y515D01*
X41952Y512D01*
Y508D01*
X41904Y446D01*
X41872Y381D01*
X41846Y311D01*
X41832Y246D01*
X41821Y188D01*
X41817Y166D01*
Y144D01*
X41813Y126D01*
Y111D01*
Y104D01*
Y100D01*
X41817Y20D01*
X41828Y-53D01*
X41846Y-118D01*
X41864Y-173D01*
X41886Y-216D01*
X41901Y-249D01*
X41915Y-271D01*
X41919Y-278D01*
X41959Y-333D01*
X42006Y-377D01*
X42054Y-413D01*
X42097Y-442D01*
X42141Y-464D01*
X42174Y-482D01*
X42196Y-489D01*
X42199Y-493D01*
X42203D01*
X42243Y-504D01*
X42294Y-511D01*
X42356Y-519D01*
X42421Y-526D01*
X42494Y-533D01*
X42570Y-537D01*
X42727Y-544D01*
X42803Y-548D01*
X42942D01*
X43000Y-551D01*
X43866D01*
Y726D01*
D02*
G37*
G36*
X177423Y127194D02*
X177401D01*
X177204Y127173D01*
X177040Y127129D01*
X176887Y127063D01*
X176767Y126987D01*
X176658Y126910D01*
X176592Y126845D01*
X176538Y126801D01*
X176526Y126779D01*
X176461Y126692D01*
X176406Y126604D01*
X176319Y126397D01*
X176264Y126167D01*
X176221Y125948D01*
X176199Y125741D01*
X176188Y125653D01*
X176177Y125577D01*
Y125511D01*
Y125467D01*
Y125435D01*
Y125424D01*
Y125260D01*
X176188Y125118D01*
X176210Y124976D01*
X176231Y124844D01*
X176286Y124626D01*
X176352Y124451D01*
X176417Y124309D01*
X176472Y124211D01*
X176516Y124156D01*
X176526Y124134D01*
X176658Y124003D01*
X176800Y123904D01*
X176931Y123828D01*
X177062Y123784D01*
X177171Y123751D01*
X177270Y123740D01*
X177324Y123730D01*
X177346D01*
X177466Y123740D01*
X177576Y123751D01*
X177773Y123817D01*
X177947Y123904D01*
X178089Y124014D01*
X178210Y124123D01*
X178297Y124211D01*
X178341Y124276D01*
X178363Y124287D01*
Y124298D01*
X178450Y124473D01*
X178516Y124670D01*
X178560Y124877D01*
X178592Y125074D01*
X178614Y125260D01*
Y125347D01*
X178625Y125413D01*
Y125478D01*
Y125522D01*
Y125544D01*
Y125555D01*
X178614Y125850D01*
X178570Y126101D01*
X178516Y126309D01*
X178450Y126484D01*
X178396Y126615D01*
X178341Y126714D01*
X178297Y126768D01*
X178286Y126790D01*
X178144Y126921D01*
X178002Y127020D01*
X177849Y127096D01*
X177707Y127140D01*
X177587Y127173D01*
X177488Y127183D01*
X177423Y127194D01*
D02*
G37*
G36*
X150404D02*
X150382D01*
X150185Y127173D01*
X150021Y127129D01*
X149868Y127063D01*
X149748Y126987D01*
X149639Y126910D01*
X149573Y126845D01*
X149519Y126801D01*
X149508Y126779D01*
X149442Y126692D01*
X149387Y126604D01*
X149300Y126397D01*
X149245Y126167D01*
X149202Y125948D01*
X149180Y125741D01*
X149169Y125653D01*
X149158Y125577D01*
Y125511D01*
Y125467D01*
Y125435D01*
Y125424D01*
Y125260D01*
X149169Y125118D01*
X149191Y124976D01*
X149213Y124844D01*
X149267Y124626D01*
X149333Y124451D01*
X149398Y124309D01*
X149453Y124211D01*
X149497Y124156D01*
X149508Y124134D01*
X149639Y124003D01*
X149781Y123904D01*
X149912Y123828D01*
X150043Y123784D01*
X150153Y123751D01*
X150251Y123740D01*
X150305Y123730D01*
X150327D01*
X150448Y123740D01*
X150557Y123751D01*
X150754Y123817D01*
X150928Y123904D01*
X151071Y124014D01*
X151191Y124123D01*
X151278Y124211D01*
X151322Y124276D01*
X151344Y124287D01*
Y124298D01*
X151431Y124473D01*
X151497Y124670D01*
X151541Y124877D01*
X151573Y125074D01*
X151595Y125260D01*
Y125347D01*
X151606Y125413D01*
Y125478D01*
Y125522D01*
Y125544D01*
Y125555D01*
X151595Y125850D01*
X151551Y126101D01*
X151497Y126309D01*
X151431Y126484D01*
X151377Y126615D01*
X151322Y126714D01*
X151278Y126768D01*
X151267Y126790D01*
X151125Y126921D01*
X150983Y127020D01*
X150830Y127096D01*
X150688Y127140D01*
X150568Y127173D01*
X150469Y127183D01*
X150404Y127194D01*
D02*
G37*
G36*
X87185Y127194D02*
X87163D01*
X86966Y127173D01*
X86802Y127129D01*
X86649Y127063D01*
X86518Y126987D01*
X86420Y126910D01*
X86343Y126845D01*
X86288Y126801D01*
X86278Y126779D01*
X86157Y126604D01*
X86070Y126407D01*
X86015Y126200D01*
X85971Y125992D01*
X85950Y125806D01*
X85939Y125719D01*
X85928Y125653D01*
Y125588D01*
Y125544D01*
Y125522D01*
Y125511D01*
X85939Y125227D01*
X85982Y124976D01*
X86048Y124768D01*
X86114Y124593D01*
X86179Y124462D01*
X86245Y124364D01*
X86288Y124309D01*
X86299Y124287D01*
X86441Y124145D01*
X86594Y124047D01*
X86737Y123970D01*
X86879Y123926D01*
X87010Y123893D01*
X87108Y123883D01*
X87174Y123872D01*
X87196D01*
X87371Y123893D01*
X87534Y123937D01*
X87677Y124003D01*
X87797Y124079D01*
X87895Y124145D01*
X87961Y124211D01*
X88015Y124254D01*
X88026Y124276D01*
X88136Y124451D01*
X88212Y124648D01*
X88278Y124855D01*
X88310Y125063D01*
X88332Y125249D01*
X88343Y125336D01*
Y125402D01*
X88354Y125457D01*
Y125511D01*
Y125533D01*
Y125544D01*
X88343Y125839D01*
X88300Y126090D01*
X88245Y126298D01*
X88190Y126473D01*
X88125Y126604D01*
X88081Y126702D01*
X88037Y126757D01*
X88026Y126779D01*
X87895Y126921D01*
X87753Y127020D01*
X87600Y127096D01*
X87469Y127140D01*
X87349Y127173D01*
X87250Y127183D01*
X87185Y127194D01*
D02*
G37*
G36*
X132938Y125325D02*
X132927D01*
Y125030D01*
Y124855D01*
X132938Y124702D01*
X132949Y124582D01*
X132960Y124484D01*
X132970Y124418D01*
X132981Y124364D01*
X132992Y124342D01*
Y124331D01*
X133025Y124232D01*
X133080Y124134D01*
X133134Y124057D01*
X133189Y123981D01*
X133244Y123926D01*
X133288Y123883D01*
X133320Y123861D01*
X133331Y123850D01*
X133462Y123762D01*
X133604Y123708D01*
X133725Y123664D01*
X133845Y123631D01*
X133943Y123609D01*
X134020Y123598D01*
X134085D01*
X134206Y123609D01*
X134326Y123631D01*
X134424Y123664D01*
X134501Y123708D01*
X134577Y123751D01*
X134621Y123784D01*
X134654Y123806D01*
X134665Y123817D01*
X134741Y123904D01*
X134796Y123992D01*
X134829Y124079D01*
X134851Y124167D01*
X134872Y124232D01*
X134883Y124287D01*
Y124331D01*
Y124342D01*
X134872Y124451D01*
X134839Y124549D01*
X134796Y124637D01*
X134741Y124713D01*
X134697Y124768D01*
X134654Y124812D01*
X134621Y124834D01*
X134610Y124844D01*
X134523Y124888D01*
X134413Y124943D01*
X134282Y124987D01*
X134151Y125019D01*
X134020Y125052D01*
X133921Y125074D01*
X133878Y125085D01*
X133845Y125096D01*
X133823D01*
X133604Y125139D01*
X133430Y125183D01*
X133266Y125227D01*
X133145Y125260D01*
X133047Y125293D01*
X132981Y125303D01*
X132938Y125325D01*
D02*
G37*
G36*
X203174Y127194D02*
X203097D01*
X202933Y127183D01*
X202791Y127140D01*
X202660Y127085D01*
X202551Y127030D01*
X202463Y126965D01*
X202398Y126910D01*
X202354Y126866D01*
X202343Y126856D01*
X202245Y126724D01*
X202157Y126571D01*
X202103Y126407D01*
X202059Y126254D01*
X202037Y126123D01*
X202026Y126003D01*
X202015Y125959D01*
Y125937D01*
Y125916D01*
Y125905D01*
X204179D01*
X204169Y126112D01*
X204136Y126298D01*
X204092Y126462D01*
X204026Y126593D01*
X203972Y126702D01*
X203917Y126779D01*
X203884Y126834D01*
X203873Y126845D01*
X203753Y126965D01*
X203622Y127052D01*
X203491Y127107D01*
X203371Y127151D01*
X203261Y127173D01*
X203174Y127194D01*
D02*
G37*
G36*
X193184Y127194D02*
X193107D01*
X192943Y127183D01*
X192801Y127140D01*
X192670Y127085D01*
X192561Y127030D01*
X192473Y126965D01*
X192408Y126910D01*
X192364Y126866D01*
X192353Y126856D01*
X192255Y126724D01*
X192167Y126571D01*
X192113Y126407D01*
X192069Y126254D01*
X192047Y126123D01*
X192036Y126003D01*
X192025Y125959D01*
Y125937D01*
Y125916D01*
Y125905D01*
X194189D01*
X194178Y126112D01*
X194146Y126298D01*
X194102Y126462D01*
X194036Y126593D01*
X193982Y126702D01*
X193927Y126779D01*
X193894Y126834D01*
X193883Y126845D01*
X193763Y126965D01*
X193632Y127052D01*
X193501Y127107D01*
X193381Y127151D01*
X193271Y127173D01*
X193184Y127194D01*
D02*
G37*
G36*
X102126Y127194D02*
X102050D01*
X101886Y127183D01*
X101743Y127140D01*
X101612Y127085D01*
X101503Y127030D01*
X101416Y126965D01*
X101350Y126910D01*
X101306Y126866D01*
X101295Y126856D01*
X101197Y126724D01*
X101110Y126571D01*
X101055Y126407D01*
X101011Y126254D01*
X100989Y126123D01*
X100978Y126003D01*
X100968Y125959D01*
Y125937D01*
Y125916D01*
Y125905D01*
X103132D01*
X103121Y126112D01*
X103088Y126298D01*
X103044Y126462D01*
X102979Y126593D01*
X102924Y126702D01*
X102869Y126779D01*
X102837Y126834D01*
X102826Y126845D01*
X102705Y126965D01*
X102574Y127052D01*
X102443Y127107D01*
X102323Y127151D01*
X102214Y127173D01*
X102126Y127194D01*
D02*
G37*
G36*
X80966Y127194D02*
X80889D01*
X80725Y127183D01*
X80583Y127140D01*
X80452Y127085D01*
X80343Y127030D01*
X80255Y126965D01*
X80190Y126910D01*
X80146Y126866D01*
X80135Y126856D01*
X80036Y126724D01*
X79949Y126571D01*
X79894Y126407D01*
X79851Y126254D01*
X79829Y126123D01*
X79818Y126003D01*
X79807Y125959D01*
Y125937D01*
Y125916D01*
Y125905D01*
X81971D01*
X81960Y126112D01*
X81927Y126298D01*
X81884Y126462D01*
X81818Y126593D01*
X81763Y126702D01*
X81709Y126779D01*
X81676Y126834D01*
X81665Y126845D01*
X81545Y126965D01*
X81414Y127052D01*
X81283Y127107D01*
X81162Y127151D01*
X81053Y127173D01*
X80966Y127194D01*
D02*
G37*
G36*
X62745D02*
X62669D01*
X62505Y127183D01*
X62363Y127140D01*
X62231Y127085D01*
X62122Y127030D01*
X62035Y126965D01*
X61969Y126910D01*
X61926Y126866D01*
X61915Y126856D01*
X61816Y126724D01*
X61729Y126571D01*
X61674Y126407D01*
X61630Y126254D01*
X61608Y126123D01*
X61598Y126003D01*
X61587Y125959D01*
Y125937D01*
Y125916D01*
Y125905D01*
X63751D01*
X63740Y126112D01*
X63707Y126298D01*
X63663Y126462D01*
X63598Y126593D01*
X63543Y126702D01*
X63489Y126779D01*
X63456Y126834D01*
X63445Y126845D01*
X63324Y126965D01*
X63193Y127052D01*
X63062Y127107D01*
X62942Y127151D01*
X62833Y127173D01*
X62745Y127194D01*
D02*
G37*
G36*
X225449Y128987D02*
X224312D01*
X224203Y128976D01*
X224105D01*
X224007Y128965D01*
X223864D01*
X223755Y128954D01*
X223679Y128943D01*
X223635Y128932D01*
X223624D01*
X223493Y128900D01*
X223373Y128856D01*
X223263Y128801D01*
X223176Y128735D01*
X223110Y128681D01*
X223056Y128637D01*
X223023Y128604D01*
X223012Y128593D01*
X222924Y128484D01*
X222870Y128375D01*
X222826Y128255D01*
X222793Y128145D01*
X222771Y128047D01*
X222760Y127970D01*
Y127927D01*
Y127905D01*
X222771Y127785D01*
X222782Y127675D01*
X222815Y127577D01*
X222848Y127489D01*
X222881Y127413D01*
X222902Y127358D01*
X222924Y127325D01*
X222935Y127315D01*
X223001Y127227D01*
X223088Y127151D01*
X223165Y127085D01*
X223241Y127030D01*
X223307Y126998D01*
X223362Y126965D01*
X223405Y126954D01*
X223416Y126943D01*
X223482Y126921D01*
X223558Y126910D01*
X223733Y126877D01*
X223930Y126856D01*
X224127Y126845D01*
X224323D01*
X224400Y126834D01*
X225449D01*
Y128987D01*
D02*
G37*
G36*
X161749Y128506D02*
X160689Y125697D01*
X162777D01*
X161749Y128506D01*
D02*
G37*
G36*
X217503Y127129D02*
X217448D01*
X217241Y127107D01*
X217055Y127063D01*
X216902Y126987D01*
X216760Y126910D01*
X216651Y126834D01*
X216563Y126757D01*
X216519Y126714D01*
X216498Y126692D01*
X216366Y126517D01*
X216268Y126309D01*
X216202Y126101D01*
X216148Y125905D01*
X216126Y125730D01*
X216115Y125642D01*
Y125577D01*
X216104Y125522D01*
Y125478D01*
Y125457D01*
Y125446D01*
X216126Y125161D01*
X216170Y124899D01*
X216224Y124691D01*
X216301Y124506D01*
X216377Y124374D01*
X216432Y124265D01*
X216476Y124211D01*
X216498Y124189D01*
X216651Y124047D01*
X216804Y123937D01*
X216968Y123872D01*
X217121Y123817D01*
X217252Y123784D01*
X217350Y123773D01*
X217394Y123762D01*
X217448D01*
X217656Y123784D01*
X217842Y123828D01*
X218006Y123893D01*
X218137Y123981D01*
X218257Y124057D01*
X218345Y124123D01*
X218389Y124167D01*
X218410Y124189D01*
X218542Y124364D01*
X218629Y124571D01*
X218694Y124779D01*
X218749Y124987D01*
X218771Y125161D01*
X218782Y125238D01*
Y125314D01*
X218793Y125369D01*
Y125413D01*
Y125435D01*
Y125446D01*
X218771Y125730D01*
X218727Y125981D01*
X218673Y126200D01*
X218596Y126375D01*
X218531Y126506D01*
X218465Y126615D01*
X218421Y126670D01*
X218410Y126692D01*
X218257Y126834D01*
X218093Y126943D01*
X217929Y127020D01*
X217776Y127074D01*
X217645Y127107D01*
X217547Y127118D01*
X217503Y127129D01*
D02*
G37*
G36*
X187052Y127194D02*
X187030D01*
X186845Y127173D01*
X186670Y127129D01*
X186528Y127063D01*
X186396Y126987D01*
X186298Y126910D01*
X186232Y126845D01*
X186178Y126801D01*
X186167Y126779D01*
X186101Y126692D01*
X186047Y126604D01*
X185959Y126386D01*
X185905Y126167D01*
X185861Y125937D01*
X185839Y125741D01*
X185828Y125642D01*
X185817Y125566D01*
Y125500D01*
Y125457D01*
Y125424D01*
Y125413D01*
X185828Y125118D01*
X185872Y124855D01*
X185926Y124637D01*
X185992Y124462D01*
X186057Y124320D01*
X186112Y124221D01*
X186156Y124167D01*
X186167Y124145D01*
X186309Y124003D01*
X186451Y123904D01*
X186593Y123828D01*
X186724Y123784D01*
X186845Y123751D01*
X186932Y123740D01*
X186997Y123730D01*
X187019D01*
X187129Y123740D01*
X187238Y123751D01*
X187435Y123817D01*
X187599Y123904D01*
X187741Y124014D01*
X187850Y124112D01*
X187926Y124200D01*
X187970Y124265D01*
X187992Y124276D01*
Y124287D01*
X188036Y124364D01*
X188069Y124451D01*
X188134Y124648D01*
X188178Y124866D01*
X188200Y125074D01*
X188222Y125260D01*
Y125336D01*
X188233Y125413D01*
Y125467D01*
Y125522D01*
Y125544D01*
Y125555D01*
X188222Y125839D01*
X188178Y126091D01*
X188123Y126298D01*
X188058Y126473D01*
X188003Y126604D01*
X187948Y126702D01*
X187905Y126757D01*
X187894Y126779D01*
X187752Y126921D01*
X187610Y127020D01*
X187468Y127096D01*
X187325Y127140D01*
X187216Y127173D01*
X187118Y127183D01*
X187052Y127194D01*
D02*
G37*
%LPD*%
D10*
X-1929Y62067D02*
X-2716D01*
X-1929D01*
X235571Y58469D02*
X239508Y58469D01*
X235571Y70673D02*
X239508D01*
X91193Y59134D02*
X95130D01*
X91193Y71339D02*
X95130D01*
D13*
X1614Y60591D02*
X6339D01*
X1614Y68268D02*
X6339D01*
D14*
X258327Y57265D02*
Y59327D01*
X257296D01*
X256952Y58983D01*
Y58296D01*
X257296Y57952D01*
X258327D01*
X257639D02*
X256952Y57265D01*
X256264D02*
X255577D01*
X255921D01*
Y59327D01*
X256264Y58983D01*
X253171Y59327D02*
X254546D01*
Y58296D01*
X253858Y58639D01*
X253515D01*
X253171Y58296D01*
Y57608D01*
X253515Y57265D01*
X254202D01*
X254546Y57608D01*
X303754Y54209D02*
Y56271D01*
X302723D01*
X302379Y55928D01*
Y55240D01*
X302723Y54896D01*
X303754D01*
X303066D02*
X302379Y54209D01*
X300317D02*
X301691D01*
X300317Y55584D01*
Y55928D01*
X300660Y56271D01*
X301348D01*
X301691Y55928D01*
X298254Y56271D02*
X299629D01*
Y55240D01*
X298942Y55584D01*
X298598D01*
X298254Y55240D01*
Y54553D01*
X298598Y54209D01*
X299285D01*
X299629Y54553D01*
X283925Y21282D02*
X284269Y21626D01*
X284956D01*
X285300Y21282D01*
Y19907D01*
X284956Y19563D01*
X284269D01*
X283925Y19907D01*
X281862Y19563D02*
X283237D01*
X281862Y20938D01*
Y21282D01*
X282206Y21626D01*
X282894D01*
X283237Y21282D01*
X281175Y19563D02*
X280488D01*
X280831D01*
Y21626D01*
X281175Y21282D01*
X302379Y51991D02*
X302723Y52334D01*
X303410D01*
X303754Y51991D01*
Y50616D01*
X303410Y50272D01*
X302723D01*
X302379Y50616D01*
X300317Y50272D02*
X301691D01*
X300317Y51647D01*
Y51991D01*
X300660Y52334D01*
X301348D01*
X301691Y51991D01*
X299629D02*
X299285Y52334D01*
X298598D01*
X298254Y51991D01*
Y51647D01*
X298598Y51303D01*
X298942D01*
X298598D01*
X298254Y50959D01*
Y50616D01*
X298598Y50272D01*
X299285D01*
X299629Y50616D01*
X251442Y43973D02*
Y46035D01*
X250410D01*
X250067Y45691D01*
Y45004D01*
X250410Y44660D01*
X251442D01*
X250754D02*
X250067Y43973D01*
X248004D02*
X249379D01*
X248004Y45348D01*
Y45691D01*
X248348Y46035D01*
X249035D01*
X249379Y45691D01*
X247317Y43973D02*
X246629D01*
X246973D01*
Y46035D01*
X247317Y45691D01*
X238249Y35012D02*
Y32949D01*
X236875D01*
X234812Y35012D02*
X236187D01*
Y32949D01*
X234812D01*
X236187Y33980D02*
X235500D01*
X234125Y35012D02*
Y32949D01*
X233094D01*
X232750Y33293D01*
Y34668D01*
X233094Y35012D01*
X234125D01*
X230688Y32949D02*
X232062D01*
X230688Y34324D01*
Y34668D01*
X231031Y35012D01*
X231719D01*
X232062Y34668D01*
X114197Y72015D02*
Y69953D01*
X112822D01*
X110760Y72015D02*
X112135D01*
Y69953D01*
X110760D01*
X112135Y70984D02*
X111447D01*
X110072Y72015D02*
Y69953D01*
X109041D01*
X108697Y70297D01*
Y71672D01*
X109041Y72015D01*
X110072D01*
X108010Y69953D02*
X107323D01*
X107666D01*
Y72015D01*
X108010Y71672D01*
X295092Y29800D02*
Y31862D01*
X294061D01*
X293717Y31518D01*
Y30831D01*
X294061Y30487D01*
X295092D01*
X294405D02*
X293717Y29800D01*
X291655D02*
X293030D01*
X291655Y31174D01*
Y31518D01*
X291999Y31862D01*
X292686D01*
X293030Y31518D01*
X289936Y29800D02*
Y31862D01*
X290968Y30831D01*
X289593D01*
X303754Y58146D02*
Y60208D01*
X302723D01*
X302379Y59865D01*
Y59177D01*
X302723Y58833D01*
X303754D01*
X303066D02*
X302379Y58146D01*
X300317D02*
X301691D01*
X300317Y59521D01*
Y59865D01*
X300660Y60208D01*
X301348D01*
X301691Y59865D01*
X299629D02*
X299285Y60208D01*
X298598D01*
X298254Y59865D01*
Y59521D01*
X298598Y59177D01*
X298942D01*
X298598D01*
X298254Y58833D01*
Y58490D01*
X298598Y58146D01*
X299285D01*
X299629Y58490D01*
X271803Y11423D02*
X273866D01*
Y12455D01*
X273522Y12798D01*
X272835D01*
X272491Y12455D01*
Y11423D01*
Y12111D02*
X271803Y12798D01*
Y14861D02*
Y13486D01*
X273178Y14861D01*
X273522D01*
X273866Y14517D01*
Y13829D01*
X273522Y13486D01*
X271803Y16923D02*
Y15548D01*
X273178Y16923D01*
X273522D01*
X273866Y16579D01*
Y15892D01*
X273522Y15548D01*
X243949Y46584D02*
X241886D01*
Y47615D01*
X242230Y47958D01*
X243605D01*
X243949Y47615D01*
Y46584D01*
X241886Y48646D02*
Y49333D01*
Y48989D01*
X243949D01*
X243605Y48646D01*
X241886Y51396D02*
X243949D01*
X242917Y50364D01*
Y51739D01*
D16*
X142118Y73042D02*
X142446Y73370D01*
X143102D01*
X143430Y73042D01*
Y71730D01*
X143102Y71402D01*
X142446D01*
X142118Y71730D01*
X141462Y71402D02*
X140806D01*
X141134D01*
Y73370D01*
X141462Y73042D01*
X189981Y72365D02*
X190310Y72693D01*
X190965D01*
X191293Y72365D01*
Y71053D01*
X190965Y70725D01*
X190310D01*
X189981Y71053D01*
X188014Y70725D02*
X189325D01*
X188014Y72037D01*
Y72365D01*
X188342Y72693D01*
X188998D01*
X189325Y72365D01*
X-2625Y95472D02*
Y93504D01*
X-3937D01*
X-4593D02*
X-5249D01*
X-4921D01*
Y95472D01*
X-4593Y95144D01*
X-7959Y37304D02*
Y39271D01*
X-8942D01*
X-9270Y38943D01*
Y38287D01*
X-8942Y37959D01*
X-7959D01*
X-9926Y38943D02*
X-10254Y39271D01*
X-10910D01*
X-11238Y38943D01*
Y38615D01*
X-10910Y38287D01*
X-10582D01*
X-10910D01*
X-11238Y37959D01*
Y37631D01*
X-10910Y37304D01*
X-10254D01*
X-9926Y37631D01*
X14315Y68204D02*
X14643Y68532D01*
X15299D01*
X15627Y68204D01*
Y66893D01*
X15299Y66565D01*
X14643D01*
X14315Y66893D01*
X13659Y66565D02*
X13003D01*
X13331D01*
Y68532D01*
X13659Y68204D01*
X10707Y68532D02*
X11363Y68204D01*
X12019Y67549D01*
Y66893D01*
X11691Y66565D01*
X11035D01*
X10707Y66893D01*
Y67220D01*
X11035Y67549D01*
X12019D01*
X226012Y65904D02*
X227652D01*
X227980Y65576D01*
Y64920D01*
X227652Y64592D01*
X226012D01*
X227980Y62952D02*
X226012D01*
X226996Y63936D01*
Y62624D01*
X96258Y75511D02*
Y73872D01*
X95930Y73544D01*
X95274D01*
X94946Y73872D01*
Y75511D01*
X94290Y75183D02*
X93962Y75511D01*
X93306D01*
X92978Y75183D01*
Y74856D01*
X93306Y74528D01*
X93634D01*
X93306D01*
X92978Y74200D01*
Y73872D01*
X93306Y73544D01*
X93962D01*
X94290Y73872D01*
X266162Y15379D02*
X268130D01*
Y16363D01*
X267802Y16691D01*
X267146D01*
X266818Y16363D01*
Y15379D01*
Y16035D02*
X266162Y16691D01*
Y17347D02*
Y18003D01*
Y17675D01*
X268130D01*
X267802Y17347D01*
Y18986D02*
X268130Y19315D01*
Y19970D01*
X267802Y20298D01*
X267474D01*
X267146Y19970D01*
X266818Y20298D01*
X266490D01*
X266162Y19970D01*
Y19315D01*
X266490Y18986D01*
X266818D01*
X267146Y19315D01*
X267474Y18986D01*
X267802D01*
X267146Y19315D02*
Y19970D01*
X257893Y93133D02*
X255925D01*
Y92149D01*
X256254Y91821D01*
X256909D01*
X257237Y92149D01*
Y93133D01*
Y92477D02*
X257893Y91821D01*
Y91165D02*
Y90509D01*
Y90837D01*
X255925D01*
X256254Y91165D01*
X255925Y89525D02*
Y88213D01*
X256254D01*
X257565Y89525D01*
X257893D01*
X282304Y43332D02*
X284271D01*
Y44315D01*
X283943Y44643D01*
X283287D01*
X282959Y44315D01*
Y43332D01*
Y43988D02*
X282304Y44643D01*
Y45299D02*
Y45955D01*
Y45627D01*
X284271D01*
X283943Y45299D01*
X284271Y48251D02*
X283943Y47595D01*
X283287Y46939D01*
X282631D01*
X282304Y47267D01*
Y47923D01*
X282631Y48251D01*
X282959D01*
X283287Y47923D01*
Y46939D01*
X251366Y93420D02*
X249398D01*
Y92436D01*
X249726Y92109D01*
X250382D01*
X250710Y92436D01*
Y93420D01*
Y92765D02*
X251366Y92109D01*
Y91453D02*
Y90797D01*
Y91125D01*
X249398D01*
X249726Y91453D01*
X251366Y88829D02*
X249398D01*
X250382Y89813D01*
Y88501D01*
X277086Y81028D02*
Y82996D01*
X276102D01*
X275774Y82668D01*
Y82012D01*
X276102Y81684D01*
X277086D01*
X276430D02*
X275774Y81028D01*
X275118D02*
X274462D01*
X274790D01*
Y82996D01*
X275118Y82668D01*
X273478D02*
X273150Y82996D01*
X272494D01*
X272166Y82668D01*
Y82340D01*
X272494Y82012D01*
X272822D01*
X272494D01*
X272166Y81684D01*
Y81356D01*
X272494Y81028D01*
X273150D01*
X273478Y81356D01*
X256220Y25122D02*
Y27090D01*
X255236D01*
X254908Y26762D01*
Y26106D01*
X255236Y25778D01*
X256220D01*
X255564D02*
X254908Y25122D01*
X254252D02*
X253596D01*
X253924D01*
Y27090D01*
X254252Y26762D01*
X251300Y25122D02*
X252612D01*
X251300Y26434D01*
Y26762D01*
X251628Y27090D01*
X252284D01*
X252612Y26762D01*
X228923Y47016D02*
Y48984D01*
X227939D01*
X227611Y48656D01*
Y48000D01*
X227939Y47672D01*
X228923D01*
X228267D02*
X227611Y47016D01*
X226956Y47344D02*
X226627Y47016D01*
X225972D01*
X225644Y47344D01*
Y48656D01*
X225972Y48984D01*
X226627D01*
X226956Y48656D01*
Y48328D01*
X226627Y48000D01*
X225644D01*
X16601Y45473D02*
Y47441D01*
X15617D01*
X15289Y47113D01*
Y46457D01*
X15617Y46129D01*
X16601D01*
X15945D02*
X15289Y45473D01*
X14633Y47113D02*
X14305Y47441D01*
X13649D01*
X13321Y47113D01*
Y46785D01*
X13649Y46457D01*
X13321Y46129D01*
Y45801D01*
X13649Y45473D01*
X14305D01*
X14633Y45801D01*
Y46129D01*
X14305Y46457D01*
X14633Y46785D01*
Y47113D01*
X14305Y46457D02*
X13649D01*
X16601Y41536D02*
Y43504D01*
X15617D01*
X15289Y43176D01*
Y42520D01*
X15617Y42192D01*
X16601D01*
X15945D02*
X15289Y41536D01*
X14633Y43504D02*
X13321D01*
Y43176D01*
X14633Y41864D01*
Y41536D01*
X16601Y49410D02*
Y51378D01*
X15617D01*
X15289Y51050D01*
Y50394D01*
X15617Y50066D01*
X16601D01*
X15945D02*
X15289Y49410D01*
X13321Y51378D02*
X13977Y51050D01*
X14633Y50394D01*
Y49738D01*
X14305Y49410D01*
X13649D01*
X13321Y49738D01*
Y50066D01*
X13649Y50394D01*
X14633D01*
X112400Y85748D02*
Y87716D01*
X111416D01*
X111088Y87388D01*
Y86732D01*
X111416Y86404D01*
X112400D01*
X111744D02*
X111088Y85748D01*
X109120Y87716D02*
X110432D01*
Y86732D01*
X109776Y87060D01*
X109448D01*
X109120Y86732D01*
Y86076D01*
X109448Y85748D01*
X110104D01*
X110432Y86076D01*
X17569Y29035D02*
Y27067D01*
X16585D01*
X16257Y27395D01*
Y28707D01*
X16585Y29035D01*
X17569D01*
X15601Y27067D02*
X14945D01*
X15273D01*
Y29035D01*
X15601Y28707D01*
X13961Y27067D02*
X13305D01*
X13633D01*
Y29035D01*
X13961Y28707D01*
X289849Y44479D02*
X290177Y44151D01*
Y43496D01*
X289849Y43167D01*
X288537D01*
X288209Y43496D01*
Y44151D01*
X288537Y44479D01*
X288209Y46447D02*
Y45135D01*
X289521Y46447D01*
X289849D01*
X290177Y46119D01*
Y45463D01*
X289849Y45135D01*
X288209Y48415D02*
Y47103D01*
X289521Y48415D01*
X289849D01*
X290177Y48087D01*
Y47431D01*
X289849Y47103D01*
X261502Y16920D02*
X261830Y16592D01*
Y15936D01*
X261502Y15608D01*
X260191D01*
X259862Y15936D01*
Y16592D01*
X260191Y16920D01*
X259862Y18888D02*
Y17576D01*
X261174Y18888D01*
X261502D01*
X261830Y18560D01*
Y17904D01*
X261502Y17576D01*
Y19544D02*
X261830Y19872D01*
Y20528D01*
X261502Y20856D01*
X260191D01*
X259862Y20528D01*
Y19872D01*
X260191Y19544D01*
X261502D01*
X262159Y91821D02*
X261831Y92149D01*
Y92805D01*
X262159Y93133D01*
X263471D01*
X263799Y92805D01*
Y92149D01*
X263471Y91821D01*
X263799Y91165D02*
Y90509D01*
Y90837D01*
X261831D01*
X262159Y91165D01*
X263471Y89525D02*
X263799Y89197D01*
Y88541D01*
X263471Y88213D01*
X262159D01*
X261831Y88541D01*
Y89197D01*
X262159Y89525D01*
X262487D01*
X262815Y89197D01*
Y88213D01*
X225234Y55458D02*
X224906Y55130D01*
X224250D01*
X223922Y55458D01*
Y56770D01*
X224250Y57098D01*
X224906D01*
X225234Y56770D01*
X225890Y57098D02*
X226546D01*
X226218D01*
Y55130D01*
X225890Y55458D01*
X227530D02*
X227858Y55130D01*
X228514D01*
X228842Y55458D01*
Y55786D01*
X228514Y56114D01*
X228842Y56442D01*
Y56770D01*
X228514Y57098D01*
X227858D01*
X227530Y56770D01*
Y56442D01*
X227858Y56114D01*
X227530Y55786D01*
Y55458D01*
X227858Y56114D02*
X228514D01*
X227175Y74888D02*
X227503Y75216D01*
X228159D01*
X228487Y74888D01*
Y73576D01*
X228159Y73248D01*
X227503D01*
X227175Y73576D01*
X226519Y73248D02*
X225864D01*
X226191D01*
Y75216D01*
X226519Y74888D01*
X224880Y75216D02*
X223568D01*
Y74888D01*
X224880Y73576D01*
Y73248D01*
X-14698Y57513D02*
X-14370Y57186D01*
Y56530D01*
X-14698Y56202D01*
X-16010D01*
X-16338Y56530D01*
Y57186D01*
X-16010Y57513D01*
X-16338Y58169D02*
Y58825D01*
Y58497D01*
X-14370D01*
X-14698Y58169D01*
X-14370Y61121D02*
Y59809D01*
X-15354D01*
X-15026Y60465D01*
Y60793D01*
X-15354Y61121D01*
X-16010D01*
X-16338Y60793D01*
Y60137D01*
X-16010Y59809D01*
X80742Y57612D02*
X80414Y57284D01*
X79758D01*
X79430Y57612D01*
Y58924D01*
X79758Y59252D01*
X80414D01*
X80742Y58924D01*
X81398Y59252D02*
X82054D01*
X81726D01*
Y57284D01*
X81398Y57612D01*
X84022Y59252D02*
Y57284D01*
X83038Y58268D01*
X84350D01*
X105215Y57861D02*
X105543Y58189D01*
X106199D01*
X106527Y57861D01*
Y56549D01*
X106199Y56221D01*
X105543D01*
X105215Y56549D01*
X104559Y56221D02*
X103903D01*
X104231D01*
Y58189D01*
X104559Y57861D01*
X102919D02*
X102591Y58189D01*
X101935D01*
X101607Y57861D01*
Y57533D01*
X101935Y57205D01*
X102263D01*
X101935D01*
X101607Y56877D01*
Y56549D01*
X101935Y56221D01*
X102591D01*
X102919Y56549D01*
M02*
